<svg width="30" height="30" viewBox="0 0 30 30" fill="none" xmlns="http://www.w3.org/2000/svg">
<g clip-path="url(#clip0_2540_37903)">
<path d="M10.625 23.75H3.125C1.40125 23.75 0 22.3475 0 20.625V5.625C0 3.9025 1.40125 2.5 3.125 2.5H21.875C23.5988 2.5 25 3.9025 25 5.625V10.625C25 10.9713 24.72 11.25 24.375 11.25C24.03 11.25 23.75 10.9713 23.75 10.625V5.625C23.75 4.59125 22.9088 3.75 21.875 3.75H3.125C2.09125 3.75 1.25 4.59125 1.25 5.625V20.625C1.25 21.6588 2.09125 22.5 3.125 22.5H10.625C10.97 22.5 11.25 22.78 11.25 23.125C11.25 23.47 10.97 23.75 10.625 23.75Z" fill="#159557"/>
<path d="M24.375 8.75H0.625C0.28 8.75 0 8.47 0 8.125C0 7.78 0.28 7.5 0.625 7.5H24.375C24.72 7.5 25 7.78 25 8.125C25 8.47 24.72 8.75 24.375 8.75Z" fill="#159557"/>
<path d="M5.625 6.25C5.28 6.25 5 5.97 5 5.625V0.625C5 0.28 5.28 0 5.625 0C5.97 0 6.25 0.28 6.25 0.625V5.625C6.25 5.97 5.97 6.25 5.625 6.25Z" fill="#159557"/>
<path d="M19.375 6.25C19.03 6.25 18.75 5.97 18.75 5.625V0.625C18.75 0.28 19.03 0 19.375 0C19.72 0 20 0.28 20 0.625V5.625C20 5.97 19.72 6.25 19.375 6.25Z" fill="#159557"/>
<path d="M20.6253 25.0003C20.4591 25.0003 20.3003 24.934 20.1828 24.8178L17.6828 22.3178C17.4391 22.074 17.4391 21.6778 17.6828 21.434C17.9266 21.1903 18.3228 21.1903 18.5666 21.434L20.5941 23.4615L24.5291 18.964C24.7566 18.7028 25.1516 18.6778 25.4103 18.9053C25.6703 19.1328 25.6966 19.5278 25.4691 19.7878L21.0941 24.7878C20.9803 24.9178 20.8178 24.9953 20.6453 25.0003C20.6391 25.0003 20.6328 25.0003 20.6253 25.0003Z" fill="#159557"/>
<path d="M21.875 30C17.395 30 13.75 26.355 13.75 21.875C13.75 17.395 17.395 13.75 21.875 13.75C26.355 13.75 30 17.395 30 21.875C30 26.355 26.355 30 21.875 30ZM21.875 15C18.085 15 15 18.0837 15 21.875C15 25.6663 18.085 28.75 21.875 28.75C25.665 28.75 28.75 25.6663 28.75 21.875C28.75 18.0837 25.665 15 21.875 15Z" fill="#159557"/>
</g>
<defs>
<clipPath id="clip0_2540_37903">
<rect width="30" height="30" fill="white"/>
</clipPath>
</defs>
</svg>
