<svg width="35" height="35" viewBox="0 0 35 35" fill="none" xmlns="http://www.w3.org/2000/svg">
<g clip-path="url(#clip0_2540_2810)">
<path d="M34.1455 0H25.5599C25.4472 0 25.3343 0.0125098 25.2245 0.0370508L16.8649 1.90511C16.7026 1.94141 16.5484 2.0032 16.4064 2.08886L15.6506 2.54454C15.6495 2.54468 15.6485 2.54461 15.6474 2.54475C8.11397 3.4691 2.43297 9.89823 2.43297 17.4995C2.43297 20.2067 3.15621 22.8506 4.52675 25.1658L0.194539 30.4554C-0.0979711 30.8125 -0.0561351 31.3316 0.289832 31.6373L3.853 34.785C4.00927 34.923 4.21236 34.999 4.41963 34.999C4.4443 34.999 4.46919 34.9979 4.494 34.9957C4.72636 34.9751 4.94285 34.8585 5.08798 34.6758L7.41794 31.7399C7.51583 31.6166 7.66219 31.5459 7.81955 31.5459H12.0489C12.0677 31.5559 12.0869 31.5652 12.1073 31.573C13.8277 32.2327 15.6422 32.5672 17.5006 32.5672C19.5867 32.5672 21.6065 32.1487 23.5042 31.3234C25.337 30.5264 26.9717 29.3887 28.3629 27.9419C28.5592 27.7378 28.5528 27.4133 28.3487 27.217C28.1447 27.0208 27.8201 27.0271 27.6238 27.2312C24.9509 30.0109 21.3557 31.5418 17.5006 31.5418C16.3753 31.5418 15.2676 31.4095 14.19 31.1489L19.6903 29.5006C19.9576 29.4198 20.1992 29.269 20.3894 29.0639L24.6881 24.4175C25.0296 24.0481 25.019 23.4795 24.663 23.1222L24.3419 22.8016C23.966 22.4258 23.4671 22.2193 22.9363 22.2193C22.9338 22.2193 22.9313 22.2193 22.9288 22.2193C22.3952 22.2212 21.8949 22.4317 21.5203 22.8119L20.7247 23.6192V15.5393C20.7247 14.8797 20.1881 14.3431 19.5285 14.3431H9.32058C8.66098 14.3431 8.12436 14.8797 8.12436 15.5393V18.9982C8.12436 19.2814 8.35385 19.5109 8.63706 19.5109C8.9202 19.5109 9.14975 19.2814 9.14975 18.9982V15.5393C9.14975 15.4451 9.22638 15.3684 9.32065 15.3684H12.6053V17.5295C12.6053 17.8236 12.7703 18.0849 13.0359 18.2113C13.3016 18.3377 13.6083 18.301 13.8366 18.1156L14.4245 17.6378L15.0125 18.1156C15.1507 18.2278 15.3178 18.2856 15.487 18.2856C15.5972 18.2856 15.7084 18.2612 15.8131 18.2113C16.0787 18.0848 16.2437 17.8235 16.2437 17.5295V15.3684H19.5284C19.6227 15.3684 19.6993 15.4451 19.6993 15.5393V24.6595L18.5047 25.8717C18.4759 25.9011 18.4353 25.918 18.3933 25.918H16.8744C16.8902 25.8099 16.8974 25.6997 16.8956 25.5881C16.8785 24.4952 15.9598 23.6061 14.8476 23.6061H9.14968V21.2326C9.14968 20.9494 8.9202 20.7199 8.63699 20.7199C8.35385 20.7199 8.12429 20.9493 8.12429 21.2326V23.6061H7.26044C6.50787 23.6061 5.79919 23.8755 5.24507 24.3582C4.07469 22.2703 3.45836 19.9121 3.45836 17.4995C3.45836 11.7085 6.99643 6.64822 12.1228 4.52314C12.1001 4.60004 12.0874 4.68118 12.0874 4.76533V11.8477C12.0874 12.3188 12.4707 12.7022 12.9419 12.7022H21.5674C21.8506 12.7022 22.0801 12.4727 22.0801 12.1895C22.0801 11.9064 21.8506 11.6768 21.5674 11.6768H13.1127V4.93616H13.3933C13.4201 4.93616 13.4461 4.9335 13.4718 4.92953C13.4911 4.93172 13.5102 4.93439 13.53 4.93439H21.3019C21.1606 5.1839 21.0757 5.46144 21.0511 5.75155C20.8082 5.67855 20.551 5.63883 20.2846 5.63883C18.8136 5.63883 17.617 6.83553 17.617 8.30655C17.617 9.77758 18.8136 10.9743 20.2846 10.9743C21.7556 10.9743 22.9523 9.77758 22.9523 8.30655C22.9523 8.17961 22.9428 8.05492 22.9256 7.9327C22.9802 7.93707 23.0353 7.93987 23.0909 7.93987H27.4565V11.6768H23.8018C23.5186 11.6768 23.2891 11.9063 23.2891 12.1895C23.2891 12.4727 23.5186 12.7022 23.8018 12.7022H27.6274C28.0986 12.7022 28.4819 12.3189 28.4819 11.8477V8.74802C30.4629 11.2284 31.5428 14.2937 31.5428 17.4995C31.5428 20.404 30.6638 23.191 29.001 25.5592C28.8383 25.7909 28.8943 26.1107 29.126 26.2734C29.2156 26.3363 29.3184 26.3666 29.4202 26.3666C29.5815 26.3666 29.7404 26.2905 29.8402 26.1484C31.6249 23.6068 32.5682 20.616 32.5682 17.4996C32.5682 13.9867 31.3603 10.6306 29.1476 7.93994H30.6782C31.5005 7.93994 32.3018 7.60293 32.8769 7.01538C32.9141 6.97751 32.9599 6.95666 33.006 6.95666H34.1455C34.6166 6.95666 35 6.57337 35 6.10217V0.854492C35 0.383359 34.6167 0 34.1455 0ZM15.2182 16.9617L14.9006 16.7036C14.6248 16.4794 14.2242 16.4794 13.9483 16.7035L13.6306 16.9617V15.3684H15.2183L15.2182 16.9617ZM5.64531 25.4181C6.03674 24.9182 6.62545 24.6315 7.26044 24.6315H14.8476C15.4032 24.6315 15.862 25.0678 15.8704 25.6043C15.8746 25.8747 15.7717 26.1291 15.5813 26.3199C15.3942 26.5067 15.1456 26.6096 14.8816 26.6096H10.3795C10.0963 26.6096 9.86677 26.8391 9.86677 27.1223C9.86677 27.4055 10.0963 27.635 10.3795 27.635H14.8816C15.4192 27.635 15.925 27.4257 16.3064 27.0448C16.3392 27.0119 16.3708 26.978 16.4012 26.9434H18.3933C18.709 26.9434 19.0165 26.8144 19.236 26.5905L22.2506 23.5315C22.432 23.3474 22.6742 23.2455 22.9325 23.2445H22.9362C23.1932 23.2445 23.4348 23.3446 23.6171 23.5269L23.876 23.7854L19.6374 28.367C19.5713 28.4381 19.4871 28.4907 19.3948 28.5185L12.8429 30.4821C12.7387 30.5136 12.6287 30.5266 12.5176 30.5212C12.509 30.5207 12.5005 30.5205 12.4918 30.5205H7.81948C7.34739 30.5205 6.90832 30.7326 6.61478 31.1024L4.39679 33.8972L1.0921 30.9778L5.63834 25.4268C5.64059 25.424 5.64299 25.4211 5.64531 25.4181ZM20.2845 9.94889C19.3789 9.94889 18.6422 9.21211 18.6422 8.30648C18.6422 7.40086 19.3789 6.66408 20.2845 6.66408C21.1902 6.66408 21.9269 7.40086 21.9269 8.30648C21.9269 9.21211 21.1902 9.94889 20.2845 9.94889ZM33.9747 5.93113H33.0059C32.6816 5.93113 32.3756 6.06143 32.144 6.29809C31.7606 6.68979 31.2263 6.91441 30.678 6.91441H23.0908C22.5353 6.91441 22.0765 6.47801 22.0681 5.94166C22.0639 5.67109 22.1667 5.41673 22.3571 5.22601C22.5443 5.03918 22.7928 4.93623 23.0569 4.93623H27.559C27.8421 4.93623 28.0717 4.70675 28.0717 4.42354C28.0717 4.14039 27.8422 3.91084 27.559 3.91084H23.1009C23.0864 3.90954 23.0716 3.90899 23.0568 3.90899H15.3732L16.9358 2.96693C16.9831 2.93843 17.0346 2.91778 17.0887 2.90568L25.4481 1.03776C25.4848 1.02956 25.5224 1.02539 25.5599 1.02539H33.9747V5.93113Z" fill="#3B3F4A"/>
</g>
<defs>
<clipPath id="clip0_2540_2810">
<rect width="35" height="35" fill="white"/>
</clipPath>
</defs>
</svg>
