<svg width="30" height="30" viewBox="0 0 30 30" fill="none" xmlns="http://www.w3.org/2000/svg">
<path d="M27.8571 17.1426V19.2854C27.8571 21.6426 25.9285 23.5712 23.5714 23.5712H5.78568L8.24997 26.0354C8.67854 26.464 8.67854 27.1069 8.24997 27.5354C7.82139 27.964 7.17854 27.964 6.74997 27.5354L2.46425 23.2497C2.03568 22.8212 2.03568 22.1783 2.46425 21.7497L6.74997 17.464C7.17854 17.0354 7.82139 17.0354 8.24997 17.464C8.67854 17.8926 8.67854 18.5354 8.24997 18.964L5.78568 21.4283H23.5714C24.75 21.4283 25.7143 20.464 25.7143 19.2854V17.1426C25.7143 16.4997 26.1428 16.0712 26.7857 16.0712C27.4285 16.0712 27.8571 16.4997 27.8571 17.1426ZM3.21425 13.9283C3.85711 13.9283 4.28568 13.4997 4.28568 12.8569V10.714C4.28568 9.53544 5.24997 8.57115 6.42854 8.57115H24.2143L21.75 11.0354C21.3214 11.464 21.3214 12.1069 21.75 12.5354C22.1785 12.964 22.8214 12.964 23.25 12.5354L27.5357 8.24972C27.9643 7.82115 27.9643 7.17829 27.5357 6.74972L23.25 2.46401C22.8214 2.03544 22.1785 2.03544 21.75 2.46401C21.3214 2.89258 21.3214 3.53544 21.75 3.96401L24.2143 6.42829H6.42854C4.07139 6.42829 2.14282 8.35686 2.14282 10.714V12.8569C2.14282 13.4997 2.57139 13.9283 3.21425 13.9283Z" fill="#159557"/>
</svg>
