<svg width="31" height="30" viewBox="0 0 31 30" fill="none" xmlns="http://www.w3.org/2000/svg">
<path d="M29.0938 4.68732H26.406L20.706 1.43045C20.4105 1.26125 20.0817 1.15857 19.7425 1.12959C19.4033 1.1006 19.0618 1.14601 18.7419 1.26263L15.6364 2.39045C15.241 2.53518 14.8917 2.78352 14.6251 3.10949C14.3585 3.43547 14.1844 3.8271 14.121 4.24342C12.6369 3.58201 10.9433 3.50279 9.75269 4.5556C9.35057 4.89365 9.02728 5.31558 8.80548 5.7918C8.58368 6.26801 8.46875 6.78699 8.46875 7.31232C8.46875 7.83766 8.58368 8.35663 8.80548 8.83285C9.02728 9.30907 9.35057 9.73099 9.75269 10.069L15.1902 14.8803C15.2759 14.9562 15.3865 14.9981 15.501 14.9981C15.6155 14.9981 15.726 14.9562 15.8118 14.8803L17.8039 13.1169C17.818 13.1169 21.5713 13.1229 21.5713 13.1229H24.4063C24.479 13.123 24.5507 13.1062 24.6158 13.0737L26.3919 12.1873H29.0938C29.2181 12.1873 29.3373 12.1379 29.4252 12.05C29.5132 11.9621 29.5625 11.8429 29.5625 11.7186V5.15607C29.5625 5.03175 29.5132 4.91252 29.4252 4.82462C29.3373 4.73671 29.2181 4.68732 29.0938 4.68732ZM15.5 13.9053L10.3743 9.36873C10.0715 9.11875 9.82774 8.80494 9.6604 8.44977C9.49306 8.09459 9.40629 7.70682 9.40629 7.3142C9.40629 6.92158 9.49306 6.53381 9.6604 6.17863C9.82774 5.82345 10.0715 5.50965 10.3743 5.25967C11.6544 4.12717 13.8107 4.81295 15.1893 6.0331C15.275 6.10902 15.3855 6.15094 15.5 6.15094C15.6145 6.15094 15.7251 6.10902 15.8108 6.0331C17.1894 4.81435 19.3452 4.12623 20.6258 5.25967C21.0716 5.62899 21.3846 6.13375 21.5173 6.69724C21.6499 7.26073 21.595 7.85213 21.3608 8.38154L20.5218 8.90607H17.8907L14.9619 8.32013C14.4824 8.22343 13.984 8.31533 13.5705 8.57673C13.157 8.83813 12.8602 9.24889 12.7418 9.72356C12.6235 10.1982 12.6927 10.7002 12.9351 11.1252C13.1775 11.5501 13.5743 11.8652 14.0432 12.005L16.7347 12.8126L15.5 13.9053ZM28.625 11.2498H26.2813C26.2086 11.2498 26.1368 11.2666 26.0718 11.299L24.2957 12.1873H17.9122L14.3118 11.1092C14.074 11.0385 13.8727 10.8789 13.7498 10.6635C13.6268 10.4481 13.5916 10.1936 13.6516 9.9529C13.7116 9.71224 13.8621 9.504 14.0718 9.37152C14.2814 9.23904 14.5341 9.19254 14.7772 9.2417L17.75 9.8342C17.7809 9.84046 17.8123 9.8436 17.8438 9.84357H20.6563C20.7441 9.84357 20.8302 9.81888 20.9047 9.77232L24.6547 7.42857C24.7071 7.39595 24.7524 7.35334 24.7883 7.30317C24.8241 7.25301 24.8498 7.19627 24.8637 7.1362C24.8776 7.07613 24.8796 7.01391 24.8695 6.95308C24.8594 6.89226 24.8374 6.83402 24.8047 6.7817C24.7721 6.72937 24.7295 6.68399 24.6793 6.64813C24.6292 6.61228 24.5724 6.58665 24.5124 6.57273C24.4523 6.5588 24.3901 6.55684 24.3292 6.56695C24.2684 6.57707 24.2102 6.59907 24.1579 6.6317L22.5172 7.65779C22.5698 7.07691 22.482 6.49189 22.2613 5.95202C22.0406 5.41215 21.6933 4.93323 21.2488 4.5556C19.6639 3.15638 17.1875 3.75967 15.5 5.0731C15.35 4.95638 15.1925 4.84763 15.0313 4.74498V4.59357C15.0318 4.30499 15.1209 4.02352 15.2864 3.78715C15.452 3.55077 15.6861 3.37086 15.9571 3.2717L19.0625 2.14342C19.2544 2.07338 19.4592 2.04611 19.6627 2.06352C19.8661 2.08093 20.0634 2.14259 20.2405 2.2442L26.0469 5.56295C26.1183 5.60377 26.1991 5.6251 26.2813 5.62482H28.625V11.2498Z" fill="#159557"/>
<path d="M25.1863 16.0561C25.1005 15.9798 24.9898 15.9376 24.875 15.9375H6.125C6.01023 15.9376 5.89948 15.9798 5.81375 16.0561L1.595 19.8061C1.54552 19.85 1.5059 19.904 1.47875 19.9643C1.45161 20.0247 1.43755 20.0901 1.4375 20.1562V28.5938C1.4375 28.7181 1.48689 28.8373 1.57479 28.9252C1.6627 29.0131 1.78193 29.0625 1.90625 29.0625H29.0938C29.2181 29.0625 29.3373 29.0131 29.4252 28.9252C29.5131 28.8373 29.5625 28.7181 29.5625 28.5938V20.1562C29.5625 20.0901 29.5484 20.0247 29.5212 19.9643C29.4941 19.904 29.4545 19.85 29.405 19.8061L25.1863 16.0561ZM6.30312 16.875H24.6969L27.8609 19.6875H3.13906L6.30312 16.875ZM2.375 28.125V20.625H28.625V28.125H2.375Z" fill="#159557"/>
<path d="M10.3438 18.75H20.6562C20.7806 18.75 20.8998 18.7006 20.9877 18.6127C21.0756 18.5248 21.125 18.4056 21.125 18.2812C21.125 18.1569 21.0756 18.0377 20.9877 17.9498C20.8998 17.8619 20.7806 17.8125 20.6562 17.8125H10.3438C10.2194 17.8125 10.1002 17.8619 10.0123 17.9498C9.92439 18.0377 9.875 18.1569 9.875 18.2812C9.875 18.4056 9.92439 18.5248 10.0123 18.6127C10.1002 18.7006 10.2194 18.75 10.3438 18.75Z" fill="#159557"/>
<path d="M15.5138 22.1071L15.4998 22.1207L15.4857 22.1071C15.1223 21.7589 14.6385 21.5645 14.1352 21.5645C13.632 21.5645 13.1481 21.7589 12.7848 22.1071C12.6058 22.2795 12.4634 22.4861 12.3661 22.7147C12.2689 22.9433 12.2188 23.1892 12.2188 23.4377C12.2188 23.6861 12.2689 23.932 12.3661 24.1607C12.4634 24.3893 12.6058 24.5959 12.7848 24.7682L15.1754 27.0886C15.2629 27.1736 15.3801 27.2212 15.5021 27.2212C15.6241 27.2212 15.7413 27.1736 15.8288 27.0886L18.2171 24.7687C18.3961 24.5964 18.5385 24.3898 18.6357 24.1611C18.733 23.9325 18.7831 23.6866 18.7831 23.4382C18.7831 23.1897 18.733 22.9438 18.6357 22.7152C18.5385 22.4866 18.3961 22.2799 18.2171 22.1076C17.8537 21.7585 17.3694 21.5636 16.8656 21.5635C16.3617 21.5634 15.8773 21.7582 15.5138 22.1071ZM17.5623 24.0937L15.4998 26.0986L13.4373 24.0937C13.3482 24.0089 13.2772 23.9068 13.2287 23.7937C13.1803 23.6806 13.1553 23.5589 13.1553 23.4358C13.1553 23.3128 13.1803 23.191 13.2287 23.0779C13.2772 22.9648 13.3482 22.8628 13.4373 22.7779C13.6247 22.5981 13.8743 22.4977 14.1341 22.4977C14.3938 22.4977 14.6435 22.5981 14.8309 22.7779L15.1721 23.1093C15.2596 23.1944 15.3768 23.242 15.4988 23.242C15.6208 23.242 15.7381 23.1944 15.8256 23.1093L16.1668 22.7779C16.3543 22.5981 16.604 22.4977 16.8638 22.4977C17.1236 22.4977 17.3734 22.5981 17.5609 22.7779C17.65 22.8628 17.7209 22.9648 17.7694 23.0779C17.8179 23.191 17.8429 23.3128 17.8429 23.4358C17.8429 23.5589 17.8179 23.6806 17.7694 23.7937C17.7209 23.9068 17.65 24.0089 17.5609 24.0937H17.5623Z" fill="#159557"/>
</svg>
