<svg width="30" height="31" viewBox="0 0 30 31" fill="none" xmlns="http://www.w3.org/2000/svg">
<path d="M15 7.14746C14.7219 7.14746 14.45 7.06499 14.2187 6.91047C13.9875 6.75594 13.8072 6.53632 13.7008 6.27936C13.5944 6.0224 13.5665 5.73965 13.6208 5.46687C13.675 5.19408 13.809 4.94351 14.0056 4.74684C14.2023 4.55018 14.4529 4.41624 14.7257 4.36198C14.9984 4.30772 15.2812 4.33557 15.5381 4.44201C15.7951 4.54844 16.0147 4.72868 16.1693 4.95994C16.3238 5.1912 16.4063 5.46308 16.4063 5.74121C16.4063 5.86553 16.3569 5.98476 16.269 6.07267C16.181 6.16058 16.0618 6.20996 15.9375 6.20996C15.8132 6.20996 15.694 6.16058 15.606 6.07267C15.5181 5.98476 15.4688 5.86553 15.4688 5.74121C15.4688 5.6485 15.4413 5.55787 15.3898 5.48079C15.3382 5.4037 15.265 5.34362 15.1794 5.30814C15.0937 5.27266 14.9995 5.26338 14.9086 5.28147C14.8176 5.29956 14.7341 5.3442 14.6685 5.40976C14.603 5.47531 14.5583 5.55883 14.5403 5.64976C14.5222 5.74069 14.5315 5.83494 14.5669 5.92059C14.6024 6.00625 14.6625 6.07946 14.7396 6.13096C14.8167 6.18247 14.9073 6.20996 15 6.20996C15.1243 6.20996 15.2435 6.25935 15.3315 6.34726C15.4194 6.43516 15.4688 6.55439 15.4688 6.67871C15.4688 6.80303 15.4194 6.92226 15.3315 7.01017C15.2435 7.09808 15.1243 7.14746 15 7.14746Z" fill="#159557"/>
<path d="M15 9.02246C14.6272 9.02205 14.2697 8.87376 14.0061 8.61013C13.7424 8.34649 13.5942 7.98905 13.5938 7.61621C13.5938 7.49189 13.6431 7.37266 13.731 7.28475C13.819 7.19685 13.9382 7.14746 14.0625 7.14746C14.1868 7.14746 14.306 7.19685 14.394 7.28475C14.4819 7.37266 14.5312 7.49189 14.5312 7.61621C14.5312 7.70892 14.5587 7.79955 14.6102 7.87663C14.6618 7.95372 14.735 8.0138 14.8206 8.04928C14.9063 8.08476 15.0005 8.09404 15.0914 8.07595C15.1824 8.05787 15.2659 8.01322 15.3315 7.94767C15.397 7.88211 15.4417 7.79859 15.4597 7.70766C15.4778 7.61673 15.4685 7.52248 15.4331 7.43683C15.3976 7.35118 15.3375 7.27797 15.2604 7.22646C15.1833 7.17495 15.0927 7.14746 15 7.14746C14.8757 7.14746 14.7565 7.09807 14.6685 7.01017C14.5806 6.92226 14.5312 6.80303 14.5312 6.67871C14.5312 6.55439 14.5806 6.43516 14.6685 6.34725C14.7565 6.25935 14.8757 6.20996 15 6.20996C15.373 6.20996 15.7306 6.35812 15.9944 6.62184C16.2581 6.88556 16.4062 7.24325 16.4062 7.61621C16.4062 7.98917 16.2581 8.34686 15.9944 8.61058C15.7306 8.8743 15.373 9.02246 15 9.02246Z" fill="#159557"/>
<path d="M15 5.27246C14.8757 5.27246 14.7565 5.22307 14.6685 5.13517C14.5806 5.04726 14.5312 4.92803 14.5312 4.80371V4.33496C14.5312 4.21064 14.5806 4.09141 14.6685 4.0035C14.7565 3.9156 14.8757 3.86621 15 3.86621C15.1243 3.86621 15.2435 3.9156 15.3315 4.0035C15.4194 4.09141 15.4688 4.21064 15.4688 4.33496V4.80371C15.4688 4.92803 15.4194 5.04726 15.3315 5.13517C15.2435 5.22307 15.1243 5.27246 15 5.27246Z" fill="#159557"/>
<path d="M15 9.49121C14.8757 9.49121 14.7565 9.44183 14.6685 9.35392C14.5806 9.26601 14.5312 9.14678 14.5312 9.02246V8.55371C14.5312 8.42939 14.5806 8.31016 14.6685 8.22225C14.7565 8.13435 14.8757 8.08496 15 8.08496C15.1243 8.08496 15.2435 8.13435 15.3315 8.22225C15.4194 8.31016 15.4688 8.42939 15.4688 8.55371V9.02246C15.4688 9.14678 15.4194 9.26601 15.3315 9.35392C15.2435 9.44183 15.1243 9.49121 15 9.49121Z" fill="#159557"/>
<path d="M15 11.3662C14.0729 11.3662 13.1666 11.0913 12.3958 10.5762C11.6249 10.0612 11.0241 9.32907 10.6693 8.47254C10.3145 7.61601 10.2217 6.67351 10.4026 5.76423C10.5834 4.85494 11.0299 4.01971 11.6854 3.36415C12.341 2.70859 13.1762 2.26215 14.0855 2.08128C14.9948 1.90041 15.9373 1.99324 16.7938 2.34803C17.6504 2.70281 18.3824 3.30362 18.8975 4.07448C19.4126 4.84533 19.6875 5.75161 19.6875 6.67871C19.6861 7.92148 19.1918 9.11294 18.313 9.99171C17.4342 10.8705 16.2428 11.3648 15 11.3662ZM15 2.92871C14.2583 2.92871 13.5333 3.14865 12.9166 3.5607C12.2999 3.97276 11.8193 4.55843 11.5355 5.24365C11.2516 5.92887 11.1774 6.68287 11.3221 7.4103C11.4668 8.13773 11.8239 8.80592 12.3484 9.33036C12.8728 9.85481 13.541 10.212 14.2684 10.3567C14.9958 10.5014 15.7498 10.4271 16.4351 10.1433C17.1203 9.85943 17.706 9.37879 18.118 8.7621C18.5301 8.14542 18.75 7.42039 18.75 6.67871C18.7489 5.6845 18.3534 4.73134 17.6504 4.02832C16.9474 3.32531 15.9942 2.92985 15 2.92871Z" fill="#159557"/>
<path d="M21.0938 11.3662H8.90625C8.78193 11.3662 8.6627 11.3168 8.57479 11.2289C8.48689 11.141 8.4375 11.0218 8.4375 10.8975C8.4375 10.7731 8.48689 10.6539 8.57479 10.566C8.6627 10.4781 8.78193 10.4287 8.90625 10.4287H21.0938C21.2181 10.4287 21.3373 10.4781 21.4252 10.566C21.5131 10.6539 21.5625 10.7731 21.5625 10.8975C21.5625 11.0218 21.5131 11.141 21.4252 11.2289C21.3373 11.3168 21.2181 11.3662 21.0938 11.3662Z" fill="#159557"/>
<path d="M3.28084 14.1787C3.20097 14.1786 3.12244 14.1582 3.0527 14.1192C2.98297 14.0803 2.92434 14.0242 2.88239 13.9562C2.84043 13.8882 2.81653 13.8107 2.81297 13.7309C2.8094 13.6511 2.82628 13.5717 2.86201 13.5003L5.67451 7.87529C5.71345 7.79743 5.7733 7.73195 5.84736 7.68619C5.92141 7.64043 6.00675 7.6162 6.0938 7.61621H11.0251C11.1494 7.61621 11.2686 7.6656 11.3565 7.7535C11.4444 7.84141 11.4938 7.96064 11.4938 8.08496C11.4938 8.20928 11.4444 8.32851 11.3565 8.41642C11.2686 8.50433 11.1494 8.55371 11.0251 8.55371H6.38359L3.7006 13.9196C3.66163 13.9976 3.6017 14.0631 3.52755 14.1089C3.45341 14.1546 3.36797 14.1788 3.28084 14.1787Z" fill="#159557"/>
<path d="M26.7196 14.1787C26.6324 14.1789 26.547 14.1547 26.4728 14.1089C26.3987 14.0631 26.3387 13.9976 26.2998 13.9196L23.6168 8.55371H18.9756C18.8513 8.55371 18.732 8.50433 18.6441 8.41642C18.5562 8.32851 18.5068 8.20928 18.5068 8.08496C18.5068 7.96064 18.5562 7.84141 18.6441 7.7535C18.732 7.6656 18.8513 7.61621 18.9756 7.61621H23.9066C23.9937 7.6162 24.079 7.64043 24.1531 7.68619C24.2271 7.73195 24.287 7.79743 24.3259 7.87529L27.1384 13.5003C27.1741 13.5717 27.191 13.6511 27.1874 13.7309C27.1839 13.8107 27.16 13.8882 27.118 13.9562C27.0761 14.0242 27.0174 14.0803 26.9477 14.1192C26.878 14.1582 26.7994 14.1786 26.7196 14.1787Z" fill="#159557"/>
<path d="M26.7188 28.2412H3.28125C3.15693 28.2412 3.0377 28.1918 2.94979 28.1039C2.86189 28.016 2.8125 27.8968 2.8125 27.7725V13.71C2.8125 13.5856 2.86189 13.4664 2.94979 13.3785C3.0377 13.2906 3.15693 13.2412 3.28125 13.2412C3.40557 13.2412 3.5248 13.2906 3.61271 13.3785C3.70061 13.4664 3.75 13.5856 3.75 13.71V27.3037H26.25V13.71C26.25 13.5856 26.2994 13.4664 26.3873 13.3785C26.4752 13.2906 26.5944 13.2412 26.7188 13.2412C26.8431 13.2412 26.9623 13.2906 27.0502 13.3785C27.1381 13.4664 27.1875 13.5856 27.1875 13.71V27.7725C27.1875 27.8968 27.1381 28.016 27.0502 28.1039C26.9623 28.1918 26.8431 28.2412 26.7188 28.2412Z" fill="#159557"/>
<path d="M26.7188 14.1787H3.28125C3.15693 14.1787 3.0377 14.1293 2.94979 14.0414C2.86189 13.9535 2.8125 13.8343 2.8125 13.71C2.8125 13.5856 2.86189 13.4664 2.94979 13.3785C3.0377 13.2906 3.15693 13.2412 3.28125 13.2412H26.7188C26.8431 13.2412 26.9623 13.2906 27.0502 13.3785C27.1381 13.4664 27.1875 13.5856 27.1875 13.71C27.1875 13.8343 27.1381 13.9535 27.0502 14.0414C26.9623 14.1293 26.8431 14.1787 26.7188 14.1787Z" fill="#159557"/>
<path d="M15.0005 25.1988C14.939 25.1988 14.878 25.1867 14.8211 25.1632C14.7642 25.1396 14.7126 25.105 14.6691 25.0614L10.6916 21.0839C10.1699 20.5552 9.87842 19.8417 9.88087 19.099C9.88333 18.3562 10.1795 17.6446 10.7047 17.1195C11.2299 16.5943 11.9415 16.2982 12.6843 16.2958C13.427 16.2934 14.1405 16.5849 14.6691 17.1066L15.0005 17.438L15.3319 17.1066C15.8598 16.58 16.575 16.2842 17.3207 16.2842C18.0664 16.2842 18.7816 16.58 19.3095 17.1066C19.836 17.6345 20.1317 18.3497 20.1317 19.0953C20.1317 19.8409 19.836 20.556 19.3095 21.0839L15.3319 25.0616C15.2885 25.1051 15.2368 25.1397 15.1799 25.1632C15.1231 25.1868 15.0621 25.1988 15.0005 25.1988ZM12.6806 17.2214C12.3097 17.2211 11.9471 17.3308 11.6386 17.5367C11.3301 17.7425 11.0896 18.0353 10.9477 18.3779C10.8057 18.7205 10.7685 19.0976 10.8409 19.4613C10.9133 19.825 11.0921 20.1591 11.3545 20.4212L15.0005 24.0673L18.6466 20.4212C18.9975 20.0692 19.1945 19.5924 19.1945 19.0954C19.1945 18.5984 18.9975 18.1216 18.6466 17.7696C18.2946 17.4187 17.8178 17.2217 17.3207 17.2217C16.8236 17.2217 16.3469 17.4187 15.9948 17.7696L15.3319 18.4324C15.244 18.5203 15.1248 18.5697 15.0005 18.5697C14.8762 18.5697 14.757 18.5203 14.6691 18.4324L14.0063 17.7696C13.8322 17.5955 13.6255 17.4575 13.3981 17.3634C13.1706 17.2693 12.9268 17.2211 12.6806 17.2214Z" fill="#159557"/>
</svg>
