<svg width="31" height="30" viewBox="0 0 31 30" fill="none" xmlns="http://www.w3.org/2000/svg">
<g clip-path="url(#clip0_2540_40480)">
<path d="M27.375 5H3.62498C1.90127 5 0.5 6.4025 0.5 8.12504V21.8751C0.5 23.5975 1.90127 25 3.62498 25H27.375C29.0987 25 30.4999 23.5975 30.4999 21.8751V8.12504C30.5 6.4025 29.0987 5 27.375 5ZM29.25 21.875C29.25 22.9088 28.4088 23.75 27.375 23.75H3.62498C2.59121 23.75 1.74998 22.9088 1.74998 21.875V8.12504C1.74998 7.09127 2.59121 6.25004 3.62498 6.25004H27.375C28.4087 6.25004 29.25 7.09127 29.25 8.12504V21.875H29.25Z" fill="#159557"/>
<path d="M9.875 17.5H4.87502C4.53002 17.5 4.25 17.78 4.25 18.125C4.25 18.47 4.53002 18.75 4.87502 18.75H9.875C10.22 18.75 10.5 18.47 10.5 18.125C10.5 17.78 10.22 17.5 9.875 17.5Z" fill="#159557"/>
<path d="M13.625 20H4.87502C4.53002 20 4.25 20.28 4.25 20.625C4.25 20.97 4.53002 21.25 4.87502 21.25H13.625C13.97 21.25 14.25 20.97 14.25 20.625C14.25 20.28 13.97 20 13.625 20Z" fill="#159557"/>
<path d="M14.3372 7.78513C13.6059 7.5664 12.791 7.85011 12.3297 8.47138C11.9772 8.94388 11.8697 9.53263 12.0347 10.0876C12.8947 12.9801 15.6047 15.0001 18.6247 15.0001C18.9697 15.0001 19.2497 14.7201 19.2497 14.3751C19.2497 11.3551 17.2297 8.64511 14.3372 7.78513ZM13.2322 9.73138C13.1609 9.49513 13.2634 9.30886 13.3309 9.21886C13.4521 9.05638 13.6359 8.95888 13.8209 8.95888C13.8734 8.95888 13.9272 8.96761 13.9797 8.98261C16.1322 9.62263 17.6934 11.5151 17.9584 13.7101C15.7622 13.4439 13.8722 11.8826 13.2322 9.73138Z" fill="#159557"/>
<path d="M24.92 8.47123C24.4575 7.85125 23.6437 7.56625 22.9125 7.78498C20.02 8.64496 18 11.355 18 14.375C18 14.72 18.28 15 18.625 15C21.645 15 24.355 12.98 25.215 10.0875C25.38 9.53371 25.2725 8.94373 24.92 8.47123ZM24.0162 9.73123C23.3775 11.8837 21.4862 13.445 19.29 13.71C19.555 11.5137 21.1175 9.62248 23.2688 8.98246C23.3225 8.96746 23.3763 8.95873 23.4288 8.95873C23.6138 8.95873 23.7975 9.05623 23.9175 9.21871C23.985 9.30871 24.0875 9.49498 24.0162 9.73123Z" fill="#159557"/>
<path d="M18.625 5C18.28 5 18 5.28002 18 5.62502V24.375C18 24.72 18.28 25 18.625 25C18.97 25 19.25 24.72 19.25 24.375V5.62502C19.25 5.28002 18.97 5 18.625 5Z" fill="#159557"/>
<path d="M19.0666 13.9338C18.8228 13.69 18.4266 13.69 18.1828 13.9338L14.4328 17.6838C14.1891 17.9275 14.1891 18.3238 14.4328 18.5676C14.5553 18.6888 14.7153 18.7501 14.8753 18.7501C15.0353 18.7501 15.1953 18.6888 15.3166 18.5676L19.0666 14.8176C19.3103 14.5738 19.3103 14.1775 19.0666 13.9338Z" fill="#159557"/>
<path d="M22.8166 17.6838L19.0666 13.9338C18.8228 13.69 18.4266 13.69 18.1828 13.9338C17.9391 14.1775 17.9391 14.5738 18.1828 14.8176L21.9328 18.5676C22.0553 18.6888 22.2153 18.7501 22.3753 18.7501C22.5353 18.7501 22.6953 18.6888 22.8166 18.5676C23.0603 18.3237 23.0603 17.9275 22.8166 17.6838Z" fill="#159557"/>
<path d="M29.875 13.75H1.12502C0.78002 13.75 0.5 14.03 0.5 14.375C0.5 14.72 0.78002 15 1.12502 15H29.875C30.22 15 30.5001 14.72 30.5001 14.375C30.5001 14.03 30.22 13.75 29.875 13.75Z" fill="#159557"/>
</g>
<defs>
<clipPath id="clip0_2540_40480">
<rect width="30" height="30" fill="white" transform="translate(0.5)"/>
</clipPath>
</defs>
</svg>
