<svg width="30" height="30" viewBox="0 0 30 30" fill="none" xmlns="http://www.w3.org/2000/svg">
<g clip-path="url(#clip0_2540_32386)">
<path d="M29.375 13.75H25.55C25.1214 12.3923 23.9181 11.4258 22.5 11.3V1.875C22.5 0.839473 21.6605 0 20.625 0H1.875C0.839473 0 0 0.839473 0 1.875V15C0 16.0355 0.839473 16.875 1.875 16.875H7.5V18.125C7.5 18.4702 7.77984 18.75 8.12502 18.75H8.75004V29.375C8.75004 29.7202 9.02988 30 9.37506 30H28.1251C28.4702 30 28.7501 29.7202 28.7501 29.375V18.75H29.3751C29.7203 18.75 30.0001 18.4702 30.0001 18.125V14.375C30 14.0298 29.7202 13.75 29.375 13.75ZM21.875 12.5C22.8287 12.4447 23.7333 12.9272 24.2187 13.75H19.5312C20.0167 12.9272 20.9213 12.4447 21.875 12.5ZM8.12502 13.75C7.77984 13.75 7.5 14.0299 7.5 14.375V15.625H1.875C1.52982 15.625 1.24998 15.3452 1.24998 15V1.875C1.24998 1.52982 1.52982 1.24998 1.875 1.24998H20.625C20.9702 1.24998 21.25 1.52982 21.25 1.875V11.3C20.2749 11.4189 19.3813 11.9036 18.75 12.6562C17.9732 11.741 16.8253 11.2245 15.625 11.25C13.8125 11.25 12.3 12.325 11.95 13.75H8.12502ZM17.9688 13.75H13.2813C13.7667 12.9272 14.6713 12.4448 15.625 12.5C16.5787 12.4447 17.4833 12.9272 17.9688 13.75ZM16.25 28.75H10V18.75H16.25V28.75H16.25ZM20 28.75H17.5V18.75H20V28.75ZM27.5 28.75H21.25V18.75H27.5V28.75H27.5ZM28.75 17.5H8.74998V15H28.75V17.5H28.75Z" fill="#159557"/>
<path d="M5.625 8.75C6.66053 8.75 7.5 7.91053 7.5 6.875C7.5 5.83947 6.66053 5 5.625 5C4.58947 5 3.75 5.83947 3.75 6.875C3.75 7.91053 4.58947 8.75 5.625 8.75ZM5.625 6.25004C5.97018 6.25004 6.25002 6.52988 6.25002 6.87506C6.25002 7.22023 5.97018 7.50008 5.625 7.50008C5.27982 7.50008 4.99998 7.22023 4.99998 6.87506C4.99998 6.52982 5.27982 6.25004 5.625 6.25004Z" fill="#159557"/>
<path d="M9.375 8.75C8.33947 8.75 7.5 9.58947 7.5 10.625C7.5 11.6605 8.33947 12.5 9.375 12.5C10.4105 12.5 11.25 11.6605 11.25 10.625C11.25 9.58947 10.4105 8.75 9.375 8.75ZM9.375 11.25C9.02982 11.25 8.74998 10.9702 8.74998 10.625C8.74998 10.2798 9.02982 9.99998 9.375 9.99998C9.72018 9.99998 10 10.2798 10 10.625C10 10.9702 9.72018 11.25 9.375 11.25Z" fill="#159557"/>
<path d="M10.3408 5.02736L4.0918 11.2764L4.97566 12.1602L11.2247 5.91122L10.3408 5.02736Z" fill="#159557"/>
<path d="M20 2.5H16.25V3.74998H20V2.5Z" fill="#159557"/>
<path d="M20 5H16.25V6.24998H20V5Z" fill="#159557"/>
<path d="M3.74998 2.5H2.5V3.74998H3.74998V2.5Z" fill="#159557"/>
</g>
<defs>
<clipPath id="clip0_2540_32386">
<rect width="30" height="30" fill="white"/>
</clipPath>
</defs>
</svg>
