<svg width="30" height="31" viewBox="0 0 30 31" fill="none" xmlns="http://www.w3.org/2000/svg">
<path fill-rule="evenodd" clip-rule="evenodd" d="M24.2667 8.00781C24.0903 8.00781 23.9179 8.06011 23.7713 8.15809C23.6246 8.25606 23.5104 8.39532 23.4429 8.55825C23.3754 8.72118 23.3577 8.90047 23.3921 9.07343C23.4265 9.2464 23.5115 9.40528 23.6362 9.52998C23.7609 9.65469 23.9197 9.73961 24.0927 9.77401C24.2657 9.80842 24.445 9.79076 24.6079 9.72327C24.7708 9.65578 24.9101 9.5415 25.0081 9.39486C25.106 9.24823 25.1583 9.07583 25.1583 8.89948C25.1583 8.66299 25.0644 8.4362 24.8972 8.26898C24.73 8.10176 24.5032 8.00781 24.2667 8.00781Z" fill="#159557"/>
<path fill-rule="evenodd" clip-rule="evenodd" d="M5.04987 20.9746C4.87352 20.9746 4.70112 21.0269 4.55449 21.1249C4.40785 21.2229 4.29357 21.3621 4.22608 21.5251C4.15859 21.688 4.14093 21.8673 4.17534 22.0402C4.20974 22.2132 4.29466 22.3721 4.41937 22.4968C4.54407 22.6215 4.70295 22.7064 4.87591 22.7408C5.04888 22.7752 5.22817 22.7576 5.3911 22.6901C5.55403 22.6226 5.69329 22.5083 5.79126 22.3617C5.88924 22.215 5.94154 22.0426 5.94154 21.8663C5.94154 21.6298 5.84759 21.403 5.68037 21.2358C5.51315 21.0686 5.28636 20.9746 5.04987 20.9746Z" fill="#159557"/>
<path fill-rule="evenodd" clip-rule="evenodd" d="M27.5829 14.4744C27.1872 13.8625 26.6689 13.3394 26.0606 12.9381C25.4524 12.5369 24.7675 12.2662 24.0492 12.1432C23.331 12.0202 22.5951 12.0477 21.888 12.2237C21.1809 12.3998 20.518 12.7207 19.9413 13.1661C19.8663 12.9994 19.7829 12.8494 19.6996 12.6911C19.819 12.3582 19.9191 12.0187 19.9996 11.6744C20.9413 7.50772 19.7913 3.87438 17.3663 2.55772C16.7173 2.22527 16.0063 2.03121 15.2784 1.98784C14.5505 1.94447 13.8215 2.05273 13.1376 2.30576C12.4537 2.55879 11.8298 2.95108 11.3054 3.45779C10.7811 3.96449 10.3676 4.57457 10.0913 5.24938C9.51372 4.79839 8.8484 4.47288 8.13787 4.29367C7.42733 4.11447 6.68722 4.08551 5.96486 4.20865C5.24249 4.33179 4.55377 4.60431 3.94274 5.0088C3.33171 5.41329 2.8118 5.94084 2.41628 6.55772C0.974615 8.90772 1.78295 12.6244 4.69961 15.7744C6.20734 17.3007 8.01085 18.503 9.99961 19.3077L10.0496 19.5744C10.6329 22.4744 13.1496 25.9244 15.3913 28.3577C15.5059 28.4801 15.6527 28.5677 15.8148 28.6105C15.977 28.6532 16.1479 28.6494 16.3079 28.5994C19.4496 27.6161 23.3329 25.8827 25.3079 23.6411C28.2163 20.5077 29.0246 16.7994 27.5829 14.4744ZM6.02461 14.6161C4.73767 13.3364 3.86642 11.6984 3.52461 9.91605C3.37666 9.09656 3.51806 8.25113 3.92461 7.52438C4.95795 5.85772 7.73295 5.19938 9.82461 7.45772C9.93498 7.57628 10.0753 7.66287 10.2308 7.70833C10.3862 7.7538 10.5511 7.75647 10.7079 7.71605C10.8641 7.67295 11.0056 7.58811 11.1172 7.47065C11.2288 7.3532 11.3062 7.20756 11.3413 7.04938C12.0246 4.04938 14.7496 3.21605 16.4829 4.16605C17.1982 4.58634 17.7436 5.24384 18.0246 6.02438C18.5934 7.63054 18.686 9.36684 18.2913 11.0244C17.5052 10.4024 16.5564 10.0204 15.5586 9.92435C14.5609 9.82827 13.5566 10.0221 12.6663 10.4827C10.7163 11.5411 9.59128 14.0994 9.71628 17.2494C8.33212 16.5988 7.08045 15.6975 6.02461 14.5911V14.6161ZM26.4746 17.7827C26.1314 19.5671 25.2605 21.2073 23.9746 22.4911C22.3079 24.3827 19.0579 25.8244 16.2996 26.7411C14.3579 24.5661 12.2663 21.6911 11.7746 19.2411C11.3064 17.4894 11.3732 15.6378 11.9663 13.9244C12.2338 13.1103 12.7835 12.4187 13.5163 11.9744C15.2496 11.0327 17.9746 11.8661 18.6579 14.8661C18.6947 15.0229 18.7733 15.1668 18.8854 15.2826C18.9974 15.3983 19.1387 15.4816 19.2943 15.5235C19.4498 15.5654 19.6138 15.5643 19.7688 15.5204C19.9238 15.4766 20.0641 15.3916 20.1746 15.2744C22.2663 13.0077 25.0413 13.6577 26.0663 15.3411C26.4871 16.0718 26.6319 16.9293 26.4746 17.7577V17.7827Z" fill="#159557"/>
<path fill-rule="evenodd" clip-rule="evenodd" d="M22.8 5.46559H23.3167C23.4202 5.46662 23.519 5.50856 23.5917 5.58226L23.9417 5.96559C23.9896 6.01929 24.053 6.05691 24.123 6.07331C24.1931 6.08971 24.2666 6.08411 24.3334 6.05726C24.4012 6.03007 24.4592 5.98276 24.4994 5.92169C24.5396 5.86061 24.5602 5.78869 24.5584 5.71559C24.5584 5.51559 24.5584 5.32392 24.5584 5.19892C24.5574 5.14746 24.5673 5.09638 24.5874 5.049C24.6075 5.00162 24.6374 4.95901 24.675 4.92392L25.0584 4.57392C25.11 4.52429 25.1456 4.46033 25.1605 4.39028C25.1754 4.32024 25.169 4.24733 25.1421 4.18096C25.1152 4.11459 25.069 4.0578 25.0095 4.01793C24.9501 3.97805 24.88 3.95692 24.8084 3.95726H24.2917C24.2402 3.9582 24.1892 3.9483 24.1418 3.9282C24.0944 3.9081 24.0518 3.87825 24.0167 3.84059C23.9334 3.74059 23.8 3.59892 23.6667 3.45726C23.6203 3.40141 23.5569 3.36223 23.4862 3.34568C23.4156 3.32914 23.3414 3.33613 23.275 3.36559C23.2057 3.39064 23.1463 3.43745 23.1057 3.49903C23.0652 3.56061 23.0456 3.63365 23.05 3.70726V4.22392C23.049 4.3274 23.0071 4.42627 22.9334 4.49892C22.8334 4.58226 22.6917 4.70726 22.55 4.84892C22.4942 4.89532 22.455 4.95868 22.4385 5.02937C22.4219 5.10007 22.4289 5.17423 22.4584 5.24059C22.4856 5.30848 22.5329 5.36642 22.5939 5.40664C22.655 5.44686 22.7269 5.46743 22.8 5.46559Z" fill="#159557"/>
<path fill-rule="evenodd" clip-rule="evenodd" d="M9.39936 24.199L8.91603 24.0157C8.86698 23.9987 8.8222 23.9713 8.78479 23.9354C8.74738 23.8994 8.71823 23.8557 8.69936 23.8074L8.52436 23.3157C8.49797 23.2488 8.45207 23.1914 8.39263 23.151C8.33318 23.1105 8.26293 23.0889 8.19103 23.0889C8.11912 23.0889 8.04888 23.1105 7.98943 23.151C7.92998 23.1914 7.88408 23.2488 7.85769 23.3157C7.79103 23.5074 7.71603 23.6907 7.67436 23.8074C7.6585 23.8561 7.63136 23.9003 7.59516 23.9365C7.55895 23.9727 7.51471 23.9998 7.46603 24.0157L6.98269 24.199C6.91581 24.2254 6.8584 24.2713 6.81795 24.3308C6.77749 24.3902 6.75586 24.4605 6.75586 24.5324C6.75586 24.6043 6.77749 24.6745 6.81795 24.734C6.8584 24.7934 6.91581 24.8393 6.98269 24.8657L7.46603 25.0407C7.51437 25.0596 7.55804 25.0887 7.59401 25.1261C7.62998 25.1635 7.6574 25.2083 7.67436 25.2574C7.67436 25.374 7.79103 25.549 7.85769 25.7407C7.88408 25.8076 7.92998 25.865 7.98943 25.9055C8.04888 25.9459 8.11912 25.9675 8.19103 25.9675C8.26293 25.9675 8.33318 25.9459 8.39263 25.9055C8.45207 25.865 8.49797 25.8076 8.52436 25.7407L8.69936 25.2574C8.71906 25.2085 8.7484 25.1642 8.78563 25.127C8.82285 25.0897 8.8672 25.0604 8.91603 25.0407L9.39936 24.8657C9.46625 24.8393 9.52365 24.7934 9.56411 24.734C9.60456 24.6745 9.6262 24.6043 9.6262 24.5324C9.6262 24.4605 9.60456 24.3902 9.56411 24.3308C9.52365 24.2713 9.46625 24.2254 9.39936 24.199Z" fill="#159557"/>
</svg>
