<svg width="30" height="30" viewBox="0 0 30 30" fill="none" xmlns="http://www.w3.org/2000/svg">
<path d="M7.27832 30C5.36184 30.0001 3.55199 29.2406 2.15564 27.8443C0.69355 26.3822 -0.0701616 24.4665 0.00507286 22.45C0.0828269 20.3674 1.02367 18.3668 2.72594 16.6645L5.79086 13.5871C6.24754 13.1285 6.98952 13.127 7.44813 13.5837C7.90668 14.0404 7.90827 14.7824 7.45153 15.241L4.38496 18.3201C1.89994 20.8052 1.66545 24.0395 3.81303 26.1871C5.96067 28.3348 9.19499 28.1003 11.6782 25.6168L15.8903 21.4047C17.167 20.1281 17.8711 18.6703 17.9263 17.1892C17.977 15.8315 17.4565 14.5354 16.4606 13.5395C16.1269 13.2059 15.7577 12.9228 15.3632 12.6981C14.8008 12.3777 14.6046 11.6621 14.9249 11.0998C15.2453 10.5374 15.9609 10.3412 16.5232 10.6615C17.0996 10.9899 17.6362 11.4006 18.1179 11.8823C19.58 13.3444 20.3438 15.2601 20.2685 17.2766C20.1908 19.3592 19.2499 21.3599 17.5477 23.0621L13.3355 27.2742C11.6332 28.9765 9.63268 29.9173 7.55008 29.9951C7.45938 29.9983 7.36862 30 7.27832 30ZM15.0753 18.9002C15.3956 18.3378 15.1993 17.6222 14.637 17.302C14.2425 17.0772 13.8732 16.7941 13.5396 16.4606C11.392 14.3129 11.6265 11.0786 14.1098 8.59527L18.322 4.38319C20.8054 1.89992 24.0396 1.66537 26.1871 3.81295C28.3347 5.96054 28.1002 9.19486 25.6152 11.6799L22.5486 14.759C22.0919 15.2176 22.0934 15.9596 22.552 16.4163C23.0106 16.8731 23.7526 16.8714 24.2093 16.4129L27.2742 13.3354C28.9765 11.6332 29.9173 9.63261 29.9951 7.55007C30.0703 5.53356 29.3066 3.61778 27.8445 2.15569C26.3824 0.693536 24.4657 -0.0700589 22.4501 0.00505844C20.3675 0.0828125 18.367 1.02365 16.6648 2.72592L12.4526 6.938C10.7503 8.64027 9.80952 10.6408 9.73171 12.7234C9.65647 14.7399 10.4202 16.6557 11.8823 18.1178C12.364 18.5995 12.9005 19.0101 13.477 19.3386C13.6601 19.4428 13.8593 19.4924 14.0559 19.4924C14.4633 19.4923 14.8592 19.2795 15.0753 18.9002Z" fill="#159557"/>
</svg>
