<svg width="30" height="30" viewBox="0 0 30 30" fill="none" xmlns="http://www.w3.org/2000/svg">
<path d="M14.9881 9.53529C14.7779 9.53505 14.5764 9.45144 14.4278 9.30281C14.2791 9.15418 14.1955 8.95267 14.1953 8.74247C14.1944 8.61873 14.1446 8.50035 14.0568 8.41316C13.969 8.32597 13.8503 8.27704 13.7266 8.27704C13.6028 8.27704 13.4841 8.32597 13.3963 8.41316C13.3085 8.50035 13.2587 8.61873 13.2578 8.74247C13.2591 9.11841 13.383 9.48366 13.6106 9.78282C13.8383 10.082 14.1574 10.2987 14.5194 10.4001V11.2658C14.5194 11.3901 14.5688 11.5094 14.6567 11.5973C14.7446 11.6852 14.8638 11.7346 14.9881 11.7346C15.1124 11.7346 15.2317 11.6852 15.3196 11.5973C15.4075 11.5094 15.4569 11.3901 15.4569 11.2658V10.4001C15.8554 10.2842 16.199 10.0289 16.4248 9.68064C16.6506 9.3324 16.7435 8.91454 16.6866 8.50342C16.6298 8.0923 16.4268 7.71537 16.115 7.44152C15.8031 7.16768 15.4031 7.01519 14.9881 7.01194C14.8313 7.01193 14.678 6.96543 14.5476 6.87831C14.4173 6.7912 14.3157 6.66738 14.2557 6.52253C14.1957 6.37767 14.18 6.21827 14.2105 6.06448C14.2411 5.9107 14.3166 5.76944 14.4275 5.65856C14.5383 5.54767 14.6796 5.47216 14.8334 5.44155C14.9871 5.41094 15.1465 5.42661 15.2914 5.48659C15.4363 5.54657 15.5601 5.64815 15.6473 5.77851C15.7344 5.90886 15.7809 6.06212 15.781 6.21891C15.7833 6.34167 15.8338 6.4586 15.9214 6.54457C16.0091 6.63055 16.127 6.6787 16.2497 6.67869C16.3725 6.67869 16.4904 6.63052 16.578 6.54453C16.6657 6.45855 16.7161 6.34161 16.7184 6.21886C16.7172 5.84291 16.5933 5.47763 16.3656 5.17846C16.1379 4.87928 15.8189 4.66253 15.4569 4.56108V3.69552C15.4546 3.5727 15.4042 3.45567 15.3166 3.36962C15.2289 3.28356 15.111 3.23535 14.9881 3.23535C14.8653 3.23536 14.7473 3.28358 14.6597 3.36964C14.572 3.4557 14.5216 3.57273 14.5194 3.69555V4.56107C14.1208 4.67691 13.7772 4.93229 13.5514 5.28054C13.3256 5.6288 13.2327 6.04668 13.2896 6.45782C13.3464 6.86896 13.5494 7.24591 13.8612 7.51977C14.1731 7.79364 14.5731 7.94614 14.9882 7.94941C15.1964 7.9525 15.3951 8.0374 15.5413 8.18578C15.6875 8.33415 15.7694 8.53408 15.7694 8.74238C15.7694 8.95067 15.6875 9.1506 15.5413 9.29896C15.3951 9.44733 15.1964 9.53222 14.9881 9.53529Z" fill="#159557"/>
<path d="M17.0383 21.4108C20.1544 19.3978 18.7502 14.4877 14.9883 14.4707C11.2387 14.4699 9.82224 19.4195 12.9385 21.4108C11.9727 21.7273 11.0934 22.2634 10.3699 22.9772C9.64644 23.691 9.09839 24.5628 8.7689 25.5243C8.66813 25.8164 8.63944 26.1285 8.68527 26.434C8.7311 26.7396 8.85009 27.0296 9.03211 27.2793C9.21845 27.5401 9.46424 27.7528 9.74914 27.8997C10.034 28.0466 10.3498 28.1235 10.6704 28.124H19.3064C19.6199 28.1234 19.9289 28.0489 20.2084 27.9067C20.4878 27.7645 20.7299 27.5586 20.915 27.3055C21.1002 27.0524 21.2231 26.7593 21.274 26.4499C21.3248 26.1405 21.3022 25.8235 21.2078 25.5244C20.8784 24.563 20.3304 23.6911 19.6069 22.9773C18.8834 22.2635 18.0041 21.7273 17.0383 21.4108ZM12.1508 18.2456C12.27 14.4958 17.7073 14.4967 17.826 18.2456C17.7068 21.9953 12.2694 21.9944 12.1508 18.2456ZM20.182 26.7341C20.0825 26.8737 19.9512 26.9875 19.7989 27.0662C19.6466 27.1449 19.4778 27.1861 19.3063 27.1866H10.6704C10.5056 27.1871 10.3429 27.1491 10.1954 27.0755C10.048 27.0019 9.91979 26.8947 9.82118 26.7626C9.72257 26.6306 9.65627 26.4772 9.6276 26.3149C9.59892 26.1526 9.60867 25.9858 9.65605 25.8279C11.383 20.7846 18.5948 20.7857 20.3207 25.8283C20.3724 25.9793 20.3867 26.1405 20.3626 26.2982C20.3384 26.456 20.2765 26.6055 20.182 26.7341Z" fill="#159557"/>
<path d="M27.98 24.5156C27.733 23.7938 27.3289 23.1358 26.797 22.589C26.265 22.0422 25.6184 21.6202 24.9036 21.3534C25.4086 20.9738 25.7813 20.445 25.9689 19.8418C26.1566 19.2386 26.1496 18.5917 25.9491 17.9927C25.7486 17.3936 25.3647 16.8729 24.8517 16.5042C24.3388 16.1355 23.7228 15.9376 23.0911 15.9385C22.4595 15.9394 21.8441 16.139 21.3321 16.5091C20.8202 16.8792 20.4377 17.401 20.2389 18.0006C20.0401 18.6002 20.035 19.2472 20.2243 19.8498C20.4136 20.4525 20.7878 20.9803 21.2938 21.3584C20.876 21.5384 20.0246 21.7576 20.3328 22.3687C20.3959 22.4758 20.4989 22.5535 20.6192 22.5847C20.7395 22.616 20.8673 22.5982 20.9746 22.5353C21.5155 22.2252 22.1181 22.0381 22.7395 21.9873C23.361 21.9364 23.986 22.0231 24.5701 22.2412C25.1542 22.4593 25.6832 22.8033 26.1193 23.249C26.5554 23.6946 26.8879 24.2308 27.0933 24.8195C27.1244 24.9246 27.1304 25.0355 27.111 25.1433C27.0915 25.2511 27.0471 25.3529 26.9813 25.4405C26.9154 25.5281 26.83 25.599 26.7318 25.6476C26.6336 25.6963 26.5254 25.7212 26.4159 25.7205L22.7076 25.7206C22.5845 25.7224 22.467 25.7725 22.3805 25.8603C22.2941 25.948 22.2456 26.0662 22.2456 26.1893C22.2456 26.3125 22.2941 26.4307 22.3806 26.5184C22.467 26.6061 22.5845 26.6563 22.7076 26.6581H26.4159C26.6742 26.6576 26.9288 26.5962 27.159 26.479C27.3892 26.3617 27.5886 26.1919 27.7409 25.9832C27.8933 25.7746 27.9943 25.533 28.0358 25.278C28.0774 25.023 28.0582 24.7618 27.98 24.5156ZM21.0208 18.9505C21.0257 18.4035 21.2464 17.8805 21.6349 17.4954C22.0234 17.1104 22.5483 16.8943 23.0953 16.8943C23.6424 16.8943 24.1673 17.1104 24.5558 17.4954C24.9443 17.8805 25.165 18.4035 25.1699 18.9505C25.165 19.4975 24.9443 20.0204 24.5558 20.4055C24.1672 20.7906 23.6423 21.0066 23.0953 21.0066C22.5483 21.0066 22.0234 20.7906 21.6349 20.4055C21.2464 20.0204 21.0257 19.4975 21.0208 18.9505Z" fill="#159557"/>
<path d="M7.26886 25.7206H3.56061C3.45095 25.7213 3.34265 25.6963 3.2444 25.6476C3.14614 25.5989 3.06067 25.5279 2.99485 25.4402C2.92902 25.3525 2.88467 25.2505 2.86535 25.1426C2.84603 25.0346 2.85228 24.9237 2.8836 24.8186C3.08909 24.23 3.42171 23.6939 3.85782 23.2484C4.29393 22.8029 4.82283 22.459 5.4069 22.241C5.99098 22.0231 6.61591 21.9364 7.23725 21.9873C7.85859 22.0382 8.4611 22.2253 9.00194 22.5354C9.1091 22.5976 9.23654 22.6149 9.3564 22.5834C9.47625 22.552 9.57878 22.4743 9.64157 22.3675C9.70435 22.2607 9.72229 22.1333 9.69147 22.0133C9.66064 21.8933 9.58355 21.7903 9.47705 21.727C9.22338 21.5815 8.95764 21.4582 8.68277 21.3585C9.18877 20.9803 9.56294 20.4525 9.75226 19.8498C9.94159 19.2472 9.93647 18.6002 9.73764 18.0006C9.5388 17.401 9.15632 16.8792 8.64441 16.5091C8.13249 16.139 7.51708 15.9394 6.88538 15.9385C6.25368 15.9376 5.63772 16.1355 5.12477 16.5042C4.61182 16.8729 4.22789 17.3936 4.02738 17.9927C3.82688 18.5917 3.81995 19.2387 4.0076 19.8418C4.19524 20.445 4.56794 20.9739 5.07288 21.3534C3.56236 21.8345 1.08984 24.2701 2.21202 25.963C2.36538 26.1777 2.56772 26.3528 2.80226 26.4736C3.03679 26.5945 3.29676 26.6578 3.56061 26.6581H7.26886C7.39171 26.6559 7.50877 26.6055 7.59485 26.5178C7.68094 26.4302 7.72917 26.3122 7.72917 26.1894C7.72917 26.0665 7.68094 25.9485 7.59485 25.8609C7.50877 25.7732 7.39171 25.7228 7.26886 25.7206ZM4.80662 18.9505C4.81155 18.4035 5.0323 17.8806 5.42081 17.4956C5.80933 17.1106 6.33418 16.8946 6.88116 16.8946C7.42814 16.8946 7.95299 17.1106 8.3415 17.4956C8.73001 17.8806 8.95074 18.4035 8.95567 18.9505C8.95081 19.4975 8.7301 20.0204 8.34157 20.4055C7.95305 20.7906 7.42816 21.0066 6.88113 21.0066C6.33411 21.0066 5.80922 20.7906 5.4207 20.4055C5.03218 20.0204 4.81148 19.4975 4.80662 18.9505Z" fill="#159557"/>
<path d="M6.50536 15.2343C6.54941 15.2919 6.60614 15.3386 6.67116 15.3708C6.73618 15.4029 6.80774 15.4196 6.88027 15.4196C6.9528 15.4196 7.02435 15.4029 7.08937 15.3708C7.15439 15.3386 7.21112 15.2919 7.25516 15.2343L8.65634 13.3662C8.69328 13.317 8.72016 13.261 8.73544 13.2013C8.75073 13.1417 8.75412 13.0797 8.74543 13.0187C8.73674 12.9578 8.71613 12.8992 8.68478 12.8462C8.65343 12.7933 8.61196 12.747 8.56273 12.71C8.51349 12.6731 8.45747 12.6462 8.39785 12.6309C8.33823 12.6156 8.27618 12.6123 8.21525 12.6209C8.15432 12.6296 8.09569 12.6502 8.04272 12.6816C7.98976 12.7129 7.94348 12.7544 7.90654 12.8037L7.349 13.5468V8.30052C7.34915 8.17712 7.39826 8.05882 7.48554 7.97158C7.57282 7.88435 7.69114 7.8353 7.81455 7.83522H9.39986C10.0546 14.7981 19.9231 14.7928 20.5752 7.83513L22.1605 7.83522C22.2839 7.83531 22.4022 7.88435 22.4895 7.97159C22.5768 8.05882 22.6259 8.17712 22.626 8.30052V13.5468L22.0685 12.8037C21.993 12.7066 21.8825 12.6431 21.7606 12.6268C21.6388 12.6105 21.5154 12.6427 21.4171 12.7164C21.3188 12.7902 21.2534 12.8997 21.235 13.0212C21.2166 13.1427 21.2466 13.2666 21.3187 13.3662L22.7199 15.2343C22.7639 15.2919 22.8206 15.3386 22.8857 15.3708C22.9507 15.4029 23.0222 15.4196 23.0948 15.4196C23.1673 15.4196 23.2389 15.4029 23.3039 15.3708C23.3689 15.3386 23.4256 15.2919 23.4697 15.2343L24.8704 13.3662C24.9422 13.2666 24.9721 13.1428 24.9536 13.0214C24.9351 12.9 24.8697 12.7907 24.7715 12.717C24.6733 12.6434 24.55 12.6111 24.4283 12.6273C24.3066 12.6435 24.1961 12.7069 24.1206 12.8037L23.5635 13.5466V8.30052C23.5631 7.92857 23.4151 7.57199 23.1521 7.30901C22.889 7.04602 22.5324 6.89812 22.1605 6.89774H20.5625C20.4184 5.51949 19.769 4.24344 18.7394 3.31588C17.7099 2.38832 16.3733 1.875 14.9875 1.875C13.6017 1.875 12.2651 2.38832 11.2356 3.31588C10.206 4.24344 9.55657 5.51949 9.41254 6.89774H7.81455C7.4426 6.89812 7.08599 7.04602 6.82297 7.30901C6.55994 7.57199 6.41198 7.92857 6.41154 8.30052V13.5466L5.85445 12.8037C5.77883 12.7071 5.66837 12.644 5.54677 12.628C5.42518 12.6119 5.30213 12.6441 5.20403 12.7177C5.10593 12.7914 5.04058 12.9005 5.02201 13.0217C5.00344 13.143 5.03312 13.2667 5.10469 13.3663L6.50536 15.2343ZM14.9875 2.81256C16.2252 2.814 17.4117 3.30632 18.2869 4.1815C19.162 5.05668 19.6543 6.24325 19.6556 7.48092C19.3992 13.6741 10.5749 13.6723 10.3193 7.48089C10.3207 6.24323 10.813 5.05666 11.6881 4.18148C12.5633 3.30631 13.7498 2.814 14.9875 2.81256Z" fill="#159557"/>
</svg>
