<svg width="26" height="25" viewBox="0 0 26 25" fill="none" xmlns="http://www.w3.org/2000/svg">
<path d="M15.626 7.05469C14.7303 7.11289 13.8783 7.46274 13.2002 8.05078C12.5221 7.46274 11.6701 7.11289 10.7744 7.05469C8.43066 7.05469 6.34473 9.4375 6.34473 12.1523C6.34473 14.2813 7.44238 16.4258 9.52832 18.3555C10.4156 19.1654 11.3843 19.8815 12.4189 20.4922C12.8096 20.7227 13.04 20.8398 13.04 20.8398C13.0946 20.8673 13.1548 20.8816 13.2158 20.8816C13.2769 20.8816 13.3371 20.8673 13.3916 20.8398C13.3916 20.8398 13.6377 20.7148 14.0127 20.4922C15.0352 19.8794 15.9932 19.1648 16.8721 18.3594C18.958 16.4336 20.0596 14.2891 20.0596 12.1563C20.0596 9.4375 17.9854 7.05469 15.626 7.05469ZM16.3252 17.7813C15.4853 18.552 14.5691 19.2352 13.5908 19.8203C13.4268 19.918 13.29 19.9961 13.2002 20.0469C13.1025 19.9961 12.9697 19.918 12.8096 19.8203C11.8296 19.2377 10.9131 18.5543 10.0752 17.7813C8.12207 15.9805 7.1416 14.0859 7.1416 12.1523C7.1416 9.85156 8.84473 7.85547 10.79 7.85547C11.6104 7.85547 12.3877 8.39844 12.9697 8.87109C13.0393 8.92755 13.1262 8.95836 13.2158 8.95836C13.3054 8.95836 13.3923 8.92755 13.4619 8.87109C14.0479 8.39844 14.8213 7.85547 15.6416 7.85547C17.5947 7.85547 19.2939 9.87109 19.2939 12.1719C19.2783 14.0859 18.2783 15.9805 16.3252 17.7813Z" fill="#159557"/>
<path d="M21.7082 3.80955H19.6496V1.56345C19.6497 1.50607 19.6371 1.44936 19.6128 1.39738C19.5885 1.34539 19.5531 1.2994 19.509 1.26267C19.4659 1.22559 19.4153 1.19834 19.3607 1.18282C19.306 1.16731 19.2487 1.1639 19.1926 1.17283L4.62617 3.81736C4.62617 3.81736 4.59882 3.81736 4.5832 3.81736C4.56029 3.8228 4.53803 3.83065 4.51679 3.8408C4.49449 3.85285 4.47353 3.86725 4.45429 3.88376C4.43555 3.8973 4.4185 3.91304 4.40351 3.93064C4.387 3.94988 4.37259 3.97083 4.36054 3.99314C4.34862 4.01183 4.33817 4.03142 4.32929 4.05173C4.32709 4.08034 4.32709 4.10907 4.32929 4.13767C4.32752 4.15325 4.32752 4.16897 4.32929 4.18455V23.4385C4.32929 23.5421 4.37045 23.6414 4.4437 23.7147C4.51696 23.7879 4.61632 23.8291 4.71992 23.8291H21.7082C21.8118 23.8291 21.9112 23.7879 21.9844 23.7147C22.0577 23.6414 22.0988 23.5421 22.0988 23.4385V4.20017C22.0988 4.09657 22.0577 3.99721 21.9844 3.92396C21.9112 3.8507 21.8118 3.80955 21.7082 3.80955ZM18.8684 2.0322V3.80955H9.04414L18.8684 2.0322ZM21.3176 23.0478H5.0832V4.5908H21.3176V23.0478Z" fill="#159557"/>
</svg>
