<svg width="35" height="35" viewBox="0 0 35 35" fill="none" xmlns="http://www.w3.org/2000/svg">
<g clip-path="url(#clip0_2540_23438)">
<path d="M17.5001 5.44238C10.8517 5.44238 5.44287 10.8512 5.44287 17.4996C5.44287 24.148 10.8517 29.5568 17.5001 29.5568C24.1485 29.5568 29.5573 24.148 29.5573 17.4996C29.5573 10.8512 24.1485 5.44238 17.5001 5.44238ZM17.5001 28.423C11.477 28.423 6.57675 23.5228 6.57675 17.4996C6.57675 11.4764 11.477 6.57626 17.5001 6.57626C23.5232 6.57626 28.4234 11.4765 28.4234 17.4996C28.4234 23.5228 23.5232 28.423 17.5001 28.423Z" fill="black"/>
<path d="M18.0669 17.0676V12.6474C19.9193 12.7963 21.1663 13.6581 21.1663 14.4389C21.1663 14.752 21.4201 15.0059 21.7333 15.0059C22.0463 15.0059 22.3002 14.7521 22.3002 14.4389C22.3002 12.9039 20.4818 11.6783 18.0669 11.511V10.8482C18.0669 10.5351 17.8131 10.2812 17.5 10.2812C17.1869 10.2812 16.933 10.5351 16.933 10.8482V11.511C14.5181 11.6783 12.6997 12.9039 12.6997 14.4389C12.6997 16.4955 14.6551 17.2979 16.933 17.9333V22.3535C15.0806 22.2046 13.8337 21.3428 13.8337 20.562C13.8337 20.2489 13.5798 19.995 13.2667 19.995C12.9536 19.995 12.6997 20.2489 12.6997 20.562C12.6997 22.0971 14.5181 23.3226 16.933 23.49V24.1527C16.933 24.4658 17.1868 24.7197 17.5 24.7197C17.8131 24.7197 18.0669 24.4659 18.0669 24.1527V23.49C20.4818 23.3226 22.3002 22.0971 22.3002 20.562C22.3002 18.5055 20.3448 17.7031 18.0669 17.0676ZM16.933 16.7524C14.6335 16.073 13.8337 15.4559 13.8337 14.4389C13.8337 13.6581 15.0806 12.7963 16.933 12.6474V16.7524ZM18.0669 22.3535V18.2485C20.3664 18.928 21.1663 19.545 21.1663 20.562C21.1663 21.3428 19.9193 22.2046 18.0669 22.3535Z" fill="black"/>
<path d="M29.8743 5.12565C26.5691 1.82027 22.1744 0 17.5 0C12.4677 0 7.76901 2.11743 4.44612 5.84473L4.75668 3.6709C4.80091 3.36089 4.58551 3.07378 4.27557 3.02948C3.96549 2.98553 3.67845 3.20065 3.63415 3.51053L3.02938 7.74382C3.00162 7.9383 3.07654 8.13333 3.22734 8.25932C3.33084 8.34565 3.45977 8.39098 3.59074 8.39098C3.65076 8.39098 3.71133 8.38147 3.76998 8.36186L7.3985 7.15237C7.69559 7.05332 7.85609 6.7323 7.75711 6.43521C7.65799 6.13813 7.33704 5.97748 7.03995 6.0766L5.21694 6.68432C8.32866 3.14597 12.756 1.13388 17.5 1.13388C21.8715 1.13388 25.9814 2.83623 29.0726 5.92737C32.1637 9.01858 33.8661 13.1284 33.8661 17.5C33.8661 21.8716 32.1637 25.9814 29.0726 29.0726C25.9814 32.1638 21.8715 33.8661 17.5 33.8661C17.1869 33.8661 16.933 34.1199 16.933 34.4331C16.933 34.7462 17.1868 35.0001 17.5 35.0001C22.1744 35.0001 26.5691 33.1798 29.8743 29.8744C33.1796 26.569 35 22.1744 35 17.5C35 12.8256 33.1797 8.4309 29.8743 5.12565Z" fill="black"/>
<path d="M15.1614 33.7008C14.9687 33.6731 14.7745 33.6419 14.5844 33.6077C14.2761 33.5521 13.9815 33.7572 13.926 34.0654C13.8706 34.3736 14.0755 34.6683 14.3837 34.7238C14.5872 34.7603 14.7948 34.7938 15.0009 34.8233C15.0281 34.8272 15.0551 34.8291 15.0819 34.8291C15.3594 34.8291 15.6019 34.625 15.6424 34.3424C15.6866 34.0324 15.4714 33.7452 15.1614 33.7008Z" fill="black"/>
<path d="M12.3904 33.0526C12.0335 32.9354 11.676 32.804 11.3277 32.6621C11.0379 32.5441 10.7069 32.6832 10.5887 32.9733C10.4705 33.2633 10.6099 33.5941 10.8998 33.7123C11.2725 33.8642 11.6549 34.0046 12.0368 34.13C12.0955 34.1493 12.1551 34.1584 12.2138 34.1584C12.4521 34.1584 12.6739 34.007 12.7524 33.7682C12.8499 33.4705 12.6879 33.1503 12.3904 33.0526Z" fill="black"/>
<path d="M1.51012 21.0064C1.43007 20.6395 1.36185 20.2649 1.30737 19.893C1.26191 19.5831 0.974254 19.3691 0.664312 19.4142C0.354439 19.4596 0.140064 19.7475 0.185523 20.0573C0.243834 20.455 0.316705 20.8556 0.402359 21.2481C0.460259 21.5133 0.695006 21.6943 0.955728 21.6943C0.995787 21.6943 1.03646 21.6901 1.07713 21.6812C1.38297 21.6144 1.57691 21.3123 1.51012 21.0064Z" fill="black"/>
<path d="M1.31931 12.4608C1.01764 12.3779 0.705441 12.5556 0.622589 12.8576C0.516222 13.245 0.422159 13.6414 0.342999 14.0357C0.281339 14.3427 0.480196 14.6416 0.787198 14.7032C0.824933 14.7108 0.862394 14.7144 0.899444 14.7144C1.16393 14.7144 1.40066 14.5283 1.45466 14.259C1.52869 13.8904 1.61667 13.5198 1.71607 13.1576C1.79885 12.8556 1.62132 12.5436 1.31931 12.4608Z" fill="black"/>
<path d="M2.57438 24.2238C2.41989 23.8814 2.27551 23.5293 2.14522 23.1771C2.0366 22.8834 1.71039 22.7333 1.41678 22.842C1.12311 22.9507 0.97313 23.2768 1.08175 23.5705C1.22107 23.9471 1.37549 24.3239 1.54079 24.6902C1.6354 24.9 1.84177 25.0241 2.05792 25.0241C2.13585 25.0241 2.21508 25.0079 2.29076 24.9738C2.57623 24.845 2.7031 24.5092 2.57438 24.2238Z" fill="black"/>
<path d="M0.631709 15.9034C0.31876 15.8844 0.0505176 16.1228 0.0317871 16.4354C0.0107324 16.7875 0 17.1456 0 17.5001C0 17.5485 0.000205078 17.5967 0.000615234 17.645C0.00307617 17.9566 0.256416 18.2075 0.56752 18.2075C0.568955 18.2075 0.570527 18.2075 0.572031 18.2075C0.885117 18.205 1.13695 17.9491 1.13456 17.636C1.13422 17.5904 1.13395 17.5449 1.13395 17.4997C1.13395 17.1681 1.14399 16.833 1.16375 16.5033C1.18255 16.1908 0.944316 15.9222 0.631709 15.9034Z" fill="black"/>
<path d="M9.29653 31.6652C8.97182 31.4767 8.64917 31.2743 8.33745 31.0633C8.07809 30.8878 7.7257 30.9557 7.55015 31.215C7.37461 31.4744 7.44256 31.8267 7.70184 32.0023C8.03503 32.2279 8.3801 32.4444 8.7273 32.6459C8.81685 32.6979 8.91467 32.7226 9.0114 32.7226C9.20691 32.7226 9.39709 32.6214 9.50229 32.4401C9.65952 32.1694 9.56737 31.8224 9.29653 31.6652Z" fill="black"/>
<path d="M4.28159 27.152C4.05977 26.8487 3.84574 26.5339 3.64524 26.2159C3.4783 25.951 3.12823 25.8715 2.86327 26.0387C2.59838 26.2057 2.51908 26.5557 2.68609 26.8206C2.90039 27.1606 3.12926 27.4973 3.3664 27.8215C3.47748 27.9733 3.64982 28.0537 3.82441 28.0537C3.94062 28.0537 4.05779 28.0181 4.15868 27.9443C4.41148 27.7594 4.46651 27.4048 4.28159 27.152Z" fill="black"/>
<path d="M6.55523 29.6685C6.27585 29.4171 6.00159 29.1526 5.74012 28.8826C5.52232 28.6576 5.1635 28.6518 4.93847 28.8696C4.71349 29.0874 4.70768 29.4463 4.92555 29.6713C5.205 29.96 5.49812 30.2426 5.79672 30.5114C5.90514 30.6089 6.04076 30.6569 6.17584 30.6569C6.33095 30.6569 6.48544 30.5936 6.59741 30.4692C6.80686 30.2364 6.78793 29.8779 6.55523 29.6685Z" fill="black"/>
<path d="M2.43985 9.73073C2.15691 9.5964 1.81873 9.71685 1.68441 9.99952C1.5954 10.1868 1.50865 10.3782 1.42649 10.5685C1.30235 10.8559 1.43476 11.1897 1.72221 11.3138C1.79549 11.3454 1.87171 11.3604 1.9467 11.3604C2.16607 11.3604 2.37504 11.2323 2.46746 11.0181C2.5443 10.8403 2.62537 10.6612 2.70863 10.4861C2.84296 10.2032 2.72265 9.86512 2.43985 9.73073Z" fill="black"/>
</g>
<defs>
<clipPath id="clip0_2540_23438">
<rect width="35" height="35" fill="white"/>
</clipPath>
</defs>
</svg>
