<svg width="30" height="30" viewBox="0 0 30 30" fill="none" xmlns="http://www.w3.org/2000/svg">
<g clip-path="url(#clip0_2540_30712)">
<path d="M29.7205 0.0865824C29.5469 -0.0199994 29.3304 -0.0287299 29.1488 0.0634379L0.320717 14.6994C0.110483 14.8062 -0.0153171 15.0285 0.00149929 15.2638C0.0183743 15.499 0.174585 15.7011 0.397885 15.7768L11.1332 19.4152C11.1324 19.4278 11.1313 19.4402 11.1313 19.4531V26.2499C11.1313 26.4862 11.2733 26.6995 11.4914 26.7906C11.5643 26.8211 11.641 26.8359 11.7171 26.8359C11.8684 26.8359 12.0172 26.7773 12.129 26.6668L17.3404 21.5188L29.226 25.547C29.2873 25.5678 29.3508 25.578 29.414 25.578C29.5349 25.578 29.6546 25.5406 29.7554 25.4683C29.9089 25.3583 29.9999 25.181 29.9999 24.9921V0.585917C30 0.382246 29.8942 0.193106 29.7205 0.0865824ZM11.4225 18.2759L2.09294 15.1139L27.3696 2.28103L11.4225 18.2759ZM12.3032 24.8476V19.8117L16.0988 21.0981L12.3032 24.8476ZM28.8281 24.1749L26.8359 23.4997V17.2843C26.8359 16.9608 26.5736 16.6984 26.25 16.6984C25.9264 16.6984 25.664 16.9608 25.664 17.2843V23.1025L12.6594 18.695L28.8281 2.47791V24.1749Z" fill="#159557"/>
<path d="M26.6643 14.5857C26.5553 14.4768 26.4041 14.4141 26.25 14.4141C26.0959 14.4141 25.9447 14.4767 25.8357 14.5857C25.7268 14.6947 25.6641 14.8459 25.6641 15C25.6641 15.1541 25.7268 15.3053 25.8357 15.4142C25.9447 15.5232 26.0959 15.5859 26.25 15.5859C26.4041 15.5859 26.5553 15.5232 26.6643 15.4142C26.7732 15.3053 26.8359 15.1541 26.8359 15C26.8359 14.8459 26.7732 14.6947 26.6643 14.5857Z" fill="#159557"/>
<path d="M8.16822 21.8317C7.93941 21.603 7.56839 21.603 7.33959 21.8317L2.99387 26.1774C2.76506 26.4062 2.76506 26.7773 2.99387 27.0061C3.10831 27.1205 3.25825 27.1777 3.40819 27.1777C3.55813 27.1777 3.70813 27.1205 3.8225 27.0061L8.16822 22.6604C8.39703 22.4316 8.39703 22.0606 8.16822 21.8317Z" fill="#159557"/>
<path d="M2.37715 27.6229C2.26816 27.5139 2.11699 27.4512 1.96289 27.4512C1.80879 27.4512 1.65762 27.5138 1.54863 27.6229C1.43965 27.7318 1.37695 27.883 1.37695 28.0371C1.37695 28.1912 1.43965 28.3424 1.54863 28.4513C1.65762 28.5603 1.80879 28.623 1.96289 28.623C2.11699 28.623 2.26816 28.5603 2.37715 28.4513C2.48613 28.3424 2.54883 28.1912 2.54883 28.0371C2.54883 27.883 2.48613 27.7318 2.37715 27.6229Z" fill="#159557"/>
<path d="M20.248 24.7517C20.0191 24.5229 19.6481 24.5229 19.4193 24.7517L15.1716 28.9993C14.9428 29.2282 14.9428 29.5992 15.1716 29.828C15.2861 29.9424 15.436 29.9997 15.5859 29.9997C15.7359 29.9997 15.8859 29.9424 16.0003 29.828L20.248 25.5804C20.4768 25.3515 20.4768 24.9805 20.248 24.7517Z" fill="#159557"/>
</g>
<defs>
<clipPath id="clip0_2540_30712">
<rect width="30" height="30" fill="white"/>
</clipPath>
</defs>
</svg>
