<svg width="30" height="30" viewBox="0 0 30 30" fill="none" xmlns="http://www.w3.org/2000/svg">
<g clip-path="url(#clip0_2540_37002)">
<path d="M29.4797 25.5267C29.5089 25.4697 29.5262 25.4072 29.5304 25.3433C29.5346 25.2793 29.5257 25.2152 29.5042 25.1548L24.8167 12.0298C24.7765 11.9177 24.6953 11.825 24.5894 11.7706C24.4834 11.7162 24.3608 11.7041 24.2463 11.7368L23.2732 12.0148L21.6545 6.34967L21.697 6.32284C22.0257 6.11909 22.2743 5.80859 22.4012 5.44336C22.5282 5.07813 22.5258 4.68036 22.3944 4.3167C22.3114 4.09834 22.1831 3.90003 22.0179 3.73483C21.8528 3.56963 21.6545 3.44128 21.4362 3.35823C21.2178 3.27518 20.9844 3.23931 20.7512 3.25298C20.518 3.26665 20.2903 3.32956 20.0832 3.43756L19.2692 3.8813L19.79 3.11667C19.984 2.80286 20.049 2.42615 19.9715 2.06546C19.8939 1.70477 19.6798 1.38809 19.374 1.18175C19.0681 0.975415 18.6943 0.895437 18.3308 0.958573C17.9673 1.02171 17.6424 1.22306 17.424 1.52045L16.4167 2.89236C16.3901 2.92826 16.3587 2.9603 16.3233 2.98758L11.1179 6.97311L11.1183 6.97374L9.46901 7.07084L11.6372 4.9974C11.8482 4.81301 12.0085 4.57774 12.1029 4.31396C12.1973 4.05017 12.2227 3.76663 12.1767 3.49025C12.1307 3.21388 12.0148 2.95385 11.84 2.73488C11.6652 2.51591 11.4374 2.34526 11.1781 2.23915C10.9306 2.13892 10.6625 2.10009 10.3967 2.12595C10.131 2.15182 9.87541 2.24162 9.65188 2.38769C5.30336 5.503 5.30336 5.503 5.28459 5.522C3.22809 7.46543 2.28944 9.95269 1.46135 12.1472L0.507812 14.3442L1.3675 14.7182L2.3137 12.5436L2.33842 12.4784C3.1276 10.3869 4.02184 8.01748 5.906 6.22466C6.25779 5.97243 10.1772 3.16473 10.1767 3.16428C10.272 3.10386 10.3804 3.06711 10.4928 3.05708C10.6052 3.04704 10.7183 3.06402 10.8228 3.1066C10.935 3.15104 11.0335 3.22401 11.1088 3.31827C11.184 3.41254 11.2333 3.52483 11.2517 3.64401C11.2725 3.76629 11.2607 3.89189 11.2173 4.00809C11.1739 4.12429 11.1006 4.22697 11.0048 4.30571L8.08335 7.09873C8.00015 7.17831 7.94337 7.2815 7.92069 7.39437C7.898 7.50725 7.9105 7.62436 7.95649 7.7299C8.00248 7.83545 8.07976 7.92433 8.17787 7.98456C8.27599 8.04479 8.39023 8.07346 8.50516 8.0667L13.6147 7.76389C13.909 7.77088 14.2004 7.704 14.4623 7.56936L18.7376 5.23871C19.0012 5.32952 19.2317 5.49693 19.3996 5.71952C19.5676 5.9421 19.6652 6.20973 19.6802 6.48815L13.9262 10.1237C13.788 10.2125 13.6397 10.2843 13.4843 10.3377L10.5052 11.3592C9.488 11.7077 7.06803 12.6848 6.56427 14.2197C6.55946 14.2348 6.55511 14.2502 6.55168 14.2657L6.10469 16.306L7.02044 16.5067L7.46241 14.4914C7.78353 13.5724 9.39784 12.7299 10.8091 12.2458L12.9713 11.5045L12.7265 12.7285L12.2541 12.661C12.142 12.6453 12.028 12.6705 11.933 12.7321C11.838 12.7936 11.7684 12.8874 11.737 12.9961L7.98702 26.1211C7.96889 26.1846 7.96436 26.2512 7.97375 26.3165C7.98313 26.3819 8.00621 26.4445 8.04147 26.5003C8.07673 26.5561 8.12338 26.6039 8.17837 26.6404C8.23336 26.6769 8.29544 26.7014 8.36056 26.7123L13.6774 27.5985L13.5955 28.5537C13.59 28.6184 13.5979 28.6835 13.6189 28.745C13.6399 28.8065 13.6734 28.8629 13.7173 28.9107C13.7612 28.9586 13.8146 28.9968 13.874 29.0229C13.9335 29.049 13.9977 29.0625 14.0627 29.0625H22.5002C22.5651 29.0625 22.6293 29.049 22.6888 29.0229C22.7482 28.9968 22.8016 28.9586 22.8455 28.9107C22.8895 28.8629 22.923 28.8065 22.9439 28.745C22.9649 28.6835 22.9728 28.6184 22.9673 28.5537L22.8826 27.5657L29.1915 25.7632C29.2532 25.7456 29.3106 25.7155 29.3601 25.6748C29.4097 25.6342 29.4504 25.5837 29.4797 25.5267ZM22.3718 12.2724L21.5909 12.4955L21.5611 12.1475C21.551 12.0305 21.4974 11.9216 21.4109 11.8422C21.3244 11.7628 21.2113 11.7188 21.0939 11.7187H20.6252V7.00005L20.8286 6.8715L22.3718 12.2724ZM16.8752 11.7187V9.36936L19.6877 7.59237V11.7187H16.8752ZM14.0242 6.74078C13.8924 6.80392 13.7471 6.83371 13.601 6.82753L12.7876 6.87542L16.8935 3.7319C16.9991 3.65077 17.0928 3.55514 17.1718 3.44784L18.1798 2.07526C18.2444 1.98691 18.3369 1.92279 18.4422 1.89317C18.5476 1.86354 18.6599 1.87011 18.7611 1.91183C18.8273 1.93832 18.8868 1.97916 18.9354 2.0314C18.9839 2.08364 19.0202 2.14599 19.0418 2.21396C19.0638 2.27826 19.0719 2.34655 19.0653 2.41423C19.0588 2.4819 19.0378 2.54738 19.0038 2.60626L17.4648 4.86504L14.0242 6.74078ZM19.7032 4.71229L20.5213 4.26634C20.6114 4.22022 20.7104 4.19372 20.8115 4.18859C20.9127 4.18346 21.0138 4.19981 21.1082 4.23657C21.2025 4.27333 21.2881 4.32966 21.3591 4.40186C21.4302 4.47405 21.4851 4.56048 21.5203 4.65544C21.5723 4.81711 21.5683 4.99158 21.5089 5.15068C21.4495 5.30977 21.3382 5.44421 21.193 5.53229L20.5334 5.94905C20.3989 5.45729 20.1074 5.02298 19.7032 4.71229ZM14.0008 11.1369C14.1497 11.0746 14.2933 11.0001 14.43 10.9142L15.9377 9.96167V11.7187H15.4689C15.3515 11.7188 15.2384 11.7628 15.1519 11.8422C15.0654 11.9216 15.0118 12.0305 15.0018 12.1474L14.925 13.0426L13.6559 12.8613L14.0008 11.1369ZM9.0325 25.8739L12.5262 13.6468L14.8448 13.978L13.7577 26.6615L9.0325 25.8739ZM14.5733 28.125L15.8992 12.6562H20.6636L21.9895 28.125H14.5733ZM22.8011 26.614L21.6725 13.4472L24.0815 12.759L28.4529 24.9991L22.8011 26.614Z" fill="#159557"/>
<path d="M18.7502 13.5938H17.8127V25.0472L15.6963 26.317L16.1791 27.1205L18.2814 25.8591L20.3838 27.1205L20.8666 26.317L18.7502 25.0472V13.5938Z" fill="#159557"/>
</g>
<defs>
<clipPath id="clip0_2540_37002">
<rect width="30" height="30" fill="white"/>
</clipPath>
</defs>
</svg>
