<svg width="26" height="25" viewBox="0 0 26 25" fill="none" xmlns="http://www.w3.org/2000/svg">
<g clip-path="url(#clip0_2540_40520)">
<path d="M8.5748 19.4453C7.13333 19.4453 5.96484 20.6139 5.96484 22.0553C5.96484 23.4967 7.13338 24.6652 8.5748 24.6652C10.0163 24.6652 11.1848 23.4967 11.1848 22.0553C11.1848 20.6139 10.0163 19.4453 8.5748 19.4453ZM8.5748 23.5053C7.77399 23.5053 7.12484 22.8561 7.12484 22.0553C7.12484 21.2545 7.77399 20.6054 8.5748 20.6054C9.3756 20.6054 10.0248 21.2545 10.0248 22.0553C10.0248 22.8561 9.3756 23.5053 8.5748 23.5053Z" fill="#159557"/>
<path d="M19.5948 19.4453C18.1533 19.4453 16.9849 20.6139 16.9849 22.0553C16.9849 23.4967 18.1534 24.6652 19.5948 24.6652C21.0362 24.6652 22.2048 23.4967 22.2048 22.0553C22.2048 20.6139 21.0363 19.4453 19.5948 19.4453ZM19.5948 23.5053C18.794 23.5053 18.1449 22.8561 18.1449 22.0553C18.1449 21.2545 18.794 20.6054 19.5948 20.6054C20.3956 20.6054 21.0448 21.2545 21.0448 22.0553C21.0448 22.8561 20.3956 23.5053 19.5948 23.5053Z" fill="#159557"/>
<path d="M25.4819 4.22C25.3611 4.08806 25.1958 4.00546 25.0179 3.98798L6.13906 3.72698L5.61707 2.13198C5.24934 1.06574 4.25087 0.345918 3.12307 0.333984H1.18009C0.859761 0.333984 0.600098 0.593648 0.600098 0.91398C0.600098 1.23431 0.859761 1.49398 1.18009 1.49398H3.12307C3.75369 1.50791 4.30899 1.91283 4.51508 2.50898L8.19805 13.6159L7.90808 14.2829C7.58464 15.1169 7.68178 16.0557 8.16908 16.8058C8.65171 17.5426 9.46367 17.9974 10.3441 18.0238H21.625C21.9453 18.0238 22.205 17.7642 22.205 17.4438C22.205 17.1235 21.9453 16.8638 21.625 16.8638H10.344C9.84684 16.8514 9.38918 16.5899 9.12602 16.1678C8.86581 15.751 8.81235 15.2374 8.98104 14.7758L9.21306 14.2538L21.422 12.9778C22.763 12.8301 23.8662 11.8548 24.1769 10.5418L25.569 4.7129C25.6317 4.54505 25.5984 4.35627 25.4819 4.22ZM23.0459 10.2809C22.8576 11.1261 22.1401 11.7495 21.277 11.8179L9.21306 13.0649L6.51607 4.88697L24.2929 5.14797L23.0459 10.2809Z" fill="#159557"/>
</g>
<defs>
<clipPath id="clip0_2540_40520">
<rect width="25" height="25" fill="white" transform="translate(0.600098)"/>
</clipPath>
</defs>
</svg>
