<svg width="30" height="31" viewBox="0 0 30 31" fill="none" xmlns="http://www.w3.org/2000/svg">
<g clip-path="url(#clip0_2540_17730)">
<path d="M29.7521 21.3517C27.3452 19.6714 24.9607 18.5332 22.6536 17.9617C23.7675 14.3357 22.5899 10.8645 22.5325 10.6997C22.4161 10.3657 22.0017 10.2022 21.6873 10.3732C20.577 10.9773 19.574 11.6323 18.6937 12.3264C18.0919 10.2218 17.0084 8.04041 15.464 5.828C15.2338 5.49833 14.7209 5.49655 14.4895 5.828C12.9453 8.03999 11.8619 10.221 11.26 12.3254C10.3799 11.6316 9.3775 10.977 8.2677 10.3731C7.95206 10.2013 7.5392 10.365 7.42256 10.6997C7.3651 10.8646 6.185 14.343 7.30497 17.9732C5.02772 18.5355 2.65707 19.6698 0.247919 21.3515C-0.0817477 21.5817 -0.0835303 22.0946 0.247919 22.3259C3.85731 24.8456 7.33937 26.1211 10.606 26.121C12.1079 26.1203 13.6062 25.841 14.9995 25.2775C16.2028 25.7643 17.6709 26.1208 19.3924 26.1208C20.3288 26.1208 20.3206 24.9324 19.393 24.9324C18.3184 24.9324 17.3542 24.7781 16.5033 24.5378C16.8465 24.3367 17.1537 24.1332 17.4231 23.9382C18.403 23.2291 19.4305 22.7503 20.3065 21.8749C21.1129 21.0691 21.7673 20.1237 22.233 19.0829C24.2115 19.5531 26.2639 20.4772 28.3505 21.8388C26.9064 22.7817 25.4798 23.5168 24.1001 24.0284C23.3851 24.2934 23.7957 25.4087 24.5131 25.1427C26.2169 24.5111 27.9795 23.5634 29.7521 22.3261C30.0818 22.0959 30.0836 21.583 29.7521 21.3517ZM14.9767 7.22949C16.3895 9.39289 17.3285 11.5064 17.7711 13.5218C18.553 17.0821 17.7157 21.0692 14.9767 23.6092C12.2377 21.0692 11.4005 17.0821 12.1823 13.5218C12.625 11.5063 13.5639 9.39289 14.9767 7.22949ZM8.35446 11.7871C9.32521 12.357 10.1947 12.9672 10.9513 13.6078C10.3454 16.7126 10.8501 19.9599 12.6101 22.6153C8.67253 20.4096 7.35815 16.0409 8.35446 11.7871ZM1.65049 21.8381C3.73717 20.4755 5.77583 19.5553 7.72703 19.0941C8.7026 21.2666 10.4842 22.9057 12.5989 23.9539C12.8706 24.1496 13.1775 24.3518 13.5184 24.5507C9.05936 25.8236 4.53168 23.709 1.65049 21.8381ZM17.3424 22.6167C19.103 19.9612 19.6081 16.7141 19.0025 13.609C19.7593 12.9679 20.6292 12.3573 21.6006 11.7871C22.5972 16.0428 21.2819 20.4112 17.3424 22.6167Z" fill="#159557"/>
<path d="M22.5782 25.1216C22.4554 24.8222 22.1007 24.676 21.8022 24.8002C21.5035 24.9244 21.3572 25.2766 21.4813 25.5756C21.6054 25.8744 21.9574 26.0213 22.2568 25.8971C22.5555 25.7731 22.7028 25.4209 22.5782 25.1216Z" fill="#159557"/>
</g>
<defs>
<clipPath id="clip0_2540_17730">
<rect width="30" height="30" fill="white" transform="translate(0 0.850586)"/>
</clipPath>
</defs>
</svg>
