<svg width="30" height="30" viewBox="0 0 30 30" fill="none" xmlns="http://www.w3.org/2000/svg">
<path d="M28.0022 18.6681L20.5022 10.465C20.4385 10.3949 20.3551 10.3458 20.2629 10.324C20.1707 10.3023 20.0741 10.309 19.9858 10.3433C19.8975 10.3775 19.8216 10.4377 19.7682 10.5159C19.7148 10.5941 19.6863 10.6867 19.6866 10.7814V14.5314H9.84282C9.7185 14.5314 9.59927 14.5808 9.51136 14.6687C9.42345 14.7566 9.37407 14.8758 9.37407 15.0001V18.0119L2.97798 11.0158L9.37407 4.01968V7.0314C9.37407 7.15572 9.42345 7.27495 9.51136 7.36285C9.59927 7.45076 9.7185 7.50015 9.84282 7.50015H22.9678C23.0921 7.50015 23.2114 7.45076 23.2993 7.36285C23.3872 7.27495 23.4366 7.15572 23.4366 7.0314C23.4366 6.90708 23.3872 6.78785 23.2993 6.69994C23.2114 6.61203 23.0921 6.56265 22.9678 6.56265H10.3116V2.81265C10.3118 2.71794 10.2833 2.62538 10.2299 2.54717C10.1765 2.46896 10.1007 2.40876 10.0124 2.37451C9.92406 2.34025 9.82745 2.33355 9.73527 2.35528C9.64309 2.37701 9.55965 2.42615 9.49594 2.49624L1.99594 10.6994C1.91689 10.7858 1.87305 10.8987 1.87305 11.0158C1.87305 11.1329 1.91689 11.2458 1.99594 11.3322L9.49594 19.5353C9.55965 19.6054 9.64309 19.6545 9.73527 19.6763C9.82745 19.698 9.92406 19.6913 10.0124 19.657C10.1007 19.6228 10.1765 19.5626 10.2299 19.4844C10.2833 19.4062 10.3118 19.3136 10.3116 19.2189V15.4689H20.1553C20.2796 15.4689 20.3989 15.4195 20.4868 15.3316C20.5747 15.2437 20.6241 15.1245 20.6241 15.0001V11.9884L27.0202 18.9845L20.6241 25.9806V22.9689C20.6241 22.8446 20.5747 22.7253 20.4868 22.6374C20.3989 22.5495 20.2796 22.5001 20.1553 22.5001H7.03032C6.906 22.5001 6.78677 22.5495 6.69886 22.6374C6.61096 22.7253 6.56157 22.8446 6.56157 22.9689C6.56157 23.0932 6.61096 23.2124 6.69886 23.3004C6.78677 23.3883 6.906 23.4376 7.03032 23.4376H19.6866V27.1876C19.6868 27.2821 19.7156 27.3742 19.7692 27.452C19.8227 27.5298 19.8985 27.5896 19.9866 27.6236C20.04 27.6459 20.0974 27.6571 20.1553 27.6564C20.2206 27.6565 20.2851 27.6431 20.3448 27.6168C20.4046 27.5906 20.4582 27.5522 20.5022 27.5041L28.0022 19.3009C28.0812 19.2145 28.1251 19.1016 28.1251 18.9845C28.1251 18.8674 28.0812 18.7545 28.0022 18.6681Z" fill="#159557"/>
</svg>
