<svg width="30" height="30" viewBox="0 0 30 30" fill="none" xmlns="http://www.w3.org/2000/svg">
<path d="M15 15.9375C11.0375 15.9375 7.8125 12.7125 7.8125 8.75C7.8125 4.7875 11.0375 1.5625 15 1.5625C18.9625 1.5625 22.1875 4.7875 22.1875 8.75C22.1875 12.7125 18.9625 15.9375 15 15.9375ZM15 3.4375C12.075 3.4375 9.6875 5.825 9.6875 8.75C9.6875 11.675 12.075 14.0625 15 14.0625C17.925 14.0625 20.3125 11.675 20.3125 8.75C20.3125 5.825 17.925 3.4375 15 3.4375Z" fill="#159557"/>
<path d="M25.7386 28.4375C25.2261 28.4375 24.8011 28.0125 24.8011 27.5C24.8011 23.1875 20.4012 19.6875 15.0012 19.6875C9.60116 19.6875 5.20117 23.1875 5.20117 27.5C5.20117 28.0125 4.77617 28.4375 4.26367 28.4375C3.75117 28.4375 3.32617 28.0125 3.32617 27.5C3.32617 22.1625 8.56366 17.8125 15.0012 17.8125C21.4387 17.8125 26.6761 22.1625 26.6761 27.5C26.6761 28.0125 26.2511 28.4375 25.7386 28.4375Z" fill="#159557"/>
</svg>
