<svg width="26" height="25" viewBox="0 0 26 25" fill="none" xmlns="http://www.w3.org/2000/svg">
<path d="M23.5166 12.5937V9.375C23.5166 8.82247 23.2971 8.29256 22.9064 7.90186C22.5157 7.51116 21.9858 7.29167 21.4332 7.29167H20.9124V4.04167C20.9113 3.72557 20.8478 3.41281 20.7253 3.1214C20.6028 2.83 20.4239 2.5657 20.1989 2.34375C19.6953 1.84572 19.0164 1.56519 18.3082 1.5625L5.53219 4.09896C4.71528 4.29545 3.98899 4.76279 3.47164 5.42484C2.9543 6.08688 2.6764 6.90461 2.68323 7.74479V18.7344C2.68483 19.313 2.8201 19.8833 3.07849 20.401C3.33688 20.9187 3.71139 21.3697 4.17281 21.7187C4.78585 22.1673 5.52784 22.4049 6.2874 22.3958H21.4332C21.9858 22.3958 22.5157 22.1763 22.9064 21.7856C23.2971 21.3949 23.5166 20.865 23.5166 20.3125V18.1354C23.8205 18.028 24.0838 17.8291 24.2702 17.5662C24.4567 17.3032 24.5573 16.989 24.5582 16.6667V14.0625C24.5573 13.7401 24.4567 13.4259 24.2702 13.163C24.0838 12.9 23.8205 12.7012 23.5166 12.5937ZM23.5166 16.6667C23.5166 16.8048 23.4617 16.9373 23.364 17.035C23.2663 17.1326 23.1339 17.1875 22.9957 17.1875H16.7457C16.6076 17.1875 16.4751 17.1326 16.3774 17.035C16.2798 16.9373 16.2249 16.8048 16.2249 16.6667V14.0625C16.2249 13.9244 16.2798 13.7919 16.3774 13.6942C16.4751 13.5965 16.6076 13.5417 16.7457 13.5417H22.9957C23.1339 13.5417 23.2663 13.5965 23.364 13.6942C23.4617 13.7919 23.5166 13.9244 23.5166 14.0625V16.6667ZM21.4332 21.3542H6.32906V17.7083C6.32906 17.5702 6.27419 17.4377 6.17651 17.34C6.07884 17.2424 5.94636 17.1875 5.80823 17.1875C5.67009 17.1875 5.53762 17.2424 5.43994 17.34C5.34227 17.4377 5.2874 17.5702 5.2874 17.7083V21.1354C5.1134 21.064 4.94895 20.9713 4.79781 20.8594C4.46547 20.6076 4.19574 20.2825 4.00964 19.9094C3.82354 19.5363 3.72609 19.1253 3.7249 18.7083V7.71875C3.72289 7.11912 3.92264 6.53625 4.29202 6.0639C4.6614 5.59155 5.17893 5.25718 5.76135 5.11458L18.1728 2.63542C18.2816 2.61989 18.3921 2.61989 18.5009 2.63542C18.8633 2.68169 19.2003 2.8465 19.4593 3.10417C19.5867 3.22526 19.6887 3.37053 19.7594 3.5315C19.83 3.69247 19.8679 3.8659 19.8707 4.04167V7.29167H7.05302C6.72426 7.29244 6.39867 7.2274 6.09543 7.10038C5.7922 6.97336 5.51746 6.78694 5.2874 6.55208C5.18716 6.46741 5.05866 6.4237 4.92759 6.42967C4.79652 6.43564 4.67253 6.49086 4.58041 6.5843C4.48829 6.67773 4.43484 6.80249 4.43072 6.93364C4.42661 7.06478 4.47215 7.19264 4.55823 7.29167C4.8851 7.62088 5.27372 7.88235 5.70182 8.0611C6.12993 8.23985 6.5891 8.33236 7.05302 8.33333H21.4332C21.7095 8.33333 21.9745 8.44308 22.1698 8.63843C22.3652 8.83378 22.4749 9.09873 22.4749 9.375V12.5H16.7457C16.3313 12.5 15.9339 12.6646 15.6409 12.9576C15.3478 13.2507 15.1832 13.6481 15.1832 14.0625V16.6667C15.1832 17.0811 15.3478 17.4785 15.6409 17.7715C15.9339 18.0645 16.3313 18.2292 16.7457 18.2292H22.4749V20.3125C22.4749 20.5888 22.3652 20.8537 22.1698 21.0491C21.9745 21.2444 21.7095 21.3542 21.4332 21.3542Z" fill="#159557"/>
<path d="M18.0479 16.1465C18.4793 16.1465 18.8291 15.7967 18.8291 15.3652C18.8291 14.9338 18.4793 14.584 18.0479 14.584C17.6164 14.584 17.2666 14.9338 17.2666 15.3652C17.2666 15.7967 17.6164 16.1465 18.0479 16.1465Z" fill="#159557"/>
<path d="M5.80843 12.5C5.6703 12.5 5.53782 12.5549 5.44015 12.6525C5.34247 12.7502 5.2876 12.8827 5.2876 13.0208V15.1042C5.2876 15.2423 5.34247 15.3748 5.44015 15.4725C5.53782 15.5701 5.6703 15.625 5.80843 15.625C5.94656 15.625 6.07904 15.5701 6.17672 15.4725C6.27439 15.3748 6.32926 15.2423 6.32926 15.1042V13.0208C6.32926 12.8827 6.27439 12.7502 6.17672 12.6525C6.07904 12.5549 5.94656 12.5 5.80843 12.5Z" fill="#159557"/>
</svg>
