<svg width="143" height="35" viewBox="0 0 143 35" fill="none" xmlns="http://www.w3.org/2000/svg">
<path d="M141.282 17.1285L139.995 17.4786C138.758 13.2774 136.687 11.4622 133.761 11.4622C131.706 11.4622 130.26 12.8162 130.26 14.9631C130.26 17.0182 131.965 18.114 136.545 19.9765C140.772 21.5309 142.527 23.4354 142.527 26.7614C142.527 31.8246 138.55 35 132.024 35C128.873 35 125.323 34.2981 123.317 33.4963L123.067 26.4612L124.304 26.2108C126.159 31.0247 128.531 32.8452 131.623 32.8452C134.297 32.8452 135.702 30.9896 135.702 29.0851C135.702 27.1806 134.617 26.0769 130.438 24.5733C126.461 23.2604 123.737 21.5651 123.737 17.3376C123.737 13.1767 127.396 9.6504 133.63 9.6504C136.571 9.6504 139.245 10.1519 141 10.9633L141.282 17.1285ZM114.359 19.3341C114.51 16.0257 113.841 11.2468 111.117 11.2468C108.316 11.2468 106.789 15.7088 106.739 19.5354L114.359 19.3341ZM111.786 9.64165C118.637 9.64165 121.939 14.655 121.996 21.2386H106.589C106.539 27.0703 109.63 31.4824 115.411 31.4824C117.934 31.4824 119.388 30.7805 120.925 29.6777L121.643 30.4794C119.939 32.7856 116.429 34.9912 111.75 34.9912C104.23 34.9912 99.0153 29.8273 99.0153 22.5418C98.9978 15.9574 103.278 9.64078 111.782 9.64078M89.56 21.8416C89.4095 16.6278 87.505 12.5002 83.8447 12.5002C82.9756 12.5002 82.3069 12.6507 81.2715 13.0017L81.5726 33.0386C81.9402 33.1891 82.8093 33.2889 83.4281 33.2889C86.9877 33.2889 89.5609 28.2589 89.5609 21.8408M97.1983 21.4399C97.1983 29.6785 91.9845 34.9921 83.1769 34.9921C80.026 34.9921 76.7763 34.4906 73.9519 33.8394C74.2022 30.531 74.2022 10.0329 73.9519 6.18183C73.7015 4.16877 73.1326 3.22351 71.5887 3.03096L70.5524 2.93031V2.0113L81.4212 0C81.3713 1.70409 81.2706 6.1827 81.2706 11.4481C83.176 10.4959 84.9291 9.94448 87.3037 9.94448C92.9691 9.94448 97.1965 14.7583 97.1965 21.4416M69.5074 16.9622C66.1482 14.7566 62.5387 15.7088 61.8202 16.9622C61.5024 20.8132 61.5698 26.7649 61.87 29.8133C62.0206 31.8264 62.5877 32.671 64.143 32.8215L66.1981 33.0228V34.3357H50.8403V33.0228L52.0271 32.8215C53.515 32.671 54.0401 31.8185 54.1329 29.8133C54.5005 26.5548 54.6012 19.72 54.1329 15.96C54.0323 13.8043 53.515 13.0017 52.0271 12.8091L50.8403 12.6586V11.7571L61.8193 9.65128L61.6687 15.2659C64.2419 9.45085 69.356 8.74891 72.1296 10.3033L69.5074 16.9622ZM33.4781 22.3431C33.4781 28.476 35.1411 33.4893 38.467 33.4893C42.0765 33.4893 43.1127 28.5766 43.1127 22.3431C43.1127 16.1097 41.5163 11.2468 38.123 11.2468C34.4969 11.2468 33.4781 16.0099 33.4781 22.3431ZM50.8901 22.2425C50.8901 29.2777 46.2444 34.993 37.9558 34.993C29.8012 34.993 25.6902 29.5621 25.6902 22.442C25.6902 15.4576 30.336 9.64165 38.6245 9.64165C46.7791 9.64165 50.8901 15.1067 50.8901 22.2425ZM29.5509 10.1528L27.8468 10.6543C26.4097 5.72495 23.8697 2.91718 19.4909 2.91718H13.7755C13.4578 6.19233 13.3073 11.2556 13.4578 16.7197L17.2678 16.5184C19.841 16.5184 20.9263 14.6629 21.5459 11.9567H22.9831V23.3523H21.5459C20.928 20.5953 19.8418 18.7135 17.2678 18.5735L13.4578 18.5236C13.4578 22.5847 13.5077 26.0507 13.7755 28.1661C14.0259 31.1743 14.8608 32.5441 17.0665 32.8285L19.139 33.0298V34.3427H0.473633V33.0298L2.02806 32.8285C4.18378 32.5274 5.06952 31.1656 5.31897 28.1661C5.73646 23.2534 5.83711 12.7584 5.31897 6.92665C5.06865 3.81955 4.1829 2.56533 2.02806 2.31414L0.473633 2.06382V0.708945H29.5019L29.5509 10.1528Z" fill="#5C6271"/>
</svg>
