<svg width="115" height="35" viewBox="0 0 115 35" fill="none" xmlns="http://www.w3.org/2000/svg">
<path d="M4.8319 11.3729C4.8319 12.7622 5.20541 12.8681 6.80766 12.9216V13.4021H0.615045V12.9216C1.89616 12.8681 2.26967 12.7075 2.26967 11.3729V2.40394C2.26967 1.01464 1.89616 0.908735 0.668567 0.855213V0.374654H11.5597L11.6133 3.25801H11.078C10.651 1.81633 10.1169 1.33577 7.55469 1.33577H5.52769C4.88656 1.33577 4.78065 1.44282 4.78065 2.01903V6.1835H7.02402C9.10569 6.1835 9.53273 5.80999 9.75707 4.47535H10.2376V9.12152H9.75707C9.49059 7.5728 8.6889 7.14576 7.02402 7.14576H4.78065V11.3638L4.8319 11.3729ZM17.7523 11.3729C17.7523 12.7622 18.1259 12.8681 19.7281 12.9216V13.4021H13.2144V12.9216C14.7631 12.8681 15.1901 12.7075 15.1901 11.3729V2.40394C15.1901 1.01464 14.8713 0.908735 13.2144 0.855213V0.374654H19.7281V0.855213C18.1794 0.908735 17.7523 1.0693 17.7523 2.40394V11.3729ZM33.235 2.72393C33.235 1.44282 32.9162 0.908736 31.4198 0.748169V0.26761H36.066V0.748169C34.6243 0.907597 34.2508 1.43143 34.2508 2.72393V13.6561H33.5675L24.5986 3.29901V10.8809C24.5986 12.162 24.9175 12.6961 26.4138 12.8567V13.3372H21.7676V12.8567C23.2093 12.6972 23.5828 12.1734 23.5828 10.8809V2.11241C23.1558 1.31186 22.6217 0.939482 21.7676 0.777777V0.297218H25.3434L33.1917 9.37319V2.70002L33.235 2.72393ZM40.2293 8.70246L42.2051 3.52334L44.1808 8.70246H40.2293ZM49.6241 13.401V12.9204C48.5993 12.9204 48.3966 12.5469 47.916 11.3193L43.2698 0H42.6287L37.8231 11.6917C37.5043 12.5458 37.0226 12.7599 36.222 12.9193V13.3999H40.44V12.9307C39.5324 12.9307 39.1054 12.7166 39.1054 12.0766C39.1054 11.5414 39.7465 10.0473 39.8524 9.68521H44.6045C44.7639 10.1122 45.405 11.6075 45.405 12.0766C45.405 12.7177 44.9245 12.9307 44.0157 12.9307V13.4113L49.6241 13.401ZM62.3966 2.72393C62.3966 1.44282 62.0777 0.908736 60.5814 0.748169V0.26761H65.2275V0.748169C63.7859 0.907597 63.4123 1.43143 63.4123 2.72393V13.6561H62.7291L53.7602 3.29901V10.8809C53.7602 12.162 54.079 12.6961 55.5753 12.8567V13.3372H50.9064V12.8567C52.3481 12.6972 52.7216 12.1734 52.7216 10.8809V2.11241C52.2946 1.31186 51.7605 0.939482 50.9064 0.777777V0.297218H54.4821L62.3305 9.37319L62.3966 2.72393ZM78.9998 10.3582C77.6105 12.7075 75.7964 13.7745 73.1272 13.7745C68.8568 13.7745 66.2946 10.9982 66.2946 6.78022C66.2946 3.79096 68.6438 0 73.2353 0C74.6246 0 76.5457 0.800552 76.8657 0.800552C77.2392 0.800552 77.3463 0.586465 77.7198 0H78.4031L78.6695 4.37742H78.1343C77.3338 2.34814 75.9991 0.854075 73.6931 0.854075C70.5957 0.854075 69.2519 4.21799 69.2519 6.7267C69.2519 10.25 70.7471 12.6528 74.0575 12.6528C76.6198 12.6528 78.0091 10.7306 78.5955 9.9198L78.9998 10.3582ZM85.2994 11.3831C85.2994 12.7724 85.673 12.8783 87.2752 12.9318V13.4124H80.7615V12.9318C82.3102 12.8783 82.7372 12.7177 82.7372 11.3831V2.41418C82.7372 1.02489 82.3637 0.918984 80.7615 0.865462V0.384902H87.2752V0.865462C85.7265 0.918984 85.2994 1.07955 85.2994 2.41418V11.3831ZM92.6673 8.71384L94.643 3.53473L96.6188 8.71384H92.6673ZM102.062 13.4124V12.9318C101.037 12.9318 100.834 12.5583 100.354 11.3307L95.7078 0.0113868H95.0666L90.261 11.7031C89.9422 12.5572 89.4605 12.7713 88.6599 12.9307V13.4113H92.8779V12.9307C91.9703 12.9307 91.5433 12.7166 91.5433 12.0766C91.5433 11.5414 92.1844 10.0473 92.2903 9.68521H97.0424C97.2018 10.1122 97.843 11.6075 97.843 12.0766C97.843 12.7177 97.3624 12.9307 96.4537 12.9307V13.4113L102.062 13.4124ZM103.235 13.4124V12.9318C104.463 12.8783 104.836 12.7177 104.836 11.3831V2.41418C104.836 1.02489 104.463 0.918984 103.235 0.865462V0.384902H109.268V0.865462C107.827 0.918984 107.453 1.07955 107.453 2.41418V11.6382C107.453 12.4388 107.667 12.7064 109.108 12.7064C111.457 12.7064 112.845 12.2793 113.966 9.97332H114.438L113.531 13.4967H103.12V13.3896L103.235 13.4124ZM3.39933 34.138C4.89453 34.0844 5.26691 33.9239 5.26691 32.5892V22.4998H3.65897C2.16377 22.4998 1.52378 23.1409 1.09674 24.8912H0.561523L0.880378 21.5272H12.4127L12.7315 24.8912H12.1963C11.7693 23.076 11.1714 22.4998 9.63408 22.4998H8.03183V32.5892C8.03183 33.9785 8.40535 34.0844 9.89941 34.138V34.6185H3.60203V34.138H3.39933ZM18.562 32.5892C18.562 33.9785 18.9355 34.0844 20.5378 34.138V34.6185H14.024V34.138C15.5727 34.0844 15.9998 33.9239 15.9998 32.5892V23.6203C15.9998 22.231 15.6263 22.1251 14.024 22.0716V21.591H20.5378V22.0716C18.989 22.1251 18.562 22.2857 18.562 23.6203V32.5892ZM34.3112 21.484H38.8491V21.9645C37.6216 22.0181 37.248 22.1786 37.248 23.5133V32.5357C37.248 33.925 37.6216 34.0309 38.8491 34.0844V34.565H32.9025V34.0844C34.1836 34.0309 34.5571 33.8703 34.5571 32.5357V23.3117H34.5036L30.1262 34.7905H29.4862L25.1623 23.3117H25.1088V32.1736C25.1088 33.4547 25.4276 33.9888 26.924 34.1493V34.6299H22.2778V34.1493C23.7195 33.9899 24.093 33.4661 24.093 32.1736V23.2047C24.093 22.2971 23.7195 21.9771 22.2778 21.9771V21.4965H27.0299L30.5111 30.5816L34.3112 21.484ZM40.6655 34.6174V34.1368C41.8931 34.0833 42.2666 33.9227 42.2666 32.5881V23.6192C42.2666 22.2299 41.8931 22.124 40.6655 22.0704V21.5899H51.5976L51.6512 24.4732H51.1159C50.6889 23.0316 50.1548 22.551 47.5926 22.551H45.5633C44.9222 22.551 44.8163 22.658 44.8163 23.2343V27.3987H47.0597C49.1413 27.3987 49.5683 27.0252 49.7927 25.6906H50.2732V30.3368H49.7927C49.5262 28.788 48.7245 28.4145 47.0597 28.4145H44.8163V32.9525C44.8163 33.7531 45.0304 34.0207 47.3785 34.0207C49.7266 34.0207 51.1159 33.5936 52.2365 31.2876H52.717L51.8094 34.811H40.555V34.5969L40.6655 34.6174ZM54.5584 30.5178H55.039C55.5742 32.226 57.2824 34.0935 59.2035 34.0935C60.8581 34.0935 61.4468 32.9206 61.4468 31.9048C61.4468 28.862 54.6142 28.3291 54.6142 24.5905C54.6142 22.7753 56.3224 21.2266 58.3517 21.2266C60.3274 21.2266 61.0209 21.9099 61.875 21.9099C62.2485 21.9099 62.5161 21.6434 62.5583 21.2266H63.0388V25.4446H62.5583C62.023 23.5224 60.636 22.1342 58.8744 22.1342C57.4327 22.1342 56.8451 23.0953 56.8451 24.0018C56.8451 26.6711 63.6777 26.7348 63.6777 31.3696C63.6777 33.4513 62.023 35 59.6202 35C57.3245 35 56.7369 34.1994 55.8282 34.1994C55.5093 34.1994 55.2929 34.4135 55.1449 34.8827H54.4616L54.5584 30.5178Z" fill="#5C6271"/>
</svg>
