<svg width="123" height="35" viewBox="0 0 123 35" fill="none" xmlns="http://www.w3.org/2000/svg">
<path d="M66.6196 22.6831C66.6168 23.5161 66.3605 24.3548 65.6158 25.0069C64.8711 25.6591 63.5867 26.1574 61.4579 26.1574H57.1862V19.2799H61.2814C63.1923 19.2799 64.5478 19.6686 65.4107 20.2724C65.8034 20.5367 66.1228 20.8961 66.3391 21.3172C66.5555 21.7382 66.6618 22.2071 66.6481 22.6802M63.1624 14.45C63.9598 13.8761 64.3442 13.0616 64.3499 11.8413C64.3471 11.0041 64.1078 10.2864 63.5041 9.75102C62.9004 9.21562 61.8737 8.83401 60.2177 8.83401H57.1847V15.3499H59.2637C61.0649 15.3499 62.3564 15.0295 63.1595 14.45M71.2445 23.1857C71.2559 20.0075 69.14 17.5926 65.7525 16.6642C66.6681 16.1971 67.39 15.6247 67.9197 14.9298C68.626 13.9957 68.9663 12.8509 68.9591 11.5167C68.9633 10.6567 68.7849 9.80569 68.4359 9.01975C68.0869 8.23381 67.5751 7.53085 66.9343 6.95728C65.5489 5.70708 63.4457 4.89829 60.5794 4.89972H52.6581V30.1031H61.9563C65.274 30.1031 67.6007 29.2032 69.1001 27.8704C69.7704 27.2897 70.3085 26.5721 70.6781 25.766C71.0478 24.9599 71.2404 24.0839 71.2431 23.1971M80.0714 34.9843H42.9071V0H80.0714V34.9843ZM20.3237 14.4514C21.1211 13.8775 21.5055 13.0631 21.5126 11.8428C21.5112 11.0055 21.2706 10.2878 20.6668 9.75244C20.0631 9.21705 19.035 8.83544 17.3918 8.83544H14.3617V15.3499H16.4406C18.2405 15.3499 19.5305 15.0295 20.3351 14.45M22.5592 20.288C21.7106 19.6843 20.3521 19.2956 18.4298 19.2956H14.3617V26.1717H18.6335C20.7637 26.1717 22.0466 25.6733 22.7913 25.0212C23.536 24.369 23.7938 23.5303 23.7952 22.6973C23.8084 22.2243 23.7018 21.7556 23.4852 21.3348C23.2686 20.9141 22.9491 20.5549 22.5564 20.2909M28.4372 23.2014C28.4486 20.0232 26.3298 17.6082 22.9465 16.6798C23.8578 16.2128 24.5812 15.6404 25.1109 14.9455C25.8228 14.0114 26.1575 12.8666 26.1546 11.5323C26.1577 10.6724 25.9787 9.8216 25.6295 9.03579C25.2802 8.24997 24.7687 7.54696 24.1284 6.97295C22.7443 5.72274 20.6426 4.91396 17.7748 4.91538H9.85214V30.1188H19.1503C22.4681 30.1188 24.7948 29.2189 26.2942 27.8861C27.7936 26.5533 28.4414 24.8175 28.4386 23.2128M37.2669 35H0.102539V0H37.2669V35ZM115.517 23.3666L114.919 23.7311C112.043 25.4882 108.91 26.4308 106.068 26.4294C99.9807 26.4052 95.9581 22.7984 95.9581 17.5513C95.9653 12.4152 100.15 8.61473 105.926 8.60191C108.862 8.60334 111.522 9.36229 114.68 11.0938L115.261 11.4127V6.70667L115.012 6.607C111.449 5.20159 108.689 4.57506 105.965 4.57649C101.751 4.57506 98.0954 5.96624 95.4911 8.3271C92.8867 10.688 91.3404 14.0228 91.3432 17.8674C91.3446 20.5358 92.4439 23.6627 94.8033 26.1261C97.1528 28.608 100.774 30.4164 105.739 30.415H105.756C109.874 30.415 112.729 29.498 115.296 28.225L115.516 28.1182L115.517 23.3666ZM122.897 34.9915H85.733V0H122.897V34.9915Z" fill="#8A929C"/>
</svg>
