<svg width="30" height="30" viewBox="0 0 30 30" fill="none" xmlns="http://www.w3.org/2000/svg">
<g clip-path="url(#clip0_2540_31230)">
<path d="M9.77977 14.5439C11.0772 14.5439 12.1327 13.4883 12.1327 12.1909C12.1327 10.8935 11.0771 9.83789 9.77977 9.83789C8.48227 9.83789 7.42676 10.8935 7.42676 12.1909C7.42676 13.4883 8.48227 14.5439 9.77977 14.5439ZM9.77977 10.7168C10.5926 10.7168 11.2538 11.3781 11.2538 12.1909C11.2538 13.0037 10.5926 13.665 9.77977 13.665C8.96695 13.665 8.30566 13.0037 8.30566 12.1909C8.30566 11.3781 8.96695 10.7168 9.77977 10.7168Z" fill="#16BE6E"/>
<path d="M14.9599 12.0809C16.2258 12.0809 17.2558 11.051 17.2558 9.78508C17.2558 8.51916 16.2259 7.48926 14.9599 7.48926C13.694 7.48926 12.6641 8.51916 12.6641 9.78508C12.6641 11.051 13.694 12.0809 14.9599 12.0809ZM14.9599 8.36816C15.7412 8.36816 16.3769 9.00379 16.3769 9.78508C16.3769 10.5664 15.7412 11.202 14.9599 11.202C14.1787 11.202 13.543 10.5664 13.543 9.78508C13.543 9.00379 14.1787 8.36816 14.9599 8.36816Z" fill="#16BE6E"/>
<path d="M10.7236 25.6922C11.9895 25.6922 13.0194 24.6623 13.0194 23.3964C13.0194 22.1305 11.9895 21.1006 10.7236 21.1006C9.4577 21.1006 8.42773 22.1305 8.42773 23.3964C8.42773 24.6623 9.4577 25.6922 10.7236 25.6922ZM10.7236 21.9796C11.5049 21.9796 12.1405 22.6152 12.1405 23.3965C12.1405 24.1778 11.5049 24.8134 10.7236 24.8134C9.94232 24.8134 9.30664 24.1778 9.30664 23.3965C9.30664 22.6152 9.94232 21.9796 10.7236 21.9796Z" fill="#16BE6E"/>
<path d="M16.1299 27.4266C17.3957 27.4266 18.4257 26.3967 18.4257 25.1308C18.4257 23.8649 17.3958 22.835 16.1299 22.835C14.8639 22.835 13.834 23.8649 13.834 25.1308C13.834 26.3967 14.8639 27.4266 16.1299 27.4266ZM16.1299 23.7139C16.9112 23.7139 17.5468 24.3495 17.5468 25.1308C17.5468 25.9121 16.9112 26.5477 16.1299 26.5477C15.3486 26.5477 14.7129 25.9121 14.7129 25.1308C14.7129 24.3495 15.3486 23.7139 16.1299 23.7139Z" fill="#16BE6E"/>
<path d="M4.97754 17.9839C4.97754 19.4612 6.1794 20.663 7.65671 20.663C9.13401 20.663 10.3359 19.4612 10.3359 17.9839C10.3359 16.5065 9.13401 15.3047 7.65671 15.3047C6.1794 15.3047 4.97754 16.5065 4.97754 17.9839ZM7.65671 16.1836C8.64933 16.1836 9.45698 16.9912 9.45698 17.9839C9.45698 18.9765 8.64939 19.7841 7.65671 19.7841C6.66402 19.7841 5.85643 18.9765 5.85643 17.9839C5.85643 16.9912 6.66402 16.1836 7.65671 16.1836Z" fill="#16BE6E"/>
<path d="M2.70312 17.523C2.70312 24.1522 8.41402 29.1911 15.0782 29.5971C15.0872 29.5976 15.0963 29.5979 15.1053 29.5979C15.3358 29.5979 15.5293 29.4183 15.5435 29.1852C15.5583 28.9429 15.3738 28.7346 15.1316 28.7198C8.65518 28.3253 3.58202 23.4071 3.58202 17.523C3.58202 10.8564 9.92958 5.71232 17.1833 6.36938C17.5133 6.71326 17.9194 6.98888 18.3443 7.19062C18.3094 7.35122 18.3155 7.52255 18.3577 7.67741L19.2275 10.8764C19.025 11.1131 18.9546 11.4353 19.0354 11.7319L19.2424 12.4935C19.3683 12.9574 19.8319 13.2541 20.3057 13.172L20.7162 14.9496C19.2318 15.6259 18.4201 16.5314 18.4201 17.5231C18.4201 18.5183 19.2496 19.4389 20.7559 20.1152C21.2916 20.3557 21.7551 20.6852 22.1353 21.0956C22.6187 23.2176 22.7674 23.8909 23.1217 24.9576C22.7937 26.3883 21.813 27.4851 20.4155 27.9772C19.3492 28.3527 18.2394 28.5932 17.1171 28.6921C16.8753 28.7134 16.6966 28.9267 16.7179 29.1684C16.7392 29.4102 16.9532 29.5886 17.1942 29.5676C18.3897 29.4622 19.5718 29.2061 20.7074 28.8062C22.0001 28.351 23.0208 27.4287 23.5964 26.2395C24.1841 27.6814 24.7198 28.5724 25.2177 29.4408C25.4695 29.88 25.9865 30.0939 26.4751 29.9611C26.9636 29.8283 27.3011 29.382 27.2959 28.8758C27.2808 27.4037 27.3196 25.1908 26.2853 21.8937C26.2127 21.6622 25.9662 21.5333 25.7345 21.606C25.5029 21.6786 25.3741 21.9252 25.4467 22.1568C26.4176 25.2515 26.4009 27.3046 26.4171 28.8848C26.4183 28.9912 26.3473 29.085 26.2446 29.113C26.142 29.1409 26.0332 29.0959 25.9802 29.0036C24.1313 25.7791 23.8983 24.8227 22.9662 20.787C22.9662 20.787 21.1554 12.9453 21.1554 12.9452L22.4468 12.5941L23.1012 14.6803L24.8327 20.1993C24.9053 20.4309 25.1518 20.5597 25.3835 20.4871C25.6151 20.4144 25.7439 20.1678 25.6713 19.9363L24.0687 14.8279C26.4899 13.8469 27.1672 10.5951 25.0943 8.78499C24.2449 8.04326 23.2927 7.41058 22.2636 6.89924L22.1917 6.63486C22.1478 6.47326 22.0667 6.32836 21.9562 6.20877C22.3998 5.55376 22.8424 4.54069 22.5201 3.35512C22.2107 2.21718 21.45 1.77814 20.6447 1.31338C20.1562 1.03149 19.6512 0.739992 19.1639 0.255017C18.6904 -0.216013 17.9083 -0.00443308 17.7383 0.642551C17.5637 1.30752 17.2757 1.81465 16.9973 2.30507C16.533 3.12262 15.9677 4.07405 16.5665 5.44847C9.10676 5.12732 2.70312 10.538 2.70312 17.523ZM21.8106 19.6896C21.5915 19.5491 21.3602 19.423 21.1159 19.3134C19.9612 18.7949 19.2989 18.1424 19.2989 17.523C19.2989 16.9335 19.8824 16.3278 20.9183 15.8253L21.8106 19.6896ZM24.5161 9.4471C26.0719 10.8056 25.5701 13.2286 23.8049 13.9874C23.351 12.5406 23.4741 12.9329 23.2941 12.3593C23.7538 12.1834 23.991 11.6908 23.8674 11.236L23.6604 10.4744C23.5792 10.1762 23.3541 9.93477 23.0615 9.83393L22.5804 8.06424C23.2732 8.46484 23.9215 8.92778 24.5161 9.4471ZM22.7399 10.6635L22.7401 10.6635C22.7683 10.6559 22.8031 10.6713 22.8122 10.705L23.0192 11.4665C23.0278 11.4979 23.0091 11.5304 22.9778 11.5389C22.3897 11.6988 20.6989 12.1584 20.1628 12.3042C20.1321 12.3128 20.0992 12.2947 20.0904 12.2628L19.8834 11.5012C19.8743 11.4676 19.8974 11.4363 19.9249 11.4288L22.7399 10.6635ZM22.1707 9.90752L20.0329 10.4887L19.2059 7.44673C19.1845 7.36851 19.2335 7.287 19.3091 7.26638L21.1633 6.76224C21.2353 6.7425 21.3209 6.78181 21.3436 6.86549C21.6156 7.86596 21.4248 7.16425 22.1707 9.90752ZM17.7615 2.73919C18.0476 2.23552 18.3709 1.66605 18.5767 0.910497C19.1348 1.45688 19.703 1.78476 20.2054 2.07474C20.9324 2.49433 21.4577 2.79743 21.672 3.58586C21.934 4.54924 21.483 5.38923 21.1094 5.88241C21.0528 5.88751 20.9866 5.89958 20.9327 5.91423L19.0784 6.41836C19.0219 6.43371 18.9571 6.45815 18.9101 6.48035C18.1327 6.16131 17.4842 5.60263 17.2619 4.78491C17.0476 3.99648 17.3471 3.46908 17.7615 2.73919Z" fill="#16BE6E"/>
</g>
<defs>
<clipPath id="clip0_2540_31230">
<rect width="30" height="30" fill="white"/>
</clipPath>
</defs>
</svg>
