<svg width="30" height="30" viewBox="0 0 30 30" fill="none" xmlns="http://www.w3.org/2000/svg">
<path d="M27.8574 17.1426V19.2854C27.8574 21.6426 25.9288 23.5712 23.5716 23.5712H5.78592L8.25021 26.0354C8.67878 26.464 8.67878 27.1069 8.25021 27.5354C7.82164 27.964 7.17878 27.964 6.75021 27.5354L2.4645 23.2497C2.03592 22.8212 2.03592 22.1783 2.4645 21.7497L6.75021 17.464C7.17878 17.0354 7.82164 17.0354 8.25021 17.464C8.67878 17.8926 8.67878 18.5354 8.25021 18.964L5.78592 21.4283H23.5716C24.7502 21.4283 25.7145 20.464 25.7145 19.2854V17.1426C25.7145 16.4997 26.1431 16.0712 26.7859 16.0712C27.4288 16.0712 27.8574 16.4997 27.8574 17.1426ZM3.2145 13.9283C3.85735 13.9283 4.28592 13.4997 4.28592 12.8569V10.714C4.28592 9.53544 5.25021 8.57115 6.42878 8.57115H24.2145L21.7502 11.0354C21.3216 11.464 21.3216 12.1069 21.7502 12.5354C22.1788 12.964 22.8216 12.964 23.2502 12.5354L27.5359 8.24972C27.9645 7.82115 27.9645 7.17829 27.5359 6.74972L23.2502 2.46401C22.8216 2.03544 22.1788 2.03544 21.7502 2.46401C21.3216 2.89258 21.3216 3.53544 21.7502 3.96401L24.2145 6.42829H6.42878C4.07164 6.42829 2.14307 8.35686 2.14307 10.714V12.8569C2.14307 13.4997 2.57164 13.9283 3.2145 13.9283Z" fill="#16BE6E"/>
</svg>
