<svg width="31" height="30" viewBox="0 0 31 30" fill="none" xmlns="http://www.w3.org/2000/svg">
<g clip-path="url(#clip0_2540_28217)">
<path d="M18.9986 7.93932C19.0286 8.18582 19.2491 8.33957 19.4881 8.32247L20.7038 8.17498C20.9447 8.14575 21.1163 7.92678 21.0871 7.68579C21.0578 7.44479 20.8383 7.27381 20.5979 7.30247L20.4358 7.32209L21.4395 6.0427C21.5893 5.85174 21.5558 5.57547 21.3649 5.42571C21.174 5.27594 20.8977 5.30934 20.7479 5.50024L19.7432 6.7811L19.7234 6.61838C19.6941 6.3775 19.4756 6.20623 19.2341 6.23518C18.9932 6.26448 18.8216 6.4835 18.8509 6.7245L18.9986 7.93932Z" fill="#16BE6E"/>
<path d="M12.0015 24.5373C11.9735 24.3059 11.7479 24.1169 11.5118 24.1541L10.2963 24.3015C10.0554 24.3307 9.8837 24.5497 9.91294 24.7907C9.93995 25.0136 10.1295 25.1773 10.3486 25.1773C10.3663 25.1773 10.3842 25.1762 10.4021 25.174L10.5642 25.1544L9.5605 26.4338C9.41067 26.6247 9.44413 26.901 9.63503 27.0508C9.71548 27.1139 9.81104 27.1445 9.90597 27.1445C10.0363 27.1445 10.1654 27.0867 10.252 26.9762L11.2568 25.6954L11.2765 25.8581C11.3037 26.0811 11.4932 26.2446 11.7122 26.2446C11.7299 26.2446 11.7478 26.2435 11.7658 26.2413C12.0067 26.2121 12.1784 25.993 12.1491 25.752L12.0015 24.5373Z" fill="#16BE6E"/>
<path d="M20.4358 25.154L20.5979 25.1737C20.6159 25.1758 20.6337 25.1769 20.6514 25.1769C20.8704 25.1769 21.0601 25.0133 21.0871 24.7903C21.1163 24.5494 20.9446 24.3303 20.7038 24.3011L19.4882 24.1538C19.2518 24.1183 19.0269 24.3042 18.9986 24.5369L18.8509 25.7517C18.8216 25.9926 18.9932 26.2117 19.2341 26.241C19.2522 26.2432 19.27 26.2443 19.2877 26.2443C19.5067 26.2443 19.6963 26.0807 19.7234 25.8578L19.7432 25.6951L20.7479 26.9759C20.8347 27.0864 20.9637 27.1441 21.094 27.1441C21.1889 27.1441 21.2845 27.1135 21.3649 27.0504C21.5559 26.9006 21.5893 26.6244 21.4395 26.4334L20.4358 25.154Z" fill="#16BE6E"/>
<path d="M29.2207 24.6273C29.4781 24.2102 29.627 23.7195 29.627 23.1945C29.627 21.6829 28.3962 20.4531 26.8833 20.4531C25.3713 20.4531 24.1412 21.6829 24.1412 23.1945C24.1412 23.7195 24.29 24.2103 24.5472 24.6275C23.7567 25.1606 23.2686 26.0541 23.2686 27.0279V28.4697C23.2686 29.0712 23.7582 29.5605 24.36 29.5605H29.4081C30.0099 29.5605 30.4996 29.0712 30.4996 28.4697V27.0279C30.4996 26.054 30.0113 25.1605 29.2207 24.6273ZM26.8832 21.332C27.9115 21.332 28.748 22.1676 28.748 23.1945C28.748 24.2207 27.9115 25.0555 26.8832 25.0555C25.8559 25.0555 25.02 24.2207 25.02 23.1945C25.02 22.1676 25.8559 21.332 26.8832 21.332ZM29.6206 28.4698C29.6206 28.5846 29.5233 28.6817 29.4081 28.6817H24.36C24.2428 28.6817 24.1475 28.5866 24.1475 28.4698V27.028C24.1475 26.3138 24.5254 25.6619 25.1296 25.2989C25.6053 25.6954 26.2168 25.9345 26.8832 25.9345C27.5502 25.9345 28.1621 25.6953 28.6381 25.2988C29.2425 25.6616 29.6206 26.3137 29.6206 27.0279V28.4698Z" fill="#16BE6E"/>
<path d="M10.5642 7.32202L10.4021 7.30239C10.1615 7.27368 9.94214 7.44478 9.9129 7.68571C9.88366 7.92665 10.0553 8.14568 10.2962 8.17491L11.5119 8.32239C11.7505 8.34073 11.9715 8.18487 12.0014 7.93925L12.1491 6.72448C12.1784 6.48355 12.0067 6.26446 11.7659 6.23517C11.5251 6.20616 11.3058 6.37743 11.2766 6.61837L11.2568 6.78108L10.252 5.50023C10.1023 5.30921 9.826 5.27605 9.63505 5.42569C9.44409 5.57552 9.41069 5.85173 9.56052 6.04269L10.5642 7.32202Z" fill="#16BE6E"/>
<path d="M6.45184 4.6125C6.70941 4.19525 6.85842 3.7043 6.85842 3.17918C6.85842 1.66852 5.6276 0.439453 4.11465 0.439453C2.60264 0.439453 1.37258 1.66852 1.37258 3.17924C1.37258 3.70441 1.52152 4.19537 1.77898 4.61268C0.988262 5.14699 0.5 6.04096 0.5 7.01426V8.45443C0.5 9.0559 0.988906 9.54521 1.58979 9.54521H6.63963C7.24145 9.54521 7.73105 9.05584 7.73105 8.45443V7.01426C7.731 6.0409 7.24268 5.14687 6.45184 4.6125ZM4.11465 1.31836C5.14291 1.31836 5.97945 2.15314 5.97945 3.17924C5.97945 4.20539 5.14291 5.04018 4.11465 5.04018C3.08732 5.04018 2.25148 4.20539 2.25148 3.17924C2.25154 2.15314 3.08732 1.31836 4.11465 1.31836ZM6.85209 8.45443C6.85209 8.56928 6.75477 8.66631 6.63957 8.66631H1.58979C1.47553 8.66631 1.37891 8.56928 1.37891 8.45443V7.01426C1.37891 6.30059 1.75707 5.64809 2.36141 5.28393C2.83707 5.6802 3.44844 5.91908 4.11471 5.91908C4.7815 5.91908 5.39334 5.68014 5.8693 5.28369C6.47381 5.64785 6.85215 6.30047 6.85215 7.01426V8.45443H6.85209Z" fill="#16BE6E"/>
<path d="M6.45219 24.6273C6.70953 24.2102 6.85842 23.7195 6.85842 23.1945C6.85842 21.6829 5.6276 20.4531 4.11471 20.4531C2.6027 20.4531 1.37264 21.6829 1.37264 23.1945C1.37264 23.7195 1.52141 24.2103 1.77869 24.6275C0.988145 25.1606 0.5 26.0541 0.5 27.0279V28.4697C0.5 29.0712 0.988906 29.5606 1.58979 29.5606H3.19397C3.43672 29.5606 3.63342 29.3639 3.63342 29.1211C3.63342 28.8784 3.43672 28.6817 3.19397 28.6817H1.58979C1.47553 28.6817 1.37891 28.5846 1.37891 28.4698V27.028C1.37891 26.3138 1.75689 25.6619 2.361 25.2989C2.83672 25.6954 3.4482 25.9345 4.11465 25.9345C4.78162 25.9345 5.39357 25.6953 5.86959 25.2988C6.47393 25.6616 6.85203 26.3137 6.85203 27.028V28.4698C6.85203 28.5846 6.75471 28.6817 6.63951 28.6817H5.10506C4.86231 28.6817 4.66561 28.8784 4.66561 29.1211C4.66561 29.3639 4.86231 29.5606 5.10506 29.5606H6.63957C7.24139 29.5606 7.731 29.0712 7.731 28.4698V27.028C7.731 26.054 7.24279 25.1605 6.45219 24.6273ZM4.11465 25.0555C3.08732 25.0555 2.25148 24.2207 2.25148 23.1945C2.25148 22.1676 3.08732 21.332 4.11465 21.332C5.14291 21.332 5.97945 22.1676 5.97945 23.1945C5.97951 24.2207 5.14291 25.0555 4.11465 25.0555Z" fill="#16BE6E"/>
<path d="M15.2895 9.35449C11.4897 9.35449 8.39844 12.443 8.39844 16.2392C8.39844 20.0346 11.4898 23.1223 15.2895 23.1223C19.0883 23.1223 22.1789 20.0346 22.1789 16.2392C22.1789 12.443 19.0883 9.35449 15.2895 9.35449ZM15.2895 22.2434C11.9744 22.2434 9.27734 19.5499 9.27734 16.2391C9.27734 12.9275 11.9744 10.2333 15.2895 10.2333C18.6037 10.2333 21.3 12.9275 21.3 16.2391C21.3 19.5499 18.6037 22.2434 15.2895 22.2434Z" fill="#16BE6E"/>
<path d="M16.1356 15.7852C15.9732 15.7279 15.8241 15.6734 15.6855 15.6208V13.279C16.0826 13.3616 16.32 13.5646 16.3392 13.5816C16.5177 13.7437 16.7937 13.7318 16.9575 13.5544C17.1222 13.3761 17.111 13.0981 16.9327 12.9334C16.9056 12.9083 16.4424 12.4912 15.6855 12.388V11.8906C15.6855 11.6479 15.4888 11.4512 15.2461 11.4512C15.0033 11.4512 14.8066 11.6479 14.8066 11.8906V12.4215C14.7263 12.4383 14.6443 12.4588 14.5604 12.4841C13.8887 12.6862 13.3868 13.2612 13.2507 13.9845C13.1269 14.6424 13.337 15.2757 13.798 15.6366C14.0749 15.8547 14.4251 16.0428 14.8066 16.2116V19.1516C14.4053 19.128 14.1412 19.0399 13.697 18.7488C13.4939 18.6158 13.2215 18.6726 13.0885 18.8756C12.9555 19.0786 13.0122 19.351 13.2153 19.484C13.8341 19.8895 14.2536 20.0039 14.8066 20.0309V20.5865C14.8066 20.8293 15.0033 21.026 15.2461 21.026C15.4888 21.026 15.6855 20.8293 15.6855 20.5865V19.9975C16.7626 19.8013 17.3913 18.9204 17.5293 18.0979C17.7045 17.0535 17.1574 16.1458 16.1356 15.7852ZM14.8066 15.239C14.6179 15.1405 14.4667 15.0445 14.3409 14.9454C14.1384 14.7869 14.0516 14.481 14.1144 14.1471C14.173 13.8359 14.3857 13.4586 14.8066 13.3282V15.239ZM16.6625 17.9524C16.5843 18.419 16.2519 18.9159 15.6855 19.0923V16.5579C15.7381 16.5767 15.7906 16.5955 15.8431 16.614C16.7577 16.9367 16.7015 17.72 16.6625 17.9524Z" fill="#16BE6E"/>
<path d="M29.2213 4.61256C29.4789 4.19531 29.6279 3.70436 29.6279 3.17924C29.6279 1.66852 28.3971 0.439453 26.8842 0.439453C25.3722 0.439453 24.1421 1.66852 24.1421 3.17924C24.1421 3.70441 24.2911 4.19537 24.5485 4.61268C23.7577 5.14699 23.2695 6.04102 23.2695 7.01426V8.45443C23.2695 9.0559 23.7591 9.54522 24.361 9.54522H25.9635C26.2062 9.54522 26.4029 9.34852 26.4029 9.10576C26.4029 8.86301 26.2062 8.66631 25.9635 8.66631H24.361C24.2458 8.66631 24.1484 8.56928 24.1484 8.45443V7.01432C24.1484 6.30064 24.5266 5.64814 25.1309 5.28398C25.6066 5.68025 26.218 5.91914 26.8842 5.91914C27.551 5.91914 28.1629 5.6802 28.6388 5.28375C29.2432 5.64791 29.6216 6.30053 29.6216 7.01432V8.45449C29.6216 8.56934 29.5242 8.66637 29.409 8.66637H27.8745C27.6318 8.66637 27.4351 8.86307 27.4351 9.10582C27.4351 9.34857 27.6318 9.54527 27.8745 9.54527H29.409C30.0109 9.54527 30.5005 9.0559 30.5005 8.45449V7.01432C30.5005 6.04096 30.0121 5.14693 29.2213 4.61256ZM26.8841 5.04023C25.8568 5.04023 25.021 4.20545 25.021 3.1793C25.021 2.1532 25.8568 1.31842 26.8841 1.31842C27.9124 1.31842 28.7489 2.1532 28.7489 3.1793C28.7489 4.20539 27.9124 5.04023 26.8841 5.04023Z" fill="#16BE6E"/>
</g>
<defs>
<clipPath id="clip0_2540_28217">
<rect width="30" height="30" fill="white" transform="translate(0.5)"/>
</clipPath>
</defs>
</svg>
