<svg width="35" height="35" viewBox="0 0 35 35" fill="none" xmlns="http://www.w3.org/2000/svg">
<g clip-path="url(#clip0_2540_28102)">
<path d="M34.2563 17.3448L24.3396 13.4884C24.2285 13.4474 24.1119 13.4232 23.9937 13.4167L28.8266 8.58376C29.0446 8.36507 29.167 8.06888 29.167 7.76009C29.167 7.4513 29.0446 7.15511 28.8266 6.93642L22.2285 0.33134C22.0098 0.113514 21.7138 -0.00878906 21.4051 -0.00878906C21.0965 -0.00878906 20.8004 0.113514 20.5818 0.33134L17.689 3.22467L17.3676 2.95167C17.0197 2.63882 16.5894 2.43213 16.1278 2.35605C15.6661 2.27997 15.1923 2.33767 14.7624 2.52234C12.5938 3.32178 10.3233 3.81116 8.01792 3.97601C7.8899 3.65723 7.66847 3.38463 7.38269 3.19401C7.09691 3.00338 6.76016 2.90366 6.41667 2.90792H1.16667C0.857247 2.90792 0.560501 3.03084 0.341709 3.24963C0.122916 3.46842 0 3.76517 0 4.07459L0 12.8246C0 13.134 0.122916 13.4308 0.341709 13.6495C0.560501 13.8683 0.857247 13.9913 1.16667 13.9913H5.52183C5.90941 13.9906 6.2858 13.8613 6.59196 13.6237C6.89813 13.386 7.11674 13.0535 7.2135 12.6782C7.45208 12.8532 7.68367 13.0171 7.92808 13.1688C7.8598 13.3732 7.84948 13.5926 7.89829 13.8025C7.9471 14.0125 8.05312 14.2048 8.20458 14.3582L12.8333 18.9834V20.4097C12.8333 20.7191 12.9563 21.0158 13.175 21.2346C13.3938 21.4534 13.6906 21.5763 14 21.5763V28.1563C13.8233 28.2579 13.6764 28.4041 13.574 28.5803C13.4717 28.7565 13.4174 28.9565 13.4167 29.1603V30.4897C13.2399 30.5913 13.0929 30.7375 12.9906 30.9139C12.8882 31.0902 12.8339 31.2903 12.8333 31.4942V33.8275C12.8333 34.1369 12.9563 34.4337 13.175 34.6525C13.3938 34.8713 13.6906 34.9942 14 34.9942H33.8333C34.1428 34.9942 34.4395 34.8713 34.6583 34.6525C34.8771 34.4337 35 34.1369 35 33.8275V31.4942C34.9994 31.2903 34.9452 31.0902 34.8428 30.9139C34.7404 30.7375 34.5934 30.5913 34.4167 30.4897V29.1603C34.416 28.9565 34.3617 28.7565 34.2593 28.5803C34.1569 28.4041 34.01 28.2579 33.8333 28.1563V21.5763C34.1428 21.5763 34.4395 21.4534 34.6583 21.2346C34.8771 21.0158 35 20.7191 35 20.4097V18.4333C35.0011 18.1979 34.9306 17.9676 34.7977 17.7732C34.6649 17.5788 34.476 17.4294 34.2563 17.3448ZM26.7645 8.99559C26.4372 8.66686 26.2535 8.2219 26.2535 7.75805C26.2535 7.2942 26.4372 6.84923 26.7645 6.52051L28 7.75834L26.7645 8.99559ZM21.4043 1.15676L22.6421 2.39517C22.3135 2.72239 21.8686 2.90611 21.4048 2.90611C20.9411 2.90611 20.4962 2.72239 20.1676 2.39517L21.4043 1.15676ZM15.2168 3.59801C15.4457 3.49982 15.698 3.4696 15.9436 3.51098C16.1891 3.55236 16.4176 3.66358 16.6017 3.83134L20.3805 7.02626C20.5755 7.2116 20.6892 7.46663 20.6966 7.73557C20.704 8.0045 20.6046 8.26543 20.4202 8.46126C20.2309 8.63691 19.9827 8.73535 19.7244 8.73718C19.4662 8.73902 19.2166 8.64412 19.0248 8.47117C19.0248 8.47117 17.1168 6.82501 16.7417 6.49192C16.4075 6.19691 15.9733 6.04055 15.5278 6.05475C15.0822 6.06895 14.6589 6.25265 14.3442 6.56834L8.6625 12.25C8.21977 11.978 7.795 11.6777 7.39083 11.3511L8.12233 5.13801C10.5478 4.96064 12.9361 4.4422 15.2168 3.59801ZM20.1658 12.2967C19.7258 12.7218 19.1365 12.9571 18.5247 12.9519C17.9129 12.9467 17.3276 12.7014 16.8949 12.2688C16.4622 11.8363 16.2167 11.2511 16.2113 10.6393C16.2059 10.0275 16.441 9.43807 16.8659 8.99792C17.0227 8.84518 17.2012 8.71643 17.3956 8.61584C17.8868 9.03759 18.2513 9.34559 18.2525 9.34559C18.5707 9.63345 18.9672 9.82038 19.3917 9.88269C19.8162 9.945 20.2497 9.87988 20.6372 9.69559C20.8309 10.126 20.8895 10.6049 20.8054 11.0693C20.7212 11.5337 20.4982 11.9616 20.1658 12.2967ZM5.52417 12.8258H1.16667V4.07576H6.41667C6.4988 4.07581 6.58001 4.0932 6.65496 4.1268C6.72991 4.1604 6.79691 4.20945 6.8516 4.27074C6.90628 4.33203 6.9474 4.40418 6.97227 4.48246C6.99714 4.56074 7.0052 4.6434 6.99592 4.72501L6.10342 12.3083C6.08719 12.4511 6.01887 12.5828 5.91155 12.6782C5.80424 12.7737 5.66547 12.8262 5.52183 12.8258H5.52417ZM10.2667 12.2967C10.5947 12.6248 10.779 13.0699 10.779 13.5339C10.779 13.998 10.5947 14.443 10.2667 14.7712L9.02825 13.5333L10.2667 12.2967ZM13.5771 17.3443C13.4133 17.4122 13.2672 17.5168 13.1501 17.6499L11.0915 15.5954C11.6368 15.0478 11.943 14.3065 11.943 13.5336C11.943 12.7608 11.6368 12.0195 11.0915 11.4718L15.1702 7.39317C15.2745 7.28767 15.415 7.22587 15.5633 7.22035C15.7115 7.21482 15.8563 7.26598 15.9682 7.36342C16.1333 7.51101 16.303 7.66151 16.4728 7.81142C15.9211 8.20516 15.4957 8.75058 15.2481 9.38146C15.0004 10.0123 14.9413 10.7015 15.0779 11.3654C15.2144 12.0292 15.5408 12.6391 16.0173 13.121C16.4938 13.603 17.1 13.9362 17.7622 14.0802C18.4245 14.2243 19.1143 14.1729 19.7479 13.9325C20.3816 13.692 20.9318 13.2727 21.3317 12.7256C21.7317 12.1784 21.9641 11.527 22.0009 10.8502C22.0377 10.1735 21.8773 9.50063 21.539 8.91334C21.7652 8.54582 21.8776 8.11961 21.8622 7.68834C21.8529 7.39599 21.7843 7.10857 21.6606 6.84354C21.5368 6.5785 21.3605 6.34139 21.1423 6.14659L18.5815 3.98359L19.3398 3.22526C19.8873 3.77137 20.629 4.07806 21.4022 4.07806C22.1755 4.07806 22.9172 3.77137 23.4646 3.22526L25.9379 5.70034C25.3922 6.248 25.0858 6.9896 25.0858 7.76272C25.0858 8.53583 25.3922 9.27743 25.9379 9.82509L21.4923 14.2713L13.5771 17.3443ZM16.3333 21.5763V27.993H15.1667V21.5763H16.3333ZM33.25 30.3263H30.9167V29.1597H33.25V30.3263ZM30.3333 28.1552C30.1566 28.2567 30.0098 28.4029 29.9074 28.5791C29.805 28.7553 29.7507 28.9553 29.75 29.1591V30.3258H26.25V29.1591C26.2493 28.9553 26.195 28.7553 26.0926 28.5791C25.9903 28.4029 25.8434 28.2567 25.6667 28.1552V21.5763H30.3333V28.1552ZM22.75 29.1603H25.0833V30.3269H22.75V29.1603ZM24.5 27.9936H23.3333V21.5769H24.5V27.9936ZM22.1667 28.1563C21.99 28.2579 21.8431 28.4041 21.7407 28.5803C21.6383 28.7565 21.5841 28.9565 21.5833 29.1603V30.3269H18.0833V29.1603C18.0826 28.9565 18.0283 28.7565 17.926 28.5803C17.8236 28.4041 17.6767 28.2579 17.5 28.1563V21.5763H22.1667V28.1563ZM14.5833 29.1603H16.9167V30.3269H14.5833V29.1603ZM33.8333 33.8269H14V31.4936H33.8333V33.8269ZM32.6667 27.9936H31.5V21.5769H32.6667V27.9936ZM14 20.4103V18.4333L23.9167 14.5769L33.8333 18.4333V20.4103H14Z" fill="#CBD1DA"/>
<path d="M25.0837 17.4922H22.7503C22.5956 17.4922 22.4472 17.5536 22.3378 17.663C22.2284 17.7724 22.167 17.9208 22.167 18.0755C22.167 18.2302 22.2284 18.3786 22.3378 18.488C22.4472 18.5974 22.5956 18.6589 22.7503 18.6589H25.0837C25.2384 18.6589 25.3867 18.5974 25.4961 18.488C25.6055 18.3786 25.667 18.2302 25.667 18.0755C25.667 17.9208 25.6055 17.7724 25.4961 17.663C25.3867 17.5536 25.2384 17.4922 25.0837 17.4922Z" fill="#CBD1DA"/>
</g>
<defs>
<clipPath id="clip0_2540_28102">
<rect width="35" height="35" fill="white"/>
</clipPath>
</defs>
</svg>
