<svg width="30" height="30" viewBox="0 0 30 30" fill="none" xmlns="http://www.w3.org/2000/svg">
<path d="M20.1355 11.4787C18.7679 11.4787 17.4749 11.8031 16.3286 12.3784C15.7822 12.144 15.2221 11.9563 14.6504 11.8168C16.3893 10.8969 17.5771 9.06893 17.5771 6.96852C17.5771 3.94619 15.1182 1.4873 12.0959 1.4873C9.07349 1.4873 6.6146 3.94619 6.6146 6.96852C6.6146 9.06898 7.80247 10.897 9.54154 11.8169C7.71921 12.2598 6.03699 13.176 4.65335 14.5019C2.64775 16.4237 1.47394 19.0068 1.34814 21.7755C1.34234 21.9034 1.3891 22.0281 1.47751 22.1207C1.56599 22.2132 1.68845 22.2656 1.81642 22.2656H11.9261C12.9221 25.8634 16.225 28.5126 20.1354 28.5126C24.8316 28.5126 28.6523 24.6919 28.6523 19.9957C28.6523 15.2994 24.8318 11.4787 20.1355 11.4787ZM7.55216 6.96857C7.55216 4.46316 9.59046 2.42486 12.0959 2.42486C14.6013 2.42486 16.6396 4.46316 16.6396 6.96857C16.6396 9.47398 14.6013 11.5123 12.0959 11.5123C9.59046 11.5123 7.55216 9.47393 7.55216 6.96857ZM2.3191 21.328C2.79429 16.3111 6.99786 12.4498 12.0959 12.4498C13.2008 12.4498 14.2759 12.6305 15.3032 12.9863C13.0789 14.5245 11.6185 17.0925 11.6185 19.9956C11.6185 20.4488 11.6545 20.8938 11.723 21.328H2.3191ZM20.1355 27.5751C15.9561 27.5751 12.556 24.1749 12.556 19.9956C12.556 15.8163 15.9561 12.4162 20.1355 12.4162C24.3148 12.4162 27.7149 15.8163 27.7149 19.9956C27.7149 24.1749 24.3148 27.5751 20.1355 27.5751ZM24.8386 16.5329H24.1794C24.5115 15.3642 23.9376 14.8807 23.7257 14.7477C22.8638 14.2067 21.4327 14.8327 20.1355 16.2757C18.8381 14.8327 17.4069 14.2068 16.5452 14.7477C16.3334 14.8807 15.7594 15.3642 16.0915 16.5329H15.4323C15.1735 16.5329 14.9636 16.7428 14.9636 17.0017V19.5055C14.9636 19.68 15.059 19.8318 15.2004 19.9126V24.547C15.2004 24.8059 15.4103 25.0157 15.6692 25.0157H24.6017C24.8606 25.0157 25.0705 24.8059 25.0705 24.547V19.9126C25.2118 19.8318 25.3073 19.68 25.3073 19.5055V17.0017C25.3074 16.7428 25.0975 16.5329 24.8386 16.5329ZM24.3699 19.0368H20.6042V17.4705H24.3699V19.0368ZM23.2274 15.5418C23.3771 15.6358 23.3991 15.9972 23.1898 16.5329H21.1834C22.1755 15.5637 22.9727 15.3819 23.2274 15.5418ZM17.0436 15.5418C17.2986 15.3819 18.0957 15.5639 19.0876 16.5329H17.0811C16.8718 15.9972 16.8938 15.6358 17.0436 15.5418ZM15.9011 17.4704H19.6668V19.0368H15.9011V17.4704ZM16.138 19.9743H19.6668V24.0783H16.138V19.9743ZM20.6042 24.0783V19.9743H24.133V24.0783H20.6042Z" fill="#16BE6E"/>
</svg>
