<svg width="30" height="31" viewBox="0 0 30 31" fill="none" xmlns="http://www.w3.org/2000/svg">
<path d="M26.1904 4.30993C25.3517 3.4712 24.2141 3 23.0279 3C21.8418 3 20.7042 3.4712 19.8654 4.30993L4.92544 19.2499C4.41768 19.7577 4.0607 20.3964 3.89419 21.0949L2.52544 26.8474C2.48838 27.0032 2.49186 27.1659 2.53554 27.32C2.57922 27.4741 2.66164 27.6145 2.77495 27.7276C2.88827 27.8408 3.02869 27.9231 3.18282 27.9666C3.33696 28.0101 3.49967 28.0134 3.65544 27.9762L9.40669 26.6062C10.1057 26.4399 10.7448 26.0829 11.2529 25.5749L26.1904 10.6374C27.0292 9.79868 27.5004 8.66109 27.5004 7.47493C27.5004 6.28877 27.0292 5.15118 26.1904 4.31243V4.30993ZM21.1904 5.63493C21.4317 5.39363 21.7182 5.20221 22.0335 5.07162C22.3488 4.94103 22.6867 4.87381 23.0279 4.87381C23.3692 4.87381 23.7071 4.94103 24.0224 5.07162C24.3377 5.20221 24.6241 5.39363 24.8654 5.63493C25.1067 5.87623 25.2982 6.1627 25.4288 6.47798C25.5593 6.79326 25.6266 7.13117 25.6266 7.47243C25.6266 7.81368 25.5593 8.1516 25.4288 8.46688C25.2982 8.78216 25.1067 9.06863 24.8654 9.30993L23.7504 10.4237L20.0754 6.74993L21.1904 5.63618V5.63493ZM18.7504 8.07743L22.4254 11.7499L9.92544 24.2499C9.66294 24.5124 9.33294 24.6962 8.97169 24.7824L4.70169 25.7999L5.71794 21.5299C5.80419 21.1674 5.98919 20.8374 6.25169 20.5749L18.7504 8.07493V8.07743Z" fill="#16BE6E"/>
</svg>
