<svg width="30" height="30" viewBox="0 0 30 30" fill="none" xmlns="http://www.w3.org/2000/svg">
<path d="M22.9619 1.875H14.5381C13.5439 1.87614 12.5907 2.27159 11.8877 2.97461C11.1847 3.67762 10.7892 4.63079 10.7881 5.625V6.99234C10.7881 7.11666 10.8375 7.23589 10.9254 7.3238C11.0133 7.41171 11.1325 7.46109 11.2568 7.46109C11.3812 7.46109 11.5004 7.41171 11.5883 7.3238C11.6762 7.23589 11.7256 7.11666 11.7256 6.99234V5.625C11.7264 4.87933 12.023 4.16443 12.5502 3.63716C13.0775 3.10989 13.7924 2.81331 14.5381 2.8125H22.9619C23.7075 2.81331 24.4224 3.10989 24.9497 3.63716C25.477 4.16443 25.7735 4.87933 25.7744 5.625V23.4343H11.7256V21.2668C11.7256 21.1425 11.6762 21.0232 11.5883 20.9353C11.5004 20.8474 11.3812 20.798 11.2568 20.798C11.1325 20.798 11.0133 20.8474 10.9254 20.9353C10.8375 21.0232 10.7881 21.1425 10.7881 21.2668V24.375C10.7892 25.3692 11.1847 26.3224 11.8877 27.0254C12.5907 27.7284 13.5439 28.1239 14.5381 28.125H22.9619C23.9561 28.1239 24.9092 27.7284 25.6122 27.0254C26.3153 26.3224 26.7107 25.3692 26.7119 24.375V5.625C26.7107 4.63079 26.3153 3.67762 25.6122 2.97461C24.9092 2.27159 23.9561 1.87614 22.9619 1.875ZM25.7744 24.375C25.7735 25.1207 25.477 25.8356 24.9497 26.3628C24.4224 26.8901 23.7075 27.1867 22.9619 27.1875H14.5381C13.7924 27.1867 13.0775 26.8901 12.5502 26.3628C12.023 25.8356 11.7264 25.1207 11.7256 24.375V24.3718H25.7744V24.375Z" fill="#16BE6E"/>
<path d="M17.5781 26.1514H19.9219C20.0462 26.1514 20.1654 26.102 20.2533 26.0141C20.3412 25.9262 20.3906 25.8069 20.3906 25.6826C20.3906 25.5583 20.3412 25.4391 20.2533 25.3512C20.1654 25.2633 20.0462 25.2139 19.9219 25.2139H17.5781C17.4538 25.2139 17.3346 25.2633 17.2467 25.3512C17.1588 25.4391 17.1094 25.5583 17.1094 25.6826C17.1094 25.8069 17.1588 25.9262 17.2467 26.0141C17.3346 26.102 17.4538 26.1514 17.5781 26.1514Z" fill="#16BE6E"/>
<path d="M5.77148 7.46094H7.33336L9.02752 14.2363H8.66362C8.28356 14.2363 7.91906 14.3873 7.65032 14.656C7.38157 14.9248 7.23059 15.2893 7.23059 15.6693C7.23059 16.0494 7.38157 16.4139 7.65032 16.6826C7.91906 16.9514 8.28356 17.1024 8.66362 17.1024H17.341C17.4653 17.1024 17.5846 17.053 17.6725 16.9651C17.7604 16.8772 17.8098 16.7579 17.8098 16.6336C17.8098 16.5093 17.7604 16.3901 17.6725 16.3021C17.5846 16.2142 17.4653 16.1649 17.341 16.1649H8.66364C8.53222 16.1649 8.40618 16.1126 8.31325 16.0197C8.22032 15.9268 8.16811 15.8007 8.16811 15.6693C8.16811 15.5379 8.22032 15.4119 8.31325 15.3189C8.40618 15.226 8.53222 15.1738 8.66364 15.1738H16.6461C16.9469 15.174 17.24 15.0795 17.484 14.9037C17.728 14.7278 17.9104 14.4796 18.0052 14.1942L19.2911 10.3375C19.3627 10.1221 19.3822 9.89277 19.3479 9.66837C19.3136 9.44396 19.2265 9.23091 19.0937 9.04675C18.961 8.8626 18.7864 8.71261 18.5843 8.60913C18.3823 8.50565 18.1585 8.45163 17.9315 8.45154H8.54734L8.15415 6.87866C8.12886 6.77723 8.07039 6.68717 7.98802 6.6228C7.90565 6.55843 7.80412 6.52346 7.69959 6.52344H5.77148C5.64716 6.52344 5.52794 6.57282 5.44003 6.66073C5.35212 6.74864 5.30273 6.86787 5.30273 6.99219C5.30273 7.11651 5.35212 7.23574 5.44003 7.32364C5.52794 7.41155 5.64716 7.46094 5.77148 7.46094ZM17.9315 9.38904C18.01 9.38913 18.0874 9.40785 18.1572 9.44367C18.2271 9.47948 18.2874 9.53136 18.3333 9.59504C18.3792 9.65872 18.4093 9.73238 18.4212 9.80997C18.4331 9.88756 18.4264 9.96686 18.4016 10.0414L17.1162 13.8976C17.0834 13.9962 17.0203 14.0821 16.9359 14.1429C16.8515 14.2037 16.7501 14.2364 16.6461 14.2363H9.99344L8.78173 9.38904H17.9315Z" fill="#16BE6E"/>
<path d="M8.68784 17.2373C8.38323 17.2373 8.08544 17.3275 7.83214 17.4967C7.57884 17.6659 7.3814 17.9064 7.26479 18.1879C7.14817 18.4693 7.11763 18.7789 7.17701 19.0777C7.23639 19.3765 7.38304 19.6509 7.5984 19.8663C7.81376 20.0818 8.08817 20.2285 8.38692 20.288C8.68567 20.3474 8.99535 20.317 9.27679 20.2005C9.55823 20.0839 9.7988 19.8866 9.96807 19.6333C10.1373 19.38 10.2277 19.0823 10.2278 18.7777C10.2272 18.3694 10.0648 17.978 9.77616 17.6892C9.4875 17.4005 9.09613 17.238 8.68784 17.2373ZM8.68784 19.3801C8.56863 19.3801 8.45208 19.3448 8.35294 19.2786C8.2538 19.2124 8.17652 19.1183 8.13088 19.0082C8.08524 18.898 8.07328 18.7769 8.09653 18.6599C8.11978 18.543 8.17718 18.4356 8.26147 18.3513C8.34577 18.267 8.45317 18.2096 8.5701 18.1864C8.68702 18.1631 8.80821 18.1751 8.91834 18.2207C9.02847 18.2664 9.12259 18.3436 9.18879 18.4428C9.25499 18.5419 9.2903 18.6585 9.29026 18.7777C9.29003 18.9374 9.22649 19.0905 9.11356 19.2034C9.00064 19.3163 8.84754 19.3799 8.68784 19.3801Z" fill="#16BE6E"/>
<path d="M16.1878 17.2373C15.8832 17.2373 15.5854 17.3275 15.3321 17.4967C15.0788 17.6659 14.8814 17.9064 14.7648 18.1879C14.6482 18.4693 14.6176 18.7789 14.677 19.0777C14.7364 19.3765 14.883 19.6509 15.0984 19.8663C15.3138 20.0818 15.5882 20.2285 15.8869 20.288C16.1857 20.3474 16.4953 20.317 16.7768 20.2005C17.0582 20.0839 17.2988 19.8866 17.4681 19.6333C17.6373 19.38 17.7277 19.0823 17.7278 18.7777C17.7272 18.3694 17.5648 17.978 17.2762 17.6892C16.9875 17.4005 16.5961 17.238 16.1878 17.2373ZM16.1878 19.3801C16.0686 19.3801 15.9521 19.3448 15.8529 19.2786C15.7538 19.2124 15.6765 19.1183 15.6309 19.0082C15.5852 18.898 15.5733 18.7769 15.5965 18.6599C15.6198 18.543 15.6772 18.4356 15.7615 18.3513C15.8458 18.267 15.9532 18.2096 16.0701 18.1864C16.187 18.1631 16.3082 18.1751 16.4183 18.2207C16.5285 18.2664 16.6226 18.3436 16.6888 18.4428C16.755 18.5419 16.7903 18.6585 16.7903 18.7777C16.79 18.9374 16.7265 19.0905 16.6136 19.2034C16.5006 19.3163 16.3475 19.3799 16.1878 19.3801Z" fill="#16BE6E"/>
<path d="M2.88672 9.84375H5.19339C5.31771 9.84375 5.43694 9.79436 5.52485 9.70646C5.61275 9.61855 5.66214 9.49932 5.66214 9.375C5.66214 9.25068 5.61275 9.13145 5.52485 9.04354C5.43694 8.95564 5.31771 8.90625 5.19339 8.90625H2.88672C2.7624 8.90625 2.64317 8.95564 2.55526 9.04354C2.46735 9.13145 2.41797 9.25068 2.41797 9.375C2.41797 9.49932 2.46735 9.61855 2.55526 9.70646C2.64317 9.79436 2.7624 9.84375 2.88672 9.84375Z" fill="#16BE6E"/>
<path d="M2.88672 11.7188H6.15288C6.2772 11.7188 6.39643 11.6694 6.48434 11.5815C6.57225 11.4935 6.62163 11.3743 6.62163 11.25C6.62163 11.1257 6.57225 11.0065 6.48434 10.9185C6.39643 10.8306 6.2772 10.7812 6.15288 10.7812H2.88672C2.7624 10.7812 2.64317 10.8306 2.55526 10.9185C2.46735 11.0065 2.41797 11.1257 2.41797 11.25C2.41797 11.3743 2.46735 11.4935 2.55526 11.5815C2.64317 11.6694 2.7624 11.7188 2.88672 11.7188Z" fill="#16BE6E"/>
<path d="M7.96835 13.125C7.96839 13.0634 7.95629 13.0025 7.93274 12.9456C7.9092 12.8887 7.87467 12.837 7.83114 12.7935C7.7876 12.7499 7.73592 12.7154 7.67903 12.6919C7.62214 12.6683 7.56117 12.6562 7.4996 12.6563H2.88672C2.7624 12.6563 2.64317 12.7056 2.55526 12.7935C2.46735 12.8815 2.41797 13.0007 2.41797 13.125C2.41797 13.2493 2.46735 13.3685 2.55526 13.4565C2.64317 13.5444 2.7624 13.5938 2.88672 13.5938H7.4996C7.56117 13.5938 7.62214 13.5817 7.67903 13.5581C7.73592 13.5346 7.7876 13.5001 7.83114 13.4565C7.87467 13.413 7.9092 13.3613 7.93274 13.3044C7.95629 13.2475 7.96839 13.1866 7.96835 13.125Z" fill="#16BE6E"/>
</svg>
