<svg width="25" height="25" viewBox="0 0 25 25" fill="none" xmlns="http://www.w3.org/2000/svg">
<path d="M14.9258 7.05469C14.0301 7.11289 13.1781 7.46274 12.5 8.05078C11.8219 7.46274 10.9699 7.11289 10.0742 7.05469C7.73047 7.05469 5.64453 9.4375 5.64453 12.1523C5.64453 14.2813 6.74219 16.4258 8.82813 18.3555C9.71545 19.1654 10.6841 19.8815 11.7188 20.4922C12.1094 20.7227 12.3398 20.8398 12.3398 20.8398C12.3944 20.8673 12.4546 20.8816 12.5156 20.8816C12.5767 20.8816 12.6369 20.8673 12.6914 20.8398C12.6914 20.8398 12.9375 20.7148 13.3125 20.4922C14.335 19.8794 15.293 19.1648 16.1719 18.3594C18.2578 16.4336 19.3594 14.2891 19.3594 12.1563C19.3594 9.4375 17.2852 7.05469 14.9258 7.05469ZM15.625 17.7813C14.7851 18.552 13.8689 19.2352 12.8906 19.8203C12.7266 19.918 12.5898 19.9961 12.5 20.0469C12.4023 19.9961 12.2695 19.918 12.1094 19.8203C11.1294 19.2377 10.2129 18.5543 9.375 17.7813C7.42188 15.9805 6.44141 14.0859 6.44141 12.1523C6.44141 9.85156 8.14453 7.85547 10.0898 7.85547C10.9102 7.85547 11.6875 8.39844 12.2695 8.87109C12.3391 8.92755 12.426 8.95836 12.5156 8.95836C12.6052 8.95836 12.6921 8.92755 12.7617 8.87109C13.3477 8.39844 14.1211 7.85547 14.9414 7.85547C16.8945 7.85547 18.5937 9.87109 18.5937 12.1719C18.5781 14.0859 17.5781 15.9805 15.625 17.7813Z" fill="#16BE6E"/>
<path d="M21.0075 3.80955H18.9489V1.56345C18.949 1.50607 18.9365 1.44936 18.9122 1.39738C18.8878 1.34539 18.8524 1.2994 18.8083 1.26267C18.7653 1.22559 18.7147 1.19834 18.66 1.18282C18.6054 1.16731 18.548 1.1639 18.4919 1.17283L3.92548 3.81736C3.92548 3.81736 3.89814 3.81736 3.88251 3.81736C3.85961 3.8228 3.83735 3.83065 3.81611 3.8408C3.7938 3.85285 3.77285 3.86725 3.75361 3.88376C3.73487 3.8973 3.71782 3.91304 3.70283 3.93064C3.68632 3.94988 3.67191 3.97083 3.65986 3.99314C3.64793 4.01183 3.63748 4.03142 3.62861 4.05173C3.6264 4.08034 3.6264 4.10907 3.62861 4.13767C3.62683 4.15325 3.62683 4.16897 3.62861 4.18455V23.4385C3.62861 23.5421 3.66976 23.6414 3.74302 23.7147C3.81628 23.7879 3.91563 23.8291 4.01923 23.8291H21.0075C21.1111 23.8291 21.2105 23.7879 21.2837 23.7147C21.357 23.6414 21.3981 23.5421 21.3981 23.4385V4.20017C21.3981 4.09657 21.357 3.99721 21.2837 3.92396C21.2105 3.8507 21.1111 3.80955 21.0075 3.80955ZM18.1677 2.0322V3.80955H8.34345L18.1677 2.0322ZM20.6169 23.0478H4.38251V4.5908H20.6169V23.0478Z" fill="#16BE6E"/>
</svg>
