<svg width="35" height="35" viewBox="0 0 35 35" fill="none" xmlns="http://www.w3.org/2000/svg">
<g clip-path="url(#clip0_2540_27958)">
<path d="M17.4996 5.44238C10.8512 5.44238 5.44238 10.8512 5.44238 17.4996C5.44238 24.148 10.8512 29.5568 17.4996 29.5568C24.148 29.5568 29.5568 24.148 29.5568 17.4996C29.5568 10.8512 24.148 5.44238 17.4996 5.44238ZM17.4996 28.423C11.4765 28.423 6.57626 23.5228 6.57626 17.4996C6.57626 11.4764 11.4765 6.57626 17.4996 6.57626C23.5228 6.57626 28.423 11.4765 28.423 17.4996C28.423 23.5228 23.5228 28.423 17.4996 28.423Z" fill="#DBDEEB"/>
<path d="M18.0674 17.0676V12.6474C19.9198 12.7963 21.1668 13.6581 21.1668 14.4389C21.1668 14.752 21.4206 15.0059 21.7337 15.0059C22.0468 15.0059 22.3007 14.7521 22.3007 14.4389C22.3007 12.9039 20.4823 11.6783 18.0674 11.511V10.8482C18.0674 10.5351 17.8136 10.2812 17.5005 10.2812C17.1874 10.2812 16.9335 10.5351 16.9335 10.8482V11.511C14.5186 11.6783 12.7002 12.9039 12.7002 14.4389C12.7002 16.4955 14.6556 17.2979 16.9335 17.9333V22.3535C15.0811 22.2046 13.8341 21.3428 13.8341 20.562C13.8341 20.2489 13.5803 19.995 13.2672 19.995C12.9541 19.995 12.7002 20.2489 12.7002 20.562C12.7002 22.0971 14.5186 23.3226 16.9335 23.49V24.1527C16.9335 24.4658 17.1873 24.7197 17.5005 24.7197C17.8135 24.7197 18.0674 24.4659 18.0674 24.1527V23.49C20.4823 23.3226 22.3007 22.0971 22.3007 20.562C22.3007 18.5055 20.3453 17.7031 18.0674 17.0676ZM16.9335 16.7524C14.634 16.073 13.8341 15.4559 13.8341 14.4389C13.8341 13.6581 15.0811 12.7963 16.9335 12.6474V16.7524ZM18.0674 22.3535V18.2485C20.3669 18.928 21.1668 19.545 21.1668 20.562C21.1668 21.3428 19.9198 22.2046 18.0674 22.3535Z" fill="#DBDEEB"/>
<path d="M29.8741 5.12565C26.5688 1.82027 22.1741 0 17.4997 0C12.4674 0 7.76876 2.11743 4.44588 5.84473L4.75644 3.6709C4.80067 3.36089 4.58526 3.07378 4.27532 3.02948C3.96525 2.98553 3.6782 3.20065 3.63391 3.51053L3.02913 7.74382C3.00138 7.9383 3.0763 8.13333 3.2271 8.25932C3.3306 8.34565 3.45952 8.39098 3.5905 8.39098C3.65052 8.39098 3.71109 8.38147 3.76974 8.36186L7.39825 7.15237C7.69534 7.05332 7.85585 6.7323 7.75687 6.43521C7.65775 6.13813 7.3368 5.97748 7.03971 6.0766L5.2167 6.68432C8.32842 3.14597 12.7557 1.13388 17.4997 1.13388C21.8712 1.13388 25.9811 2.83623 29.0723 5.92737C32.1635 9.01858 33.8658 13.1284 33.8658 17.5C33.8658 21.8716 32.1635 25.9814 29.0723 29.0726C25.9811 32.1638 21.8713 33.8661 17.4997 33.8661C17.1866 33.8661 16.9327 34.1199 16.9327 34.4331C16.9327 34.7462 17.1866 35.0001 17.4997 35.0001C22.1741 35.0001 26.5688 33.1798 29.8741 29.8744C33.1793 26.569 34.9997 22.1744 34.9997 17.5C34.9997 12.8256 33.1794 8.4309 29.8741 5.12565Z" fill="#DBDEEB"/>
<path d="M15.1614 33.7008C14.9687 33.6731 14.7745 33.6419 14.5844 33.6077C14.2761 33.5521 13.9815 33.7572 13.926 34.0654C13.8706 34.3736 14.0755 34.6683 14.3837 34.7238C14.5872 34.7603 14.7948 34.7938 15.0009 34.8233C15.0281 34.8272 15.0551 34.8291 15.0819 34.8291C15.3594 34.8291 15.6019 34.625 15.6424 34.3424C15.6866 34.0324 15.4714 33.7452 15.1614 33.7008Z" fill="#DBDEEB"/>
<path d="M12.3907 33.0526C12.0338 32.9354 11.6762 32.804 11.3279 32.6621C11.0381 32.5441 10.7072 32.6832 10.5889 32.9733C10.4708 33.2633 10.6101 33.5941 10.9001 33.7123C11.2727 33.8642 11.6552 34.0046 12.037 34.13C12.0958 34.1493 12.1554 34.1584 12.214 34.1584C12.4523 34.1584 12.6742 34.007 12.7526 33.7682C12.8502 33.4705 12.6882 33.1503 12.3907 33.0526Z" fill="#DBDEEB"/>
<path d="M1.51037 21.0064C1.43032 20.6395 1.3621 20.2649 1.30761 19.893C1.26215 19.5831 0.974498 19.3691 0.664556 19.4142C0.354683 19.4596 0.140308 19.7475 0.185767 20.0573C0.244078 20.455 0.316949 20.8556 0.402603 21.2481C0.460504 21.5133 0.69525 21.6943 0.955972 21.6943C0.996031 21.6943 1.0367 21.6901 1.07738 21.6812C1.38322 21.6144 1.57715 21.3123 1.51037 21.0064Z" fill="#DBDEEB"/>
<path d="M1.31955 12.4608C1.01788 12.3779 0.705685 12.5556 0.622833 12.8576C0.516466 13.245 0.422403 13.6414 0.343243 14.0357C0.281583 14.3427 0.480441 14.6416 0.787443 14.7032C0.825177 14.7108 0.862638 14.7144 0.899689 14.7144C1.16417 14.7144 1.4009 14.5283 1.4549 14.259C1.52894 13.8904 1.61692 13.5198 1.71631 13.1576C1.79909 12.8556 1.62156 12.5436 1.31955 12.4608Z" fill="#DBDEEB"/>
<path d="M2.57389 24.2238C2.4194 23.8814 2.27502 23.5293 2.14473 23.1771C2.03611 22.8834 1.7099 22.7333 1.41629 22.842C1.12262 22.9507 0.972641 23.2768 1.08126 23.5705C1.22058 23.9471 1.375 24.3239 1.5403 24.6902C1.63491 24.9 1.84128 25.0241 2.05744 25.0241C2.13537 25.0241 2.21459 25.0079 2.29027 24.9738C2.57574 24.845 2.70261 24.5092 2.57389 24.2238Z" fill="#DBDEEB"/>
<path d="M0.631709 15.9034C0.31876 15.8844 0.0505176 16.1228 0.0317871 16.4354C0.0107324 16.7875 0 17.1456 0 17.5001C0 17.5485 0.000205078 17.5967 0.000615234 17.645C0.00307617 17.9566 0.256416 18.2075 0.56752 18.2075C0.568955 18.2075 0.570527 18.2075 0.572031 18.2075C0.885117 18.205 1.13695 17.9491 1.13456 17.636C1.13422 17.5904 1.13395 17.5449 1.13395 17.4997C1.13395 17.1681 1.14399 16.833 1.16375 16.5033C1.18255 16.1908 0.944316 15.9222 0.631709 15.9034Z" fill="#DBDEEB"/>
<path d="M9.29702 31.6652C8.97231 31.4767 8.64965 31.2743 8.33794 31.0633C8.07858 30.8878 7.72619 30.9557 7.55064 31.215C7.37509 31.4744 7.44304 31.8267 7.70233 32.0023C8.03551 32.2279 8.38059 32.4444 8.72779 32.6459C8.81734 32.6979 8.91516 32.7226 9.01189 32.7226C9.2074 32.7226 9.39757 32.6214 9.50278 32.4401C9.66001 32.1694 9.56786 31.8224 9.29702 31.6652Z" fill="#DBDEEB"/>
<path d="M4.28159 27.152C4.05977 26.8487 3.84574 26.5339 3.64524 26.2159C3.4783 25.951 3.12823 25.8715 2.86327 26.0387C2.59838 26.2057 2.51908 26.5557 2.68609 26.8206C2.90039 27.1606 3.12926 27.4973 3.3664 27.8215C3.47748 27.9733 3.64982 28.0537 3.82441 28.0537C3.94062 28.0537 4.05779 28.0181 4.15868 27.9443C4.41148 27.7594 4.46651 27.4048 4.28159 27.152Z" fill="#DBDEEB"/>
<path d="M6.55499 29.6685C6.2756 29.4171 6.00135 29.1526 5.73987 28.8826C5.52208 28.6576 5.16326 28.6518 4.93822 28.8696C4.71325 29.0874 4.70744 29.4463 4.9253 29.6713C5.20475 29.96 5.49788 30.2426 5.79647 30.5114C5.90489 30.6089 6.04052 30.6569 6.17559 30.6569C6.3307 30.6569 6.48519 30.5936 6.59717 30.4692C6.80662 30.2364 6.78768 29.8779 6.55499 29.6685Z" fill="#DBDEEB"/>
<path d="M2.43985 9.73073C2.15691 9.5964 1.81873 9.71685 1.68441 9.99952C1.5954 10.1868 1.50865 10.3782 1.42649 10.5685C1.30235 10.8559 1.43476 11.1897 1.72221 11.3138C1.79549 11.3454 1.87171 11.3604 1.9467 11.3604C2.16607 11.3604 2.37504 11.2323 2.46746 11.0181C2.5443 10.8403 2.62537 10.6612 2.70863 10.4861C2.84296 10.2032 2.72265 9.86512 2.43985 9.73073Z" fill="#DBDEEB"/>
</g>
<defs>
<clipPath id="clip0_2540_27958">
<rect width="35" height="35" fill="white"/>
</clipPath>
</defs>
</svg>
