<svg width="31" height="30" viewBox="0 0 31 30" fill="none" xmlns="http://www.w3.org/2000/svg">
<path d="M27.9222 1.17188H17.6097C16.5758 1.17188 15.7347 2.01301 15.7347 3.04688V11.631C9.619 7.50773 1.14118 12.0693 1.20347 19.4532C1.19657 24.6597 5.49611 28.8381 10.5784 28.8281C16.8099 28.9089 21.5824 22.4598 19.4541 16.4719C20.8237 16.2142 22.3057 15.6219 22.933 14.2969H27.9222C28.956 14.2969 29.7972 13.4557 29.7972 12.4219V3.04688C29.7972 2.01301 28.956 1.17188 27.9222 1.17188ZM14.5738 26.8819C12.228 28.2137 8.92877 28.2137 6.58299 26.8819C5.96306 25.1402 6.67303 23.1 8.19781 22.0777C8.26691 22.1187 8.33566 22.1598 8.40695 22.1972L10.1884 24.8694C10.2754 24.9998 10.4216 25.0781 10.5784 25.0781C10.7352 25.0781 10.8815 24.9998 10.9684 24.8694L12.7499 22.1972C12.8212 22.1598 12.8899 22.1187 12.959 22.0777C14.4838 23.0999 15.1938 25.1404 14.5738 26.8819ZM10.5784 21.7969C8.55355 21.7988 6.82157 20.1357 6.82844 18.0468C7.03406 13.0728 14.1228 13.0726 14.3284 18.0469C14.3352 20.1357 12.6033 21.7988 10.5784 21.7969ZM11.3067 22.6719L10.5784 23.7643L9.85011 22.6719C10.3233 22.7532 10.8336 22.7532 11.3067 22.6719ZM15.6953 26.1463C15.9228 24.3751 15.1437 22.5705 13.7511 21.4874C16.8669 18.6538 14.8356 13.3551 10.5784 13.3594C6.32124 13.3552 4.2898 18.6547 7.40568 21.4874C6.01314 22.5704 5.23396 24.3753 5.4615 26.1463C3.44754 24.6029 2.14091 22.1806 2.14091 19.4531C2.08667 12.4933 10.3486 8.47309 15.7785 12.8176C15.9609 13.6617 16.7118 14.2969 17.6097 14.2969H18.5501C18.1906 15.0311 17.6065 15.7031 16.6722 15.7031C16.4202 15.7031 16.2135 15.9023 16.2039 16.154C16.283 16.7609 16.6464 16.6277 17.3224 16.6608C17.6419 16.6608 18.0534 16.6467 18.5069 16.6033C19.8205 19.9769 18.4975 24.1006 15.6953 26.1463ZM28.8597 12.4219C28.8597 12.9389 28.4392 13.3594 27.9222 13.3594H22.6181C22.4176 13.3594 22.239 13.4871 22.1745 13.6768C21.7348 14.9666 20.1482 15.4527 18.7969 15.6281C19.0648 15.2778 20.3782 13.4952 19.2462 13.3594H17.6097C17.0926 13.3594 16.6722 12.9389 16.6722 12.4219V3.04688C16.6722 2.52983 17.0926 2.10938 17.6097 2.10938H27.9222C28.4392 2.10938 28.8597 2.52983 28.8597 3.04688V12.4219Z" fill="#16BE6E"/>
<path d="M22.7657 5.85938H24.4063C25.0223 5.8489 25.0224 4.93229 24.4063 4.92188H23.4688V3.98438C23.4688 3.72551 23.2589 3.51562 23 3.51562C22.7412 3.51562 22.5313 3.72551 22.5313 3.98438V4.94557C20.5436 5.26414 20.7445 8.1645 22.7657 8.20312H23.2344C24.1582 8.21963 24.1585 9.59292 23.2344 9.60938H21.5938C20.9783 9.61916 20.9774 10.5367 21.5938 10.5469H22.5313V11.4844C22.5313 11.7432 22.7412 11.9531 23 11.9531C23.2589 11.9531 23.4688 11.7432 23.4688 11.4844V10.5232C25.456 10.2051 25.2558 7.30405 23.2344 7.26562H22.7657C21.8421 7.24972 21.8415 5.87548 22.7657 5.85938Z" fill="#16BE6E"/>
<path d="M10.5781 8.67188C10.837 8.67188 11.0469 8.46199 11.0469 8.20312V7.26562C11.0469 7.00676 10.837 6.79688 10.5781 6.79688C10.3193 6.79688 10.1094 7.00676 10.1094 7.26562V8.20312C10.1094 8.46199 10.3193 8.67188 10.5781 8.67188Z" fill="#16BE6E"/>
<path d="M8.02436 8.98435C8.19605 9.57898 9.07939 9.33714 8.92982 8.7417L8.6872 7.83628C8.62014 7.58634 8.36288 7.43642 8.11316 7.50486C7.863 7.57192 7.71468 7.82895 7.78174 8.07889L8.02436 8.98435Z" fill="#16BE6E"/>
<path d="M12.5575 9.31643C12.8008 9.38407 13.0654 9.23701 13.1315 8.98501L13.3742 8.07955C13.4412 7.82961 13.2929 7.57258 13.0427 7.50552C12.7919 7.438 12.5358 7.587 12.4687 7.83694L12.2261 8.74239C12.159 8.99233 12.3073 9.24937 12.5575 9.31643Z" fill="#16BE6E"/>
</svg>
