<svg width="31" height="30" viewBox="0 0 31 30" fill="none" xmlns="http://www.w3.org/2000/svg">
<g clip-path="url(#clip0_2540_33095)">
<path d="M23.7115 3.9C23.4739 3.69169 23.1808 3.5571 22.868 3.51271C22.5551 3.46831 22.2362 3.51602 21.95 3.65C21.6657 3.77724 21.4245 3.98442 21.2558 4.24631C21.0871 4.5082 20.9982 4.8135 21 5.125V6.5C20.1593 6.50165 19.3212 6.59317 18.5 6.773V2C18.5 1.46957 18.2893 0.960859 17.9142 0.585786C17.5391 0.210714 17.0304 0 16.5 0L2.5 0C1.96957 0 1.46086 0.210714 1.08579 0.585786C0.710714 0.960859 0.5 1.46957 0.5 2L0.5 28C0.5 28.5304 0.710714 29.0391 1.08579 29.4142C1.46086 29.7893 1.96957 30 2.5 30H16.5C17.0304 30 17.5391 29.7893 17.9142 29.4142C18.2893 29.0391 18.5 28.5304 18.5 28V14.515C18.6643 14.505 18.831 14.5 19 14.5H21V15.875C20.9982 16.1865 21.0871 16.4918 21.2558 16.7537C21.4245 17.0156 21.6657 17.2228 21.95 17.35C22.2363 17.4835 22.5551 17.531 22.8679 17.4866C23.1806 17.4422 23.4737 17.3079 23.7115 17.1L29.9365 11.725C30.1131 11.5739 30.2549 11.3863 30.3522 11.1751C30.4494 10.9639 30.4997 10.7342 30.4997 10.5017C30.4997 10.2693 30.4494 10.0396 30.3522 9.82841C30.2549 9.61725 30.1131 9.42965 29.9365 9.2785L23.7115 3.9ZM5.5 1H13.5V2.5C13.5 2.63261 13.4473 2.75979 13.3536 2.85355C13.2598 2.94732 13.1326 3 13 3H6C5.86739 3 5.74022 2.94732 5.64645 2.85355C5.55268 2.75979 5.5 2.63261 5.5 2.5V1ZM17.5 28C17.5 28.2652 17.3946 28.5196 17.2071 28.7071C17.0196 28.8946 16.7652 29 16.5 29H2.5C2.23478 29 1.98043 28.8946 1.79289 28.7071C1.60536 28.5196 1.5 28.2652 1.5 28V2C1.5 1.73478 1.60536 1.48043 1.79289 1.29289C1.98043 1.10536 2.23478 1 2.5 1H4.5V2.5C4.5 2.89782 4.65804 3.27936 4.93934 3.56066C5.22064 3.84196 5.60218 4 6 4H13C13.3978 4 13.7794 3.84196 14.0607 3.56066C14.342 3.27936 14.5 2.89782 14.5 2.5V1H16.5C16.7652 1 17.0196 1.10536 17.2071 1.29289C17.3946 1.48043 17.5 1.73478 17.5 2V7.0375C15.4643 7.64123 13.6803 8.891 12.4175 10.598C11.1547 12.3051 10.4816 14.3767 10.5 16.5V17.983C10.4984 18.2035 10.5695 18.4184 10.7023 18.5944C10.835 18.7705 11.0221 18.8979 11.2345 18.957C11.3262 18.9835 11.4211 18.9969 11.5165 18.997C11.6889 18.9968 11.8583 18.9523 12.0085 18.8678C12.1587 18.7833 12.2848 18.6617 12.3745 18.5145C13.7345 16.319 15.421 15.0405 17.5 14.6385V28ZM29.283 10.967L23.058 16.342C22.9651 16.4244 22.8499 16.4775 22.7269 16.4948C22.6039 16.512 22.4785 16.4926 22.3665 16.439C22.2567 16.3914 22.1634 16.3126 22.0982 16.2122C22.0331 16.1119 21.9989 15.9946 22 15.875V14C22 13.8674 21.9473 13.7402 21.8536 13.6464C21.7598 13.5527 21.6326 13.5 21.5 13.5H19C15.8405 13.5 13.395 14.9685 11.5 17.983V16.5C11.5 11.369 15.584 7.5 21 7.5H21.5C21.6326 7.5 21.7598 7.44732 21.8536 7.35355C21.9473 7.25979 22 7.13261 22 7V5.125C21.9989 5.00537 22.0331 4.88807 22.0982 4.78776C22.1634 4.68745 22.2567 4.60857 22.3665 4.561C22.4785 4.50744 22.6039 4.48808 22.7269 4.50533C22.8498 4.52258 22.965 4.57568 23.058 4.658L29.2825 10.0325C29.3506 10.0899 29.4053 10.1614 29.4428 10.2421C29.4804 10.3228 29.4998 10.4107 29.4998 10.4998C29.4998 10.5888 29.4804 10.6767 29.4428 10.7574C29.4053 10.8381 29.3506 10.9096 29.2825 10.967H29.283Z" fill="#16BE6E"/>
<path d="M5.49992 14.45V17.4375C5.07424 17.3361 4.67958 17.1328 4.34992 16.845C4.2559 16.7514 4.12857 16.6991 3.99594 16.6994C3.8633 16.6997 3.73623 16.7527 3.64267 16.8468C3.54912 16.9408 3.49674 17.0681 3.49707 17.2007C3.4974 17.3334 3.5504 17.4604 3.64442 17.554C4.16154 18.0303 4.80639 18.3453 5.49992 18.4605V19C5.49992 19.1326 5.5526 19.2598 5.64637 19.3536C5.74014 19.4473 5.86731 19.5 5.99992 19.5C6.13253 19.5 6.25971 19.4473 6.35348 19.3536C6.44724 19.2598 6.49992 19.1326 6.49992 19V18.45C7.06507 18.3352 7.57316 18.0286 7.93811 17.5821C8.30306 17.1356 8.50243 16.5767 8.50243 16C8.50243 15.4233 8.30306 14.8644 7.93811 14.4179C7.57316 13.9714 7.06507 13.6648 6.49992 13.55V10.563C6.92408 10.6646 7.31741 10.8672 7.64642 11.1535C7.69255 11.2013 7.74772 11.2393 7.80872 11.2656C7.86972 11.2918 7.93533 11.3055 8.00172 11.3061C8.06811 11.3067 8.13395 11.2941 8.1954 11.2689C8.25685 11.2438 8.31267 11.2066 8.35962 11.1597C8.40657 11.1128 8.44369 11.0569 8.46883 10.9955C8.49397 10.934 8.50663 10.8682 8.50605 10.8018C8.50547 10.7354 8.49168 10.6698 8.46547 10.6088C8.43927 10.5478 8.40118 10.4926 8.35342 10.4465C7.83692 9.97039 7.1928 9.65519 6.49992 9.5395V9C6.49992 8.86739 6.44724 8.74021 6.35348 8.64645C6.25971 8.55268 6.13253 8.5 5.99992 8.5C5.86731 8.5 5.74014 8.55268 5.64637 8.64645C5.5526 8.74021 5.49992 8.86739 5.49992 9V9.55C4.93478 9.66476 4.42669 9.97136 4.06173 10.4179C3.69678 10.8644 3.49742 11.4233 3.49742 12C3.49742 12.5767 3.69678 13.1356 4.06173 13.5821C4.42669 14.0286 4.93478 14.3352 5.49992 14.45ZM7.49992 16C7.49864 16.3091 7.40188 16.6103 7.22288 16.8624C7.04388 17.1144 6.79138 17.305 6.49992 17.408V14.592C6.79138 14.695 7.04388 14.8856 7.22288 15.1377C7.40188 15.3897 7.49864 15.6909 7.49992 16ZM5.49992 10.592V13.408C5.20765 13.3062 4.95431 13.1159 4.77504 12.8636C4.59577 12.6113 4.49945 12.3095 4.49945 12C4.49945 11.6905 4.59577 11.3887 4.77504 11.1364C4.95431 10.8841 5.20765 10.6938 5.49992 10.592Z" fill="#16BE6E"/>
<path d="M3.5 3V2.5C3.5 2.36739 3.44732 2.24021 3.35355 2.14645C3.25979 2.05268 3.13261 2 3 2C2.86739 2 2.74021 2.05268 2.64645 2.14645C2.55268 2.24021 2.5 2.36739 2.5 2.5V3C2.5 3.13261 2.55268 3.25979 2.64645 3.35355C2.74021 3.44732 2.86739 3.5 3 3.5C3.13261 3.5 3.25979 3.44732 3.35355 3.35355C3.44732 3.25979 3.5 3.13261 3.5 3Z" fill="#16BE6E"/>
<path d="M16 3.5C16.1326 3.5 16.2598 3.44732 16.3536 3.35355C16.4473 3.25979 16.5 3.13261 16.5 3V2.5C16.5 2.36739 16.4473 2.24021 16.3536 2.14645C16.2598 2.05268 16.1326 2 16 2C15.8674 2 15.7402 2.05268 15.6464 2.14645C15.5527 2.24021 15.5 2.36739 15.5 2.5V3C15.5 3.13261 15.5527 3.25979 15.6464 3.35355C15.7402 3.44732 15.8674 3.5 16 3.5Z" fill="#16BE6E"/>
<path d="M13 27H6C5.86739 27 5.74021 27.0527 5.64645 27.1464C5.55268 27.2402 5.5 27.3674 5.5 27.5C5.5 27.6326 5.55268 27.7598 5.64645 27.8536C5.74021 27.9473 5.86739 28 6 28H13C13.1326 28 13.2598 27.9473 13.3536 27.8536C13.4473 27.7598 13.5 27.6326 13.5 27.5C13.5 27.3674 13.4473 27.2402 13.3536 27.1464C13.2598 27.0527 13.1326 27 13 27Z" fill="#16BE6E"/>
<path d="M3 21.5C3 21.6326 3.05268 21.7598 3.14645 21.8536C3.24021 21.9473 3.36739 22 3.5 22H15.5C15.6326 22 15.7598 21.9473 15.8536 21.8536C15.9473 21.7598 16 21.6326 16 21.5C16 21.3674 15.9473 21.2402 15.8536 21.1464C15.7598 21.0527 15.6326 21 15.5 21H3.5C3.36739 21 3.24021 21.0527 3.14645 21.1464C3.05268 21.2402 3 21.3674 3 21.5Z" fill="#16BE6E"/>
</g>
<defs>
<clipPath id="clip0_2540_33095">
<rect width="30" height="30" fill="white" transform="translate(0.5)"/>
</clipPath>
</defs>
</svg>
