<svg width="25" height="25" viewBox="0 0 25 25" fill="none" xmlns="http://www.w3.org/2000/svg">
<path d="M20.9616 3.94861C19.001 3.83493 16.7792 2.54212 15.9149 1.99205C15.4747 1.71109 14.9633 1.56204 14.4411 1.56251H10.5599C10.0407 1.56101 9.53201 1.70821 9.09388 1.98671C8.22852 2.53868 6.00359 3.83455 4.03902 3.94861C3.74107 3.96658 3.46123 4.09765 3.25668 4.31503C3.05213 4.53242 2.93831 4.8197 2.93848 5.11819L2.93868 12.6125C2.93408 13.4822 3.08644 14.3456 3.38842 15.1611C4.083 17.0484 5.18846 18.7577 6.6248 20.1653C8.06114 21.5729 9.79243 22.6436 11.6934 23.2998C12.2159 23.4829 12.7851 23.4829 13.3076 23.2998C15.2082 22.6437 16.9393 21.5734 18.3755 20.1661C19.8116 18.7589 20.917 17.05 21.6116 15.1631C21.9142 14.3463 22.0668 13.4816 22.0621 12.6106L22.0623 5.11972C22.0626 4.821 21.9489 4.53343 21.7443 4.31576C21.5397 4.09809 21.2598 3.96676 20.9616 3.94861ZM21.2809 12.6106C21.1727 15.9797 18.5043 20.5689 13.0485 22.5629C12.6938 22.6872 12.3073 22.6872 11.9526 22.5628C10.1598 21.9438 8.52694 20.934 7.17228 19.6065C5.81763 18.2789 4.77502 16.6668 4.11989 14.8869C3.85092 14.159 3.71543 13.3885 3.71993 12.6125L3.71973 5.11819C3.71938 5.01897 3.75693 4.92336 3.82471 4.85091C3.8925 4.77845 3.98539 4.73461 4.08441 4.72835C6.15484 4.60857 8.37499 3.37184 9.51387 2.64514C9.82666 2.44698 10.1896 2.34241 10.5599 2.34376H14.4411C14.8146 2.3434 15.1803 2.44996 15.4951 2.65084C16.6327 3.37526 18.8498 4.60855 20.9164 4.72833C21.0156 4.73481 21.1086 4.77894 21.1764 4.85168C21.2441 4.92443 21.2816 5.02031 21.2811 5.11973L21.2809 12.6106Z" fill="#16BE6E"/>
<path d="M12.5006 6.29688C10.8561 6.29871 9.27944 6.95279 8.1166 8.11563C6.95377 9.27846 6.29968 10.8551 6.29785 12.4996C6.63845 20.7283 18.3639 20.7259 18.7033 12.4995C18.7014 10.855 18.0473 9.27843 16.8845 8.11561C15.7217 6.95279 14.145 6.29871 12.5006 6.29688ZM12.5006 17.921C11.0632 17.9194 9.68514 17.3477 8.66877 16.3314C7.6524 15.315 7.0807 13.9369 7.0791 12.4996C7.37676 5.30727 17.6254 5.30934 17.922 12.4996C17.9204 13.937 17.3487 15.315 16.3323 16.3314C15.3159 17.3477 13.9379 17.9194 12.5006 17.921Z" fill="#16BE6E"/>
<path d="M13.6516 10.9577C13.6516 11.0613 13.6927 11.1607 13.766 11.2339C13.8392 11.3072 13.9386 11.3483 14.0422 11.3483C14.1458 11.3483 14.2451 11.3072 14.3184 11.2339C14.3917 11.1607 14.4328 11.0613 14.4328 10.9577C14.4322 10.5131 14.2786 10.0822 13.9978 9.73744C13.717 9.39271 13.3261 9.15513 12.8907 9.06464V8.30078C12.8907 8.19718 12.8496 8.09782 12.7763 8.02457C12.7031 7.95131 12.6037 7.91016 12.5001 7.91016C12.3965 7.91016 12.2971 7.95131 12.2239 8.02457C12.1506 8.09782 12.1095 8.19718 12.1095 8.30078V9.06465C11.6771 9.15842 11.2899 9.39736 11.0123 9.74174C10.7346 10.0861 10.5832 10.5152 10.5832 10.9575C10.5832 11.3999 10.7346 11.829 11.0123 12.1733C11.29 12.5177 11.6772 12.7566 12.1095 12.8504L12.1095 15.1203C11.8872 15.0404 11.6949 14.894 11.5588 14.701C11.4227 14.508 11.3493 14.2777 11.3486 14.0415C11.3466 13.9392 11.3046 13.8418 11.2316 13.7702C11.1585 13.6986 11.0603 13.6584 10.958 13.6584C10.8557 13.6584 10.7575 13.6986 10.6844 13.7702C10.6114 13.8418 10.5694 13.9393 10.5674 14.0415C10.568 14.4862 10.7216 14.9171 11.0024 15.2618C11.2832 15.6065 11.6741 15.8441 12.1095 15.9346V16.6984C12.1095 16.802 12.1506 16.9014 12.2239 16.9747C12.2971 17.0479 12.3965 17.0891 12.5001 17.0891C12.6037 17.0891 12.7031 17.0479 12.7763 16.9747C12.8496 16.9014 12.8907 16.802 12.8907 16.6984V15.9346C13.3231 15.8408 13.7103 15.6019 13.9879 15.2575C14.2656 14.9131 14.417 14.4841 14.417 14.0417C14.417 13.5993 14.2656 13.1702 13.9879 12.8259C13.7102 12.4815 13.323 12.2426 12.8907 12.1488L12.8907 9.87891C13.113 9.95882 13.3052 10.1052 13.4414 10.2983C13.5775 10.4913 13.6509 10.7215 13.6516 10.9577ZM11.3486 10.9577C11.3493 10.7215 11.4227 10.4913 11.5588 10.2983C11.695 10.1052 11.8872 9.95882 12.1095 9.87891V12.0362C11.8872 11.9563 11.695 11.8099 11.5589 11.617C11.4228 11.424 11.3493 11.1938 11.3486 10.9577ZM13.6516 14.0415C13.6509 14.2777 13.5775 14.508 13.4414 14.701C13.3052 14.894 13.113 15.0404 12.8907 15.1203V12.9631C13.1129 13.0429 13.3052 13.1893 13.4413 13.3822C13.5774 13.5752 13.6508 13.8054 13.6516 14.0415Z" fill="#16BE6E"/>
</svg>
