<svg width="30" height="30" viewBox="0 0 30 30" fill="none" xmlns="http://www.w3.org/2000/svg">
<g clip-path="url(#clip0_2540_31239)">
<path d="M29.7521 20.5011C27.3452 18.8208 24.9607 17.6826 22.6536 17.1111C23.7675 13.4851 22.5899 10.0139 22.5325 9.84914C22.4161 9.51514 22.0017 9.35161 21.6873 9.52262C20.577 10.1268 19.574 10.7817 18.6937 11.4758C18.0919 9.37122 17.0084 7.18982 15.464 4.97741C15.2338 4.64774 14.7209 4.64596 14.4895 4.97741C12.9453 7.18941 11.8619 9.37045 11.26 11.4748C10.3799 10.781 9.3775 10.1264 8.2677 9.52256C7.95206 9.35072 7.5392 9.51436 7.42256 9.84908C7.3651 10.014 6.185 13.4924 7.30497 17.1226C5.02772 17.685 2.65707 18.8192 0.247919 20.5009C-0.0817477 20.7311 -0.0835303 21.244 0.247919 21.4753C3.85731 23.995 7.33937 25.2705 10.606 25.2704C12.1079 25.2697 13.6062 24.9904 14.9995 24.4269C16.2028 24.9137 17.6709 25.2703 19.3924 25.2703C20.3288 25.2703 20.3206 24.0818 19.393 24.0818C18.3184 24.0818 17.3542 23.9275 16.5033 23.6872C16.8465 23.4861 17.1537 23.2826 17.4231 23.0876C18.403 22.3785 19.4305 21.8997 20.3065 21.0243C21.1129 20.2185 21.7673 19.2732 22.233 18.2323C24.2115 18.7025 26.2639 19.6266 28.3505 20.9882C26.9064 21.9311 25.4798 22.6662 24.1001 23.1778C23.3851 23.4428 23.7957 24.5581 24.5131 24.2921C26.2169 23.6605 27.9795 22.7128 29.7521 21.4755C30.0818 21.2453 30.0836 20.7324 29.7521 20.5011ZM14.9767 6.37891C16.3895 8.5423 17.3285 10.6558 17.7711 12.6712C18.553 16.2315 17.7157 20.2186 14.9767 22.7586C12.2377 20.2186 11.4005 16.2315 12.1823 12.6712C12.625 10.6557 13.5639 8.5423 14.9767 6.37891ZM8.35446 10.9365C9.32521 11.5064 10.1947 12.1166 10.9513 12.7573C10.3454 15.862 10.8501 19.1093 12.6101 21.7647C8.67253 19.559 7.35815 15.1903 8.35446 10.9365ZM1.65049 20.9875C3.73717 19.6249 5.77583 18.7047 7.72703 18.2435C8.7026 20.416 10.4842 22.0551 12.5989 23.1033C12.8706 23.299 13.1775 23.5012 13.5184 23.7001C9.05936 24.973 4.53168 22.8584 1.65049 20.9875ZM17.3424 21.7662C19.103 19.1106 19.6081 15.8635 19.0025 12.7584C19.7593 12.1174 20.6292 11.5067 21.6006 10.9365C22.5972 15.1922 21.2819 19.5606 17.3424 21.7662Z" fill="#16BE6E"/>
<path d="M22.5787 24.271C22.4559 23.9716 22.1012 23.8254 21.8026 23.9496C21.504 24.0738 21.3576 24.426 21.4818 24.725C21.6058 25.0239 21.9579 25.1707 22.2573 25.0465C22.556 24.9225 22.7033 24.5703 22.5787 24.271Z" fill="#16BE6E"/>
</g>
<defs>
<clipPath id="clip0_2540_31239">
<rect width="30" height="30" fill="white"/>
</clipPath>
</defs>
</svg>
