<svg width="25" height="25" viewBox="0 0 25 25" fill="none" xmlns="http://www.w3.org/2000/svg">
<g clip-path="url(#clip0_2540_39246)">
<path d="M23.8282 3.90545H21.5883L16.8383 1.19139C16.5921 1.05039 16.3181 0.964825 16.0354 0.940672C15.7527 0.916518 15.4682 0.954356 15.2016 1.05154L12.6137 1.99139C12.2842 2.112 11.9931 2.31895 11.7709 2.59059C11.5487 2.86224 11.4036 3.1886 11.3508 3.53553C10.1141 2.98436 8.70277 2.91834 7.71058 3.79568C7.37548 4.07739 7.10606 4.429 6.92123 4.82584C6.7364 5.22269 6.64062 5.65517 6.64062 6.09295C6.64062 6.53073 6.7364 6.96321 6.92123 7.36006C7.10606 7.7569 7.37548 8.10851 7.71058 8.39022L12.2418 12.3996C12.3133 12.4629 12.4054 12.4978 12.5008 12.4978C12.5962 12.4978 12.6884 12.4629 12.7598 12.3996L14.42 10.9301C14.4317 10.9301 17.5594 10.9351 17.5594 10.9351H19.9219C19.9825 10.9352 20.0423 10.9212 20.0965 10.8941L21.5766 10.1555H23.8282C23.9318 10.1555 24.0311 10.1143 24.1044 10.041C24.1776 9.96778 24.2188 9.86843 24.2188 9.76483V4.29608C24.2188 4.19248 24.1776 4.09312 24.1044 4.01986C24.0311 3.94661 23.9318 3.90545 23.8282 3.90545ZM12.5 11.5871L8.22855 7.80662C7.97625 7.5983 7.77311 7.3368 7.63367 7.04082C7.49422 6.74484 7.42191 6.4217 7.42191 6.09451C7.42191 5.76733 7.49422 5.44419 7.63367 5.14821C7.77311 4.85223 7.97625 4.59072 8.22855 4.3824C9.29534 3.43865 11.0922 4.01014 12.241 5.02694C12.3125 5.0902 12.4046 5.12513 12.5 5.12513C12.5955 5.12513 12.6876 5.0902 12.759 5.02694C13.9078 4.01131 15.7043 3.43787 16.7715 4.3824C17.143 4.69017 17.4038 5.11081 17.5144 5.58039C17.625 6.04996 17.5792 6.54279 17.384 6.98397L16.6848 7.42108H14.4922L12.0516 6.93279C11.652 6.8522 11.2367 6.92879 10.8921 7.14662C10.5475 7.36445 10.3002 7.70676 10.2015 8.10231C10.1029 8.49787 10.1606 8.91622 10.3626 9.27033C10.5646 9.62444 10.8953 9.88704 11.286 10.0035L13.5289 10.6765L12.5 11.5871ZM23.4375 9.3742H21.4844C21.4238 9.37414 21.364 9.38819 21.3098 9.41522L19.8297 10.1555H14.5102L11.5098 9.25701C11.3117 9.19811 11.1439 9.06506 11.0415 8.88557C10.939 8.70608 10.9097 8.49398 10.9597 8.29343C11.0097 8.09289 11.1351 7.91935 11.3098 7.80895C11.4845 7.69855 11.6951 7.6598 11.8977 7.70076L14.375 8.19451C14.4007 8.19973 14.4269 8.20235 14.4532 8.20233H16.7969C16.8701 8.20233 16.9419 8.18175 17.0039 8.14295L20.1289 6.18983C20.1725 6.16264 20.2104 6.12713 20.2402 6.08532C20.2701 6.04352 20.2915 5.99624 20.3031 5.94618C20.3147 5.89613 20.3163 5.84427 20.3079 5.79359C20.2995 5.7429 20.2811 5.69437 20.2539 5.65076C20.2268 5.60716 20.1912 5.56934 20.1494 5.53946C20.1076 5.50958 20.0604 5.48823 20.0103 5.47662C19.9602 5.46501 19.9084 5.46338 19.8577 5.47181C19.807 5.48024 19.7585 5.49858 19.7149 5.52576L18.3477 6.38084C18.3915 5.89677 18.3184 5.40926 18.1344 4.95937C17.9505 4.50947 17.6611 4.11037 17.2907 3.79568C15.97 2.62967 13.9063 3.1324 12.5 4.22694C12.375 4.12967 12.2438 4.03904 12.1094 3.9535V3.82733C12.1099 3.58684 12.1841 3.35229 12.322 3.15531C12.46 2.95833 12.6551 2.8084 12.8809 2.72576L15.4688 1.78553C15.6286 1.72717 15.7993 1.70444 15.9689 1.71895C16.1385 1.73346 16.3028 1.78484 16.4504 1.86951L21.2891 4.63514C21.3486 4.66915 21.4159 4.68694 21.4844 4.6867H23.4375V9.3742Z" fill="white"/>
<path d="M20.5719 13.3801C20.5004 13.3165 20.4081 13.2813 20.3125 13.2812H4.6875C4.59186 13.2813 4.49957 13.3165 4.42813 13.3801L0.9125 16.5051C0.871265 16.5417 0.838251 16.5866 0.815629 16.6369C0.793007 16.6872 0.78129 16.7417 0.78125 16.7969V23.8281C0.78125 23.9317 0.822405 24.0311 0.895661 24.1043C0.968918 24.1776 1.06827 24.2188 1.17188 24.2188H23.8281C23.9317 24.2188 24.0311 24.1776 24.1043 24.1043C24.1776 24.0311 24.2188 23.9317 24.2188 23.8281V16.7969C24.2187 16.7417 24.207 16.6872 24.1844 16.6369C24.1617 16.5866 24.1287 16.5417 24.0875 16.5051L20.5719 13.3801ZM4.83594 14.0625H20.1641L22.8008 16.4062H2.19922L4.83594 14.0625ZM1.5625 23.4375V17.1875H23.4375V23.4375H1.5625Z" fill="white"/>
<path d="M8.20312 15.625H16.7969C16.9005 15.625 16.9998 15.5838 17.0731 15.5106C17.1463 15.4373 17.1875 15.338 17.1875 15.2344C17.1875 15.1308 17.1463 15.0314 17.0731 14.9582C16.9998 14.8849 16.9005 14.8438 16.7969 14.8438H8.20312C8.09952 14.8438 8.00017 14.8849 7.92691 14.9582C7.85365 15.0314 7.8125 15.1308 7.8125 15.2344C7.8125 15.338 7.85365 15.4373 7.92691 15.5106C8.00017 15.5838 8.09952 15.625 8.20312 15.625Z" fill="white"/>
<path d="M12.5115 18.4218L12.4998 18.4331L12.4881 18.4218C12.1853 18.1316 11.7821 17.9696 11.3627 17.9696C10.9433 17.9696 10.5401 18.1316 10.2373 18.4218C10.0881 18.5654 9.96949 18.7376 9.88845 18.9281C9.8074 19.1186 9.76563 19.3236 9.76562 19.5306C9.76562 19.7376 9.8074 19.9426 9.88845 20.1331C9.96949 20.3236 10.0881 20.4958 10.2373 20.6394L12.2295 22.573C12.3024 22.6439 12.4001 22.6835 12.5018 22.6835C12.6034 22.6835 12.7011 22.6439 12.774 22.573L14.7643 20.6398C14.9134 20.4962 15.0321 20.324 15.1131 20.1335C15.1942 19.9429 15.2359 19.738 15.2359 19.531C15.2359 19.3239 15.1942 19.119 15.1131 18.9285C15.0321 18.738 14.9134 18.5658 14.7643 18.4222C14.4615 18.1313 14.0579 17.9688 13.638 17.9688C13.2181 17.9687 12.8144 18.131 12.5115 18.4218ZM14.2186 20.0773L12.4998 21.748L10.7811 20.0773C10.7068 20.0066 10.6477 19.9215 10.6073 19.8273C10.5669 19.733 10.5461 19.6316 10.5461 19.529C10.5461 19.4265 10.5669 19.325 10.6073 19.2308C10.6477 19.1366 10.7068 19.0515 10.7811 18.9808C10.9372 18.8309 11.1453 18.7473 11.3617 18.7473C11.5782 18.7473 11.7862 18.8309 11.9424 18.9808L12.2268 19.257C12.2997 19.3278 12.3973 19.3675 12.499 19.3675C12.6007 19.3675 12.6984 19.3278 12.7713 19.257L13.0557 18.9808C13.2119 18.8309 13.42 18.7472 13.6365 18.7472C13.853 18.7472 14.0611 18.8309 14.2174 18.9808C14.2916 19.0515 14.3508 19.1366 14.3912 19.2308C14.4315 19.325 14.4524 19.4265 14.4524 19.529C14.4524 19.6316 14.4315 19.733 14.3912 19.8273C14.3508 19.9215 14.2916 20.0066 14.2174 20.0773H14.2186Z" fill="white"/>
</g>
<defs>
<clipPath id="clip0_2540_39246">
<rect width="25" height="25" fill="white"/>
</clipPath>
</defs>
</svg>
