<svg width="26" height="25" viewBox="0 0 26 25" fill="none" xmlns="http://www.w3.org/2000/svg">
<path d="M2.74366 9.53917V21.4532C2.74366 21.7996 2.81202 22.1426 2.94482 22.4626C3.07762 22.7825 3.27225 23.0731 3.51756 23.3177C3.76286 23.5623 4.05403 23.756 4.37436 23.8879C4.69469 24.0197 5.03789 24.0871 5.38429 24.086H20.4234C21.1216 24.086 21.7913 23.8087 22.285 23.3149C22.7788 22.8212 23.0562 22.1515 23.0562 21.4532V9.53917C23.0562 8.84018 22.779 8.16971 22.2855 7.67472C21.792 7.17973 21.1223 6.90061 20.4234 6.89854H18.7515C18.982 6.66074 19.1863 6.39881 19.3609 6.11729C19.6949 5.55782 19.8791 4.92164 19.8955 4.27021C19.9119 3.61879 19.7601 2.97414 19.4546 2.39854C19.1889 1.93453 18.8022 1.55137 18.3358 1.28995C17.8693 1.02852 17.3406 0.898642 16.8062 0.914168C16.2208 0.89551 15.6384 1.00387 15.0989 1.23179C14.5595 1.45971 14.0758 1.80178 13.6812 2.23448C13.369 2.56498 13.1059 2.93858 12.8999 3.34386C12.706 2.94097 12.4561 2.5675 12.1577 2.23448C11.7631 1.80178 11.2794 1.45971 10.74 1.23179C10.2005 1.00387 9.61806 0.89551 9.03273 0.914168C8.49802 0.898133 7.96891 1.02688 7.50134 1.28679C7.03377 1.5467 6.64512 1.92812 6.37648 2.39073C6.07102 2.96633 5.91916 3.61098 5.93558 4.2624C5.95201 4.91383 6.13615 5.55 6.47023 6.10948C6.64474 6.391 6.84904 6.65292 7.0796 6.89073H5.38429C5.03686 6.89073 4.69284 6.95929 4.37196 7.09248C4.05107 7.22567 3.75962 7.42088 3.51432 7.66691C3.26901 7.91294 3.07467 8.20497 2.94242 8.52625C2.81018 8.84752 2.74264 9.19174 2.74366 9.53917ZM21.4937 9.53917V21.4532C21.4937 21.5938 21.466 21.733 21.4122 21.8628C21.3584 21.9927 21.2796 22.1107 21.1802 22.2101C21.0808 22.3094 20.9628 22.3883 20.8329 22.4421C20.7031 22.4959 20.5639 22.5235 20.4234 22.5235H13.6812L13.7359 8.46104H20.4468C20.7273 8.46918 20.9935 8.58634 21.189 8.78766C21.3845 8.98897 21.4938 9.25856 21.4937 9.53917ZM16.8062 2.50792C17.0669 2.49035 17.3273 2.54617 17.5579 2.66907C17.7885 2.79197 17.9801 2.97701 18.1109 3.20323C18.2826 3.54052 18.3636 3.91673 18.3457 4.29481C18.3279 4.67289 18.212 5.03982 18.0093 5.35948C17.6734 5.94542 16.7905 6.92198 14.6655 6.92198H13.6812C13.6812 5.97667 13.8609 4.29698 14.7671 3.30479C15.0238 3.02352 15.3401 2.80318 15.6929 2.6599C16.0457 2.51662 16.4261 2.45401 16.8062 2.47667V2.50792ZM7.79835 5.32823C7.59567 5.00857 7.47971 4.64164 7.4619 4.26356C7.44409 3.88548 7.52505 3.50927 7.69679 3.17198C7.82698 2.94701 8.0173 2.76277 8.24638 2.63995C8.47546 2.51713 8.73424 2.46059 8.99367 2.47667C9.36376 2.45395 9.73436 2.51206 10.0797 2.64697C10.4251 2.78188 10.737 2.99036 10.9937 3.25792C11.9077 4.27354 12.0718 5.95323 12.1187 6.89854H11.1421C8.99367 6.89854 8.13429 5.91417 7.79835 5.32823ZM4.30616 9.53917C4.30616 9.25323 4.41975 8.97901 4.62194 8.77682C4.82413 8.57463 5.09835 8.46104 5.38429 8.46104H12.1187L12.064 22.5235H5.38429C5.24308 22.5246 5.10306 22.4977 4.9723 22.4443C4.84154 22.391 4.72263 22.3123 4.62241 22.2128C4.52219 22.1133 4.44265 21.995 4.38838 21.8646C4.3341 21.7343 4.30616 21.5944 4.30616 21.4532V9.53917Z" fill="white"/>
</svg>
