<svg width="26" height="25" viewBox="0 0 26 25" fill="none" xmlns="http://www.w3.org/2000/svg">
<path d="M15.4756 7.05469C14.5799 7.11289 13.7279 7.46274 13.0498 8.05078C12.3717 7.46274 11.5197 7.11289 10.624 7.05469C8.28027 7.05469 6.19434 9.4375 6.19434 12.1523C6.19434 14.2813 7.29199 16.4258 9.37793 18.3555C10.2653 19.1654 11.2339 19.8815 12.2686 20.4922C12.6592 20.7227 12.8896 20.8398 12.8896 20.8398C12.9442 20.8673 13.0044 20.8816 13.0654 20.8816C13.1265 20.8816 13.1867 20.8673 13.2412 20.8398C13.2412 20.8398 13.4873 20.7148 13.8623 20.4922C14.8848 19.8794 15.8428 19.1648 16.7217 18.3594C18.8076 16.4336 19.9092 14.2891 19.9092 12.1563C19.9092 9.4375 17.835 7.05469 15.4756 7.05469ZM16.1748 17.7813C15.3349 18.552 14.4187 19.2352 13.4404 19.8203C13.2764 19.918 13.1396 19.9961 13.0498 20.0469C12.9521 19.9961 12.8193 19.918 12.6592 19.8203C11.6792 19.2377 10.7627 18.5543 9.9248 17.7813C7.97168 15.9805 6.99121 14.0859 6.99121 12.1523C6.99121 9.85156 8.69434 7.85547 10.6396 7.85547C11.46 7.85547 12.2373 8.39844 12.8193 8.87109C12.8889 8.92755 12.9758 8.95836 13.0654 8.95836C13.155 8.95836 13.2419 8.92755 13.3115 8.87109C13.8975 8.39844 14.6709 7.85547 15.4912 7.85547C17.4443 7.85547 19.1436 9.87109 19.1436 12.1719C19.1279 14.0859 18.1279 15.9805 16.1748 17.7813Z" fill="white"/>
<path d="M21.5578 3.80955H19.4992V1.56345C19.4993 1.50607 19.4868 1.44936 19.4624 1.39738C19.4381 1.34539 19.4027 1.2994 19.3586 1.26267C19.3156 1.22559 19.2649 1.19834 19.2103 1.18282C19.1557 1.16731 19.0983 1.1639 19.0422 1.17283L4.47578 3.81736C4.47578 3.81736 4.44843 3.81736 4.43281 3.81736C4.4099 3.8228 4.38764 3.83065 4.3664 3.8408C4.3441 3.85285 4.32314 3.86725 4.3039 3.88376C4.28516 3.8973 4.26811 3.91304 4.25312 3.93064C4.23661 3.94988 4.2222 3.97083 4.21015 3.99314C4.19822 4.01183 4.18778 4.03142 4.1789 4.05173C4.17669 4.08034 4.17669 4.10907 4.1789 4.13767C4.17713 4.15325 4.17713 4.16897 4.1789 4.18455V23.4385C4.1789 23.5421 4.22006 23.6414 4.29331 23.7147C4.36657 23.7879 4.46593 23.8291 4.56953 23.8291H21.5578C21.6614 23.8291 21.7608 23.7879 21.834 23.7147C21.9073 23.6414 21.9484 23.5421 21.9484 23.4385V4.20017C21.9484 4.09657 21.9073 3.99721 21.834 3.92396C21.7608 3.8507 21.6614 3.80955 21.5578 3.80955ZM18.718 2.0322V3.80955H8.89374L18.718 2.0322ZM21.1672 23.0478H4.93281V4.5908H21.1672V23.0478Z" fill="white"/>
</svg>
