<svg width="26" height="25" viewBox="0 0 26 25" fill="none" xmlns="http://www.w3.org/2000/svg">
<path d="M21.4611 3.94861C19.5006 3.83493 17.2787 2.54212 16.4144 1.99205C15.9743 1.71109 15.4628 1.56204 14.9406 1.56251H11.0594C10.5402 1.56101 10.0315 1.70821 9.59339 1.98671C8.72804 2.53868 6.5031 3.83455 4.53853 3.94861C4.24058 3.96658 3.96075 4.09765 3.7562 4.31503C3.55165 4.53242 3.43782 4.8197 3.43799 5.11819L3.43819 12.6125C3.4336 13.4822 3.58595 14.3456 3.88793 15.1611C4.58251 17.0484 5.68797 18.7577 7.12431 20.1653C8.56065 21.5729 10.2919 22.6436 12.1929 23.2998C12.7154 23.4829 13.2846 23.4829 13.8071 23.2998C15.7078 22.6437 17.4388 21.5734 18.875 20.1661C20.3111 18.7589 21.4165 17.05 22.1111 15.1631C22.4137 14.3463 22.5663 13.4816 22.5616 12.6106L22.5618 5.11972C22.5622 4.821 22.4484 4.53343 22.2438 4.31576C22.0392 4.09809 21.7593 3.96676 21.4611 3.94861ZM21.7804 12.6106C21.6722 15.9797 19.0038 20.5689 13.548 22.5629C13.1933 22.6872 12.8068 22.6872 12.4521 22.5628C10.6593 21.9438 9.02645 20.934 7.6718 19.6065C6.31714 18.2789 5.27453 16.6668 4.6194 14.8869C4.35043 14.159 4.21494 13.3885 4.21944 12.6125L4.21924 5.11819C4.21889 5.01897 4.25644 4.92336 4.32423 4.85091C4.39201 4.77845 4.4849 4.73461 4.58393 4.72835C6.65435 4.60857 8.8745 3.37184 10.0134 2.64514C10.3262 2.44698 10.6891 2.34241 11.0594 2.34376H14.9406C15.3141 2.3434 15.6798 2.44996 15.9946 2.65084C17.1322 3.37526 19.3493 4.60855 21.4159 4.72833C21.5151 4.73481 21.6081 4.77894 21.6759 4.85168C21.7437 4.92443 21.7811 5.02031 21.7806 5.11973L21.7804 12.6106Z" fill="white"/>
<path d="M13.0001 6.29688C11.3556 6.29871 9.77895 6.95279 8.61612 8.11563C7.45328 9.27846 6.7992 10.8551 6.79736 12.4996C7.13796 20.7283 18.8634 20.7259 19.2028 12.4995C19.2009 10.855 18.5468 9.27843 17.384 8.11561C16.2212 6.95279 14.6446 6.29871 13.0001 6.29688ZM13.0001 17.921C11.5627 17.9194 10.1847 17.3477 9.16828 16.3314C8.15191 15.315 7.58021 13.9369 7.57861 12.4996C7.87627 5.30727 18.1249 5.30934 18.4215 12.4996C18.4199 13.937 17.8482 15.315 16.8318 16.3314C15.8155 17.3477 14.4374 17.9194 13.0001 17.921Z" fill="white"/>
<path d="M14.1516 10.9577C14.1516 11.0613 14.1927 11.1607 14.266 11.2339C14.3392 11.3072 14.4386 11.3483 14.5422 11.3483C14.6458 11.3483 14.7451 11.3072 14.8184 11.2339C14.8917 11.1607 14.9328 11.0613 14.9328 10.9577C14.9322 10.5131 14.7786 10.0822 14.4978 9.73744C14.217 9.39271 13.8261 9.15513 13.3907 9.06464V8.30078C13.3907 8.19718 13.3496 8.09782 13.2763 8.02457C13.2031 7.95131 13.1037 7.91016 13.0001 7.91016C12.8965 7.91016 12.7971 7.95131 12.7239 8.02457C12.6506 8.09782 12.6095 8.19718 12.6095 8.30078V9.06465C12.1771 9.15842 11.7899 9.39736 11.5123 9.74174C11.2346 10.0861 11.0832 10.5152 11.0832 10.9575C11.0832 11.3999 11.2346 11.829 11.5123 12.1733C11.79 12.5177 12.1772 12.7566 12.6095 12.8504L12.6095 15.1203C12.3872 15.0404 12.1949 14.894 12.0588 14.701C11.9227 14.508 11.8493 14.2777 11.8486 14.0415C11.8466 13.9392 11.8046 13.8418 11.7316 13.7702C11.6585 13.6986 11.5603 13.6584 11.458 13.6584C11.3557 13.6584 11.2575 13.6986 11.1844 13.7702C11.1114 13.8418 11.0694 13.9393 11.0674 14.0415C11.068 14.4862 11.2216 14.9171 11.5024 15.2618C11.7832 15.6065 12.1741 15.8441 12.6095 15.9346V16.6984C12.6095 16.802 12.6506 16.9014 12.7239 16.9747C12.7971 17.0479 12.8965 17.0891 13.0001 17.0891C13.1037 17.0891 13.2031 17.0479 13.2763 16.9747C13.3496 16.9014 13.3907 16.802 13.3907 16.6984V15.9346C13.8231 15.8408 14.2103 15.6019 14.4879 15.2575C14.7656 14.9131 14.917 14.4841 14.917 14.0417C14.917 13.5993 14.7656 13.1702 14.4879 12.8259C14.2102 12.4815 13.823 12.2426 13.3907 12.1488L13.3907 9.87891C13.613 9.95882 13.8052 10.1052 13.9414 10.2983C14.0775 10.4913 14.1509 10.7215 14.1516 10.9577ZM11.8486 10.9577C11.8493 10.7215 11.9227 10.4913 12.0588 10.2983C12.195 10.1052 12.3872 9.95882 12.6095 9.87891V12.0362C12.3872 11.9563 12.195 11.8099 12.0589 11.617C11.9228 11.424 11.8493 11.1938 11.8486 10.9577ZM14.1516 14.0415C14.1509 14.2777 14.0775 14.508 13.9414 14.701C13.8052 14.894 13.613 15.0404 13.3907 15.1203V12.9631C13.6129 13.0429 13.8052 13.1893 13.9413 13.3822C14.0774 13.5752 14.1508 13.8054 14.1516 14.0415Z" fill="white"/>
</svg>
