<svg width="25" height="25" viewBox="0 0 25 25" fill="none" xmlns="http://www.w3.org/2000/svg">
<g clip-path="url(#clip0_2540_34578)">
<path d="M7.9747 19.4453C6.53323 19.4453 5.36475 20.6139 5.36475 22.0553C5.36475 23.4967 6.53329 24.6652 7.9747 24.6652C9.41617 24.6652 10.5847 23.4967 10.5847 22.0553C10.5847 20.6139 9.41617 19.4453 7.9747 19.4453ZM7.9747 23.5053C7.1739 23.5053 6.52474 22.8561 6.52474 22.0553C6.52474 21.2545 7.1739 20.6054 7.9747 20.6054C8.7755 20.6054 9.42466 21.2545 9.42466 22.0553C9.42472 22.8561 8.7755 23.5053 7.9747 23.5053Z" fill="white"/>
<path d="M18.9947 19.4453C17.5533 19.4453 16.3848 20.6139 16.3848 22.0553C16.3848 23.4967 17.5533 24.6652 18.9947 24.6652C20.4361 24.6652 21.6047 23.4967 21.6047 22.0553C21.6047 20.6139 20.4362 19.4453 18.9947 19.4453ZM18.9947 23.5053C18.1939 23.5053 17.5448 22.8561 17.5448 22.0553C17.5448 21.2545 18.1939 20.6054 18.9947 20.6054C19.7955 20.6054 20.4447 21.2545 20.4447 22.0553C20.4447 22.8561 19.7955 23.5053 18.9947 23.5053Z" fill="white"/>
<path d="M24.8818 4.22C24.761 4.08806 24.5957 4.00546 24.4178 3.98798L5.53897 3.72698L5.01697 2.13198C4.64924 1.06574 3.65077 0.345918 2.52297 0.333984H0.579996C0.259663 0.333984 0 0.593648 0 0.91398C0 1.23431 0.259663 1.49398 0.579996 1.49398H2.52297C3.15359 1.50791 3.70889 1.91283 3.91499 2.50898L7.59795 13.6159L7.30798 14.2829C6.98454 15.1169 7.08168 16.0557 7.56898 16.8058C8.05162 17.5426 8.86358 17.9974 9.74398 18.0238H21.0249C21.3452 18.0238 21.6049 17.7642 21.6049 17.4438C21.6049 17.1235 21.3452 16.8638 21.0249 16.8638H9.74392C9.24674 16.8514 8.78909 16.5899 8.52593 16.1678C8.26571 15.751 8.21225 15.2374 8.38094 14.7758L8.61296 14.2538L20.8219 12.9778C22.1629 12.8301 23.2661 11.8548 23.5768 10.5418L24.9689 4.7129C25.0316 4.54505 24.9983 4.35627 24.8818 4.22ZM22.4458 10.2809C22.2576 11.1261 21.54 11.7495 20.6769 11.8179L8.61296 13.0649L5.91597 4.88697L23.6928 5.14797L22.4458 10.2809Z" fill="white"/>
</g>
<defs>
<clipPath id="clip0_2540_34578">
<rect width="25" height="25" fill="white"/>
</clipPath>
</defs>
</svg>
