<svg width="25" height="25" viewBox="0 0 25 25" fill="none" xmlns="http://www.w3.org/2000/svg">
<path d="M22.9165 12.5937V9.375C22.9165 8.82247 22.697 8.29256 22.3063 7.90186C21.9156 7.51116 21.3857 7.29167 20.8331 7.29167H20.3123V4.04167C20.3113 3.72557 20.2477 3.41281 20.1252 3.1214C20.0027 2.83 19.8238 2.5657 19.5988 2.34375C19.0952 1.84572 18.4164 1.56519 17.7081 1.5625L4.93209 4.09896C4.11518 4.29545 3.38889 4.76279 2.87155 5.42484C2.3542 6.08688 2.07631 6.90461 2.08313 7.74479V18.7344C2.08473 19.313 2.22 19.8833 2.47839 20.401C2.73678 20.9187 3.1113 21.3697 3.57271 21.7187C4.18575 22.1673 4.92775 22.4049 5.6873 22.3958H20.8331C21.3857 22.3958 21.9156 22.1763 22.3063 21.7856C22.697 21.3949 22.9165 20.865 22.9165 20.3125V18.1354C23.2204 18.028 23.4837 17.8291 23.6701 17.5662C23.8566 17.3032 23.9572 16.989 23.9581 16.6667V14.0625C23.9572 13.7401 23.8566 13.4259 23.6701 13.163C23.4837 12.9 23.2204 12.7012 22.9165 12.5937ZM22.9165 16.6667C22.9165 16.8048 22.8616 16.9373 22.7639 17.035C22.6662 17.1326 22.5338 17.1875 22.3956 17.1875H16.1456C16.0075 17.1875 15.875 17.1326 15.7773 17.035C15.6797 16.9373 15.6248 16.8048 15.6248 16.6667V14.0625C15.6248 13.9244 15.6797 13.7919 15.7773 13.6942C15.875 13.5965 16.0075 13.5417 16.1456 13.5417H22.3956C22.5338 13.5417 22.6662 13.5965 22.7639 13.6942C22.8616 13.7919 22.9165 13.9244 22.9165 14.0625V16.6667ZM20.8331 21.3542H5.72896V17.7083C5.72896 17.5702 5.67409 17.4377 5.57642 17.34C5.47874 17.2424 5.34626 17.1875 5.20813 17.1875C5.07 17.1875 4.93752 17.2424 4.83985 17.34C4.74217 17.4377 4.6873 17.5702 4.6873 17.7083V21.1354C4.5133 21.064 4.34885 20.9713 4.19771 20.8594C3.86537 20.6076 3.59564 20.2825 3.40954 19.9094C3.22344 19.5363 3.126 19.1253 3.1248 18.7083V7.71875C3.12279 7.11912 3.32254 6.53625 3.69192 6.0639C4.0613 5.59155 4.57883 5.25718 5.16126 5.11458L17.5727 2.63542C17.6815 2.61989 17.792 2.61989 17.9008 2.63542C18.2632 2.68169 18.6002 2.8465 18.8592 3.10417C18.9866 3.22526 19.0886 3.37053 19.1593 3.5315C19.2299 3.69247 19.2678 3.8659 19.2706 4.04167V7.29167H6.45292C6.12416 7.29244 5.79857 7.2274 5.49534 7.10038C5.1921 6.97336 4.91736 6.78694 4.6873 6.55208C4.58706 6.46741 4.45857 6.4237 4.32749 6.42967C4.19642 6.43564 4.07243 6.49086 3.98032 6.5843C3.8882 6.67773 3.83474 6.80249 3.83063 6.93364C3.82651 7.06478 3.87205 7.19264 3.95813 7.29167C4.285 7.62088 4.67362 7.88235 5.10173 8.0611C5.52983 8.23985 5.989 8.33236 6.45292 8.33333H20.8331C21.1094 8.33333 21.3744 8.44308 21.5697 8.63843C21.7651 8.83378 21.8748 9.09873 21.8748 9.375V12.5H16.1456C15.7312 12.5 15.3338 12.6646 15.0408 12.9576C14.7478 13.2507 14.5831 13.6481 14.5831 14.0625V16.6667C14.5831 17.0811 14.7478 17.4785 15.0408 17.7715C15.3338 18.0645 15.7312 18.2292 16.1456 18.2292H21.8748V20.3125C21.8748 20.5888 21.7651 20.8537 21.5697 21.0491C21.3744 21.2444 21.1094 21.3542 20.8331 21.3542Z" fill="white"/>
<path d="M17.4478 16.1465C17.8792 16.1465 18.229 15.7967 18.229 15.3652C18.229 14.9338 17.8792 14.584 17.4478 14.584C17.0163 14.584 16.6665 14.9338 16.6665 15.3652C16.6665 15.7967 17.0163 16.1465 17.4478 16.1465Z" fill="white"/>
<path d="M5.20833 12.5C5.0702 12.5 4.93772 12.5549 4.84005 12.6525C4.74237 12.7502 4.6875 12.8827 4.6875 13.0208V15.1042C4.6875 15.2423 4.74237 15.3748 4.84005 15.4725C4.93772 15.5701 5.0702 15.625 5.20833 15.625C5.34647 15.625 5.47894 15.5701 5.57662 15.4725C5.67429 15.3748 5.72917 15.2423 5.72917 15.1042V13.0208C5.72917 12.8827 5.67429 12.7502 5.57662 12.6525C5.47894 12.5549 5.34647 12.5 5.20833 12.5Z" fill="white"/>
</svg>
